<?xml version="1.0" encoding="UTF-8"?>
<svg id="Layer_2" data-name="Layer 2" xmlns="http://www.w3.org/2000/svg" xmlns:xlink="http://www.w3.org/1999/xlink" viewBox="0 0 748.62 390.6">
  <defs>
    <style>
      .cls-1 {
        fill: url(#linear-gradient);
      }

      .cls-1, .cls-2, .cls-3, .cls-4, .cls-5, .cls-6, .cls-7, .cls-8, .cls-9, .cls-10, .cls-11, .cls-12, .cls-13, .cls-14, .cls-15, .cls-16, .cls-17, .cls-18, .cls-19, .cls-20, .cls-21, .cls-22, .cls-23, .cls-24, .cls-25, .cls-26 {
        stroke-width: 0px;
      }

      .cls-2, .cls-21, .cls-23, .cls-24 {
        fill: #000;
      }

      .cls-3 {
        fill: #90c083;
      }

      .cls-27, .cls-28, .cls-24 {
        opacity: .2;
      }

      .cls-4 {
        fill: #a6a8ab;
      }

      .cls-5 {
        fill: #efce7d;
      }

      .cls-6, .cls-28 {
        fill: none;
      }

      .cls-28 {
        stroke: #313537;
        stroke-miterlimit: 10;
        stroke-width: .74px;
      }

      .cls-7 {
        fill: #dcdbdb;
      }

      .cls-29, .cls-23 {
        opacity: .3;
      }

      .cls-8 {
        fill: url(#linear-gradient-2);
      }

      .cls-9 {
        fill: #9aa0a3;
      }

      .cls-10 {
        fill: #84a47a;
      }

      .cls-11 {
        fill: url(#linear-gradient-3);
      }

      .cls-30, .cls-21 {
        opacity: .1;
      }

      .cls-31 {
        clip-path: url(#clippath);
      }

      .cls-12 {
        fill: #ebebeb;
      }

      .cls-13 {
        fill: #ffc741;
      }

      .cls-14 {
        fill: #313537;
      }

      .cls-15 {
        fill: #a6a5a5;
      }

      .cls-16 {
        fill: #231f20;
      }

      .cls-17 {
        fill: #c7c7c6;
      }

      .cls-18 {
        fill: #b0bcc0;
      }

      .cls-19 {
        fill: #fff;
      }

      .cls-20 {
        fill: url(#linear-gradient-5);
        opacity: .5;
      }

      .cls-22 {
        fill: url(#linear-gradient-4);
      }

      .cls-25 {
        fill: #42606e;
      }

      .cls-26 {
        fill: #ffc934;
      }
    </style>
    <linearGradient id="linear-gradient" x1="3917.8" y1="406.65" x2="3917.8" y2="225.6" gradientTransform="translate(4287.03) rotate(-180) scale(1 -1)" gradientUnits="userSpaceOnUse">
      <stop offset="0" stop-color="#ccd3d6"/>
      <stop offset=".6" stop-color="#e1e4e6"/>
      <stop offset="1" stop-color="#e9ebec"/>
    </linearGradient>
    <linearGradient id="linear-gradient-2" x1="3861.57" y1="341.4" x2="3801.28" y2="287.87" gradientTransform="translate(4287.03) rotate(-180) scale(1 -1)" gradientUnits="userSpaceOnUse">
      <stop offset="0" stop-color="#fff"/>
      <stop offset="1" stop-color="#fff" stop-opacity="0"/>
    </linearGradient>
    <linearGradient id="linear-gradient-3" x1="3824.37" y1="316.2" x2="3824.37" y2="169.28" gradientTransform="translate(4287.03) rotate(-180) scale(1 -1)" gradientUnits="userSpaceOnUse">
      <stop offset="0" stop-color="#313537"/>
      <stop offset=".66" stop-color="#bbbdbd"/>
      <stop offset="1" stop-color="#fff"/>
    </linearGradient>
    <linearGradient id="linear-gradient-4" x1="3723.6" y1="321.53" x2="3752.4" y2="321.53" gradientTransform="translate(4287.03) rotate(-180) scale(1 -1)" gradientUnits="userSpaceOnUse">
      <stop offset="0" stop-color="#313537"/>
      <stop offset=".01" stop-color="#34383a"/>
      <stop offset=".29" stop-color="#7b7e7f"/>
      <stop offset=".53" stop-color="#b4b5b6"/>
      <stop offset=".74" stop-color="#dcdddd"/>
      <stop offset=".9" stop-color="#f5f5f6"/>
      <stop offset="1" stop-color="#fff"/>
    </linearGradient>
    <linearGradient id="linear-gradient-5" x1="3775.16" y1="320.68" x2="3775.16" y2="330.61" xlink:href="#linear-gradient-2"/>
    <clipPath id="clippath">
      <rect class="cls-6" x="220.76" y="265.97" width="57.71" height="42.62"/>
    </clipPath>
  </defs>
  <g id="Réteg_1" data-name="Réteg 1">
    <g>
      <path class="cls-12" d="M468.24,22.12c6.36,0,113.41.7,120.14.49.48-.01.74-.73.26-.96-4.24-2.1-9.05-1.68-13.46-3.16-2.59-.87-4.19-2.57-5.99-4.51-1.55-1.68-3.36-2.97-5.57-3.64-1.96-.59-4.08-.66-6.06-.19-2.17.52-4.06,1.76-6.13,2.55-5.14,1.94-10.14.1-13.81-3.71-3.03-3.14-6.01-6.1-10.12-7.78-3.45-1.42-7.27-1.71-10.72-.15-3.93,1.78-6.62,5.36-10.31,7.51-4.37,2.56-9.6,1.95-14.43,2.72-4.84.77-8.54,4.84-12.77,7.18-1.45.8-2.93,1.47-4.62,1.43-.95-.02-1.88-.28-2.81-.4-1.46-.18-2.84-.14-3.82,1.08-.24.3-.19,1.55.23,1.55Z"/>
      <path class="cls-12" d="M370.78,213.26c6.36,0,113.41.7,120.14.49.48-.01.74-.73.26-.96-4.24-2.1-9.05-1.68-13.46-3.16-2.59-.87-4.19-2.57-5.99-4.51-1.55-1.68-3.36-2.97-5.57-3.64-1.96-.59-4.08-.66-6.06-.19-2.17.52-4.06,1.76-6.13,2.55-5.14,1.94-10.14.1-13.81-3.71-3.03-3.14-6.01-6.1-10.12-7.78-3.45-1.42-7.27-1.71-10.72-.15-3.93,1.78-6.62,5.36-10.31,7.51-4.37,2.56-9.6,1.95-14.43,2.72-4.84.77-8.54,4.84-12.77,7.18-1.45.8-2.93,1.47-4.62,1.43-.95-.02-1.88-.28-2.81-.4-1.46-.18-2.84-.14-3.82,1.08-.24.3-.19,1.55.23,1.55Z"/>
      <path class="cls-12" d="M93.92,30.05c4.64,0,82.8.51,87.72.36.35-.01.54-.53.19-.7-3.1-1.53-6.61-1.23-9.83-2.31-1.89-.64-3.06-1.88-4.37-3.3-1.13-1.23-2.45-2.17-4.07-2.66-1.43-.43-2.98-.48-4.43-.14-1.59.38-2.96,1.29-4.48,1.86-3.75,1.42-7.4.07-10.08-2.71-2.21-2.29-4.39-4.45-7.39-5.68-2.52-1.03-5.31-1.25-7.83-.11-2.87,1.3-4.83,3.91-7.53,5.48-3.19,1.87-7.01,1.42-10.54,1.99-3.54.56-6.23,3.53-9.32,5.24-1.06.58-2.14,1.07-3.37,1.04-.69-.02-1.37-.2-2.05-.29-1.06-.13-2.08-.1-2.79.79-.17.22-.14,1.13.17,1.13Z"/>
      <path class="cls-12" d="M310.59,56.56c4.64,0,82.8.51,87.72.36.35-.01.54-.53.19-.7-3.1-1.53-6.61-1.23-9.83-2.31-1.89-.64-3.06-1.88-4.37-3.3-1.13-1.23-2.45-2.17-4.07-2.66-1.43-.43-2.98-.48-4.43-.14-1.59.38-2.96,1.29-4.48,1.86-3.75,1.42-7.4.07-10.08-2.71-2.21-2.29-4.39-4.45-7.39-5.68-2.52-1.03-5.31-1.25-7.83-.11-2.87,1.3-4.83,3.91-7.53,5.48-3.19,1.87-7.01,1.42-10.54,1.99-3.54.56-6.23,3.53-9.32,5.24-1.06.58-2.14,1.07-3.37,1.04-.69-.02-1.37-.2-2.05-.29-1.06-.13-2.08-.1-2.79.79-.17.22-.14,1.13.17,1.13Z"/>
      <path class="cls-12" d="M585.09,84.93c4.64,0,82.8.51,87.72.36.35,0,.54-.53.19-.7-3.1-1.53-6.61-1.23-9.83-2.31-1.89-.64-3.06-1.88-4.37-3.3-1.13-1.23-2.45-2.17-4.07-2.66-1.43-.43-2.98-.48-4.43-.14-1.59.38-2.96,1.29-4.48,1.86-3.75,1.42-7.4.07-10.08-2.71-2.21-2.29-4.39-4.45-7.39-5.68-2.52-1.03-5.31-1.25-7.83-.11-2.87,1.3-4.83,3.91-7.53,5.48-3.19,1.87-7.01,1.42-10.54,1.99-3.54.56-6.23,3.53-9.32,5.24-1.06.58-2.14,1.07-3.37,1.04-.69-.02-1.37-.2-2.05-.29-1.06-.13-2.08-.1-2.79.79-.17.22-.14,1.13.17,1.13Z"/>
      <path class="cls-12" d="M251.29,98.05c.09.26,123.19,0,121.63,0-.71,0,1.07-1.06.38-1.4-4.01-1.99-8.39-2.04-12.75-2.45-2.55-.23-5.16-.6-7.45-1.81-2.32-1.22-3.77-3.32-5.41-5.27-5.09-6.04-13.18-9.19-21.02-7.96-8.75,1.37-15.65,8.04-24.42,9.26-5.27.74-10.25-1.3-15.4-2.02-4.24-.59-7.77.24-11.56,2.11-2.78,1.38-5.34,2.54-8.48,2.75-2.41.17-4.83-.11-7.25-.13-3.87-.04-7.68,1.64-10.66,4.26-.39.35-1.63,2.65,2.39,2.65Z"/>
    </g>
    <g>
      <g>
        <g>
          <rect class="cls-7" x="481.17" y="59.97" width="50.86" height="266.62"/>
          <g>
            <rect class="cls-12" x="489.06" y="68.63" width="9.89" height="10.18"/>
            <rect class="cls-12" x="501.71" y="68.63" width="9.89" height="10.18"/>
            <rect class="cls-12" x="489.06" y="85.91" width="9.89" height="10.18"/>
            <rect class="cls-12" x="501.71" y="85.91" width="9.89" height="10.18"/>
            <rect class="cls-12" x="489.06" y="103.2" width="9.89" height="10.18"/>
            <rect class="cls-12" x="501.71" y="103.2" width="9.89" height="10.18"/>
            <rect class="cls-12" x="489.06" y="120.48" width="9.89" height="10.18"/>
            <rect class="cls-12" x="501.71" y="120.48" width="9.89" height="10.18"/>
            <rect class="cls-12" x="489.06" y="137.77" width="9.89" height="10.18"/>
            <rect class="cls-12" x="501.71" y="137.77" width="9.89" height="10.18"/>
            <rect class="cls-12" x="489.06" y="155.05" width="9.89" height="10.18"/>
            <rect class="cls-12" x="501.71" y="155.05" width="9.89" height="10.18"/>
            <rect class="cls-12" x="489.06" y="172.34" width="9.89" height="10.18"/>
            <rect class="cls-12" x="501.71" y="172.34" width="9.89" height="10.18"/>
            <rect class="cls-12" x="489.06" y="189.62" width="9.89" height="10.18"/>
            <rect class="cls-12" x="501.71" y="189.62" width="9.89" height="10.18"/>
            <rect class="cls-12" x="489.06" y="206.9" width="9.89" height="10.18"/>
            <rect class="cls-12" x="501.71" y="206.9" width="9.89" height="10.18"/>
            <rect class="cls-12" x="489.06" y="224.19" width="9.89" height="10.18"/>
            <rect class="cls-12" x="501.71" y="224.19" width="9.89" height="10.18"/>
            <rect class="cls-12" x="489.06" y="241.47" width="9.89" height="10.18"/>
            <rect class="cls-12" x="501.71" y="241.47" width="9.89" height="10.18"/>
            <rect class="cls-12" x="489.06" y="258.76" width="9.89" height="10.18"/>
            <rect class="cls-12" x="501.71" y="258.76" width="9.89" height="10.18"/>
            <rect class="cls-12" x="489.06" y="276.04" width="9.89" height="10.18"/>
            <rect class="cls-12" x="501.71" y="276.04" width="9.89" height="10.18"/>
            <rect class="cls-12" x="489.06" y="293.32" width="9.89" height="10.18"/>
            <rect class="cls-12" x="514.25" y="293.32" width="9.89" height="10.18" transform="translate(1038.39 596.83) rotate(180)"/>
            <rect class="cls-12" x="514.25" y="276.04" width="9.89" height="10.18" transform="translate(1038.39 562.26) rotate(180)"/>
            <rect class="cls-12" x="514.25" y="258.76" width="9.89" height="10.18" transform="translate(1038.39 527.69) rotate(180)"/>
            <rect class="cls-12" x="514.25" y="241.47" width="9.89" height="10.18" transform="translate(1038.39 493.12) rotate(180)"/>
            <rect class="cls-12" x="514.25" y="224.19" width="9.89" height="10.18" transform="translate(1038.39 458.55) rotate(180)"/>
            <rect class="cls-12" x="514.25" y="206.9" width="9.89" height="10.18" transform="translate(1038.39 423.99) rotate(180)"/>
            <rect class="cls-12" x="514.25" y="189.62" width="9.89" height="10.18" transform="translate(1038.39 389.42) rotate(180)"/>
            <rect class="cls-12" x="514.25" y="172.34" width="9.89" height="10.18" transform="translate(1038.39 354.85) rotate(180)"/>
            <rect class="cls-12" x="514.25" y="155.05" width="9.89" height="10.18" transform="translate(1038.39 320.28) rotate(180)"/>
            <rect class="cls-12" x="514.25" y="137.77" width="9.89" height="10.18" transform="translate(1038.39 285.71) rotate(180)"/>
            <rect class="cls-12" x="514.25" y="120.48" width="9.89" height="10.18" transform="translate(1038.39 251.15) rotate(180)"/>
            <rect class="cls-12" x="514.25" y="103.2" width="9.89" height="10.18" transform="translate(1038.39 216.58) rotate(180)"/>
            <rect class="cls-12" x="514.25" y="85.91" width="9.89" height="10.18" transform="translate(1038.39 182.01) rotate(180)"/>
            <rect class="cls-12" x="514.25" y="68.63" width="9.89" height="10.18" transform="translate(1038.39 147.44) rotate(180)"/>
            <rect class="cls-12" x="501.71" y="293.32" width="9.89" height="10.18"/>
          </g>
        </g>
        <g>
          <rect class="cls-15" x="532.03" y="59.97" width="40.1" height="266.62"/>
          <g>
            <rect class="cls-17" x="559.83" y="293.32" width="8.16" height="10.18" transform="translate(1127.83 596.83) rotate(180)"/>
            <rect class="cls-17" x="549.39" y="293.32" width="8.16" height="10.18" transform="translate(1106.94 596.83) rotate(180)"/>
            <rect class="cls-17" x="559.83" y="276.04" width="8.16" height="10.18" transform="translate(1127.83 562.26) rotate(180)"/>
            <rect class="cls-17" x="549.39" y="276.04" width="8.16" height="10.18" transform="translate(1106.94 562.26) rotate(180)"/>
            <rect class="cls-17" x="559.83" y="258.76" width="8.16" height="10.18" transform="translate(1127.83 527.69) rotate(180)"/>
            <rect class="cls-17" x="549.39" y="258.76" width="8.16" height="10.18" transform="translate(1106.94 527.69) rotate(180)"/>
            <rect class="cls-17" x="559.83" y="241.47" width="8.16" height="10.18" transform="translate(1127.83 493.12) rotate(180)"/>
            <rect class="cls-17" x="549.39" y="241.47" width="8.16" height="10.18" transform="translate(1106.94 493.12) rotate(180)"/>
            <rect class="cls-17" x="559.83" y="224.19" width="8.16" height="10.18" transform="translate(1127.83 458.55) rotate(180)"/>
            <rect class="cls-17" x="549.39" y="224.19" width="8.16" height="10.18" transform="translate(1106.94 458.55) rotate(180)"/>
            <rect class="cls-17" x="559.83" y="206.9" width="8.16" height="10.18" transform="translate(1127.83 423.99) rotate(180)"/>
            <rect class="cls-17" x="549.39" y="206.9" width="8.16" height="10.18" transform="translate(1106.94 423.99) rotate(180)"/>
            <rect class="cls-17" x="559.83" y="189.62" width="8.16" height="10.18" transform="translate(1127.83 389.42) rotate(180)"/>
            <rect class="cls-17" x="549.39" y="189.62" width="8.16" height="10.18" transform="translate(1106.94 389.42) rotate(180)"/>
            <rect class="cls-17" x="559.83" y="172.34" width="8.16" height="10.18" transform="translate(1127.83 354.85) rotate(180)"/>
            <rect class="cls-17" x="549.39" y="172.34" width="8.16" height="10.18" transform="translate(1106.94 354.85) rotate(180)"/>
            <rect class="cls-17" x="559.83" y="155.05" width="8.16" height="10.18" transform="translate(1127.83 320.28) rotate(180)"/>
            <rect class="cls-17" x="549.39" y="155.05" width="8.16" height="10.18" transform="translate(1106.94 320.28) rotate(180)"/>
            <rect class="cls-17" x="559.83" y="137.77" width="8.16" height="10.18" transform="translate(1127.83 285.71) rotate(180)"/>
            <rect class="cls-17" x="549.39" y="137.77" width="8.16" height="10.18" transform="translate(1106.94 285.71) rotate(180)"/>
            <rect class="cls-17" x="559.83" y="120.48" width="8.16" height="10.18" transform="translate(1127.83 251.15) rotate(180)"/>
            <rect class="cls-17" x="549.39" y="120.48" width="8.16" height="10.18" transform="translate(1106.94 251.15) rotate(180)"/>
            <rect class="cls-17" x="559.83" y="103.2" width="8.16" height="10.18" transform="translate(1127.83 216.58) rotate(180)"/>
            <rect class="cls-17" x="549.39" y="103.2" width="8.16" height="10.18" transform="translate(1106.94 216.58) rotate(180)"/>
            <rect class="cls-17" x="559.83" y="85.91" width="8.16" height="10.18" transform="translate(1127.83 182.01) rotate(180)"/>
            <rect class="cls-17" x="549.39" y="85.91" width="8.16" height="10.18" transform="translate(1106.94 182.01) rotate(180)"/>
            <rect class="cls-17" x="559.83" y="68.63" width="8.16" height="10.18" transform="translate(1127.83 147.44) rotate(180)"/>
            <rect class="cls-17" x="539.03" y="68.63" width="8.16" height="10.18"/>
            <rect class="cls-17" x="539.03" y="85.91" width="8.16" height="10.18"/>
            <rect class="cls-17" x="539.03" y="103.2" width="8.16" height="10.18"/>
            <rect class="cls-17" x="539.03" y="120.48" width="8.16" height="10.18"/>
            <rect class="cls-17" x="539.03" y="137.77" width="8.16" height="10.18"/>
            <rect class="cls-17" x="539.03" y="155.05" width="8.16" height="10.18"/>
            <rect class="cls-17" x="539.03" y="172.34" width="8.16" height="10.18"/>
            <rect class="cls-17" x="539.03" y="189.62" width="8.16" height="10.18"/>
            <rect class="cls-17" x="539.03" y="206.9" width="8.16" height="10.18"/>
            <rect class="cls-17" x="539.03" y="224.19" width="8.16" height="10.18"/>
            <rect class="cls-17" x="539.03" y="241.47" width="8.16" height="10.18"/>
            <rect class="cls-17" x="539.03" y="258.76" width="8.16" height="10.18"/>
            <rect class="cls-17" x="539.03" y="276.04" width="8.16" height="10.18"/>
            <rect class="cls-17" x="539.03" y="293.32" width="8.16" height="10.18"/>
            <rect class="cls-17" x="549.39" y="68.63" width="8.16" height="10.18" transform="translate(1106.94 147.44) rotate(180)"/>
          </g>
        </g>
      </g>
      <g>
        <g>
          <rect class="cls-12" x="114.94" y="71.33" width="61.23" height="255.26"/>
          <rect class="cls-17" x="113.46" y="66.24" width="62.7" height="5.08"/>
          <g>
            <rect class="cls-19" x="120.47" y="78.82" width="6.2" height="247.77"/>
            <rect class="cls-19" x="131.46" y="78.82" width="6.2" height="247.77"/>
            <rect class="cls-19" x="142.45" y="78.82" width="6.2" height="247.77"/>
            <rect class="cls-19" x="153.44" y="78.82" width="6.2" height="247.77"/>
            <rect class="cls-19" x="164.42" y="78.82" width="6.2" height="247.77"/>
            <g>
              <rect class="cls-12" x="120.47" y="85.24" width="6.2" height="10.03"/>
              <rect class="cls-12" x="131.46" y="85.24" width="6.2" height="10.03"/>
              <rect class="cls-12" x="142.45" y="85.24" width="6.2" height="10.03"/>
              <rect class="cls-12" x="153.44" y="85.24" width="6.2" height="10.03"/>
              <rect class="cls-12" x="164.42" y="85.24" width="6.2" height="10.03"/>
            </g>
            <g>
              <rect class="cls-12" x="120.47" y="101.55" width="6.2" height="10.03"/>
              <rect class="cls-12" x="131.46" y="101.55" width="6.2" height="10.03"/>
              <rect class="cls-12" x="142.45" y="101.55" width="6.2" height="10.03"/>
              <rect class="cls-12" x="153.44" y="101.55" width="6.2" height="10.03"/>
              <rect class="cls-12" x="164.42" y="101.55" width="6.2" height="10.03"/>
            </g>
            <g>
              <rect class="cls-12" x="120.47" y="117.86" width="6.2" height="10.03"/>
              <rect class="cls-12" x="131.46" y="117.86" width="6.2" height="10.03"/>
              <rect class="cls-12" x="142.45" y="117.86" width="6.2" height="10.03"/>
              <rect class="cls-12" x="153.44" y="117.86" width="6.2" height="10.03"/>
              <rect class="cls-12" x="164.42" y="117.86" width="6.2" height="10.03"/>
            </g>
            <g>
              <rect class="cls-12" x="120.47" y="134.17" width="6.2" height="10.03"/>
              <rect class="cls-12" x="131.46" y="134.17" width="6.2" height="10.03"/>
              <rect class="cls-12" x="142.45" y="134.17" width="6.2" height="10.03"/>
              <rect class="cls-12" x="153.44" y="134.17" width="6.2" height="10.03"/>
              <rect class="cls-12" x="164.42" y="134.17" width="6.2" height="10.03"/>
            </g>
            <g>
              <rect class="cls-12" x="120.47" y="150.47" width="6.2" height="10.03"/>
              <rect class="cls-12" x="131.46" y="150.47" width="6.2" height="10.03"/>
              <rect class="cls-12" x="142.45" y="150.47" width="6.2" height="10.03"/>
              <rect class="cls-12" x="153.44" y="150.47" width="6.2" height="10.03"/>
              <rect class="cls-12" x="164.42" y="150.47" width="6.2" height="10.03"/>
            </g>
            <g>
              <rect class="cls-12" x="120.47" y="166.78" width="6.2" height="10.03"/>
              <rect class="cls-12" x="131.46" y="166.78" width="6.2" height="10.03"/>
              <rect class="cls-12" x="142.45" y="166.78" width="6.2" height="10.03"/>
              <rect class="cls-12" x="153.44" y="166.78" width="6.2" height="10.03"/>
              <rect class="cls-12" x="164.42" y="166.78" width="6.2" height="10.03"/>
            </g>
            <g>
              <rect class="cls-12" x="120.47" y="183.09" width="6.2" height="10.03"/>
              <rect class="cls-12" x="131.46" y="183.09" width="6.2" height="10.03"/>
              <rect class="cls-12" x="142.45" y="183.09" width="6.2" height="10.03"/>
              <rect class="cls-12" x="153.44" y="183.09" width="6.2" height="10.03"/>
              <rect class="cls-12" x="164.42" y="183.09" width="6.2" height="10.03"/>
            </g>
            <g>
              <rect class="cls-12" x="120.47" y="199.4" width="6.2" height="10.03"/>
              <rect class="cls-12" x="131.46" y="199.4" width="6.2" height="10.03"/>
              <rect class="cls-12" x="142.45" y="199.4" width="6.2" height="10.03"/>
              <rect class="cls-12" x="153.44" y="199.4" width="6.2" height="10.03"/>
              <rect class="cls-12" x="164.42" y="199.4" width="6.2" height="10.03"/>
            </g>
            <g>
              <rect class="cls-12" x="120.47" y="215.7" width="6.2" height="10.03"/>
              <rect class="cls-12" x="131.46" y="215.7" width="6.2" height="10.03"/>
              <rect class="cls-12" x="142.45" y="215.7" width="6.2" height="10.03"/>
              <rect class="cls-12" x="153.44" y="215.7" width="6.2" height="10.03"/>
              <rect class="cls-12" x="164.42" y="215.7" width="6.2" height="10.03"/>
            </g>
            <g>
              <rect class="cls-12" x="120.47" y="232.01" width="6.2" height="10.03"/>
              <rect class="cls-12" x="131.46" y="232.01" width="6.2" height="10.03"/>
              <rect class="cls-12" x="142.45" y="232.01" width="6.2" height="10.03"/>
              <rect class="cls-12" x="153.44" y="232.01" width="6.2" height="10.03"/>
              <rect class="cls-12" x="164.42" y="232.01" width="6.2" height="10.03"/>
            </g>
            <g>
              <rect class="cls-12" x="120.47" y="248.32" width="6.2" height="10.03"/>
              <rect class="cls-12" x="131.46" y="248.32" width="6.2" height="10.03"/>
              <rect class="cls-12" x="142.45" y="248.32" width="6.2" height="10.03"/>
              <rect class="cls-12" x="153.44" y="248.32" width="6.2" height="10.03"/>
              <rect class="cls-12" x="164.42" y="248.32" width="6.2" height="10.03"/>
            </g>
            <g>
              <rect class="cls-12" x="120.47" y="264.63" width="6.2" height="10.03"/>
              <rect class="cls-12" x="131.46" y="264.63" width="6.2" height="10.03"/>
              <rect class="cls-12" x="142.45" y="264.63" width="6.2" height="10.03"/>
              <rect class="cls-12" x="153.44" y="264.63" width="6.2" height="10.03"/>
              <rect class="cls-12" x="164.42" y="264.63" width="6.2" height="10.03"/>
            </g>
            <g>
              <rect class="cls-12" x="120.47" y="280.93" width="6.2" height="10.03"/>
              <rect class="cls-12" x="131.46" y="280.93" width="6.2" height="10.03"/>
              <rect class="cls-12" x="142.45" y="280.93" width="6.2" height="10.03"/>
              <rect class="cls-12" x="153.44" y="280.93" width="6.2" height="10.03"/>
              <rect class="cls-12" x="164.42" y="280.93" width="6.2" height="10.03"/>
            </g>
            <g>
              <rect class="cls-12" x="120.47" y="297.24" width="6.2" height="29.35"/>
              <rect class="cls-12" x="131.46" y="297.24" width="6.2" height="29.35"/>
              <rect class="cls-12" x="142.45" y="297.24" width="6.2" height="29.35"/>
              <rect class="cls-12" x="153.44" y="297.24" width="6.2" height="29.35"/>
              <rect class="cls-12" x="164.42" y="297.24" width="6.2" height="29.35"/>
            </g>
          </g>
        </g>
        <g>
          <rect class="cls-7" x="176.16" y="71.33" width="39.31" height="255.26"/>
          <rect class="cls-17" x="176.16" y="66.24" width="41.01" height="5.08"/>
          <g>
            <rect class="cls-17" x="181.7" y="78.82" width="6.2" height="247.77"/>
            <rect class="cls-17" x="192.69" y="78.82" width="6.2" height="247.77"/>
            <rect class="cls-17" x="203.68" y="78.82" width="6.2" height="247.77"/>
            <g>
              <rect class="cls-7" x="181.7" y="85.24" width="6.2" height="10.03"/>
              <rect class="cls-7" x="192.69" y="85.24" width="6.2" height="10.03"/>
              <rect class="cls-7" x="203.68" y="85.24" width="6.2" height="10.03"/>
            </g>
            <g>
              <rect class="cls-7" x="181.7" y="101.55" width="6.2" height="10.03"/>
              <rect class="cls-7" x="192.69" y="101.55" width="6.2" height="10.03"/>
              <rect class="cls-7" x="203.68" y="101.55" width="6.2" height="10.03"/>
            </g>
            <g>
              <rect class="cls-7" x="181.7" y="117.86" width="6.2" height="10.03"/>
              <rect class="cls-7" x="192.69" y="117.86" width="6.2" height="10.03"/>
              <rect class="cls-7" x="203.68" y="117.86" width="6.2" height="10.03"/>
            </g>
            <g>
              <rect class="cls-7" x="181.7" y="134.17" width="6.2" height="10.03"/>
              <rect class="cls-7" x="192.69" y="134.17" width="6.2" height="10.03"/>
              <rect class="cls-7" x="203.68" y="134.17" width="6.2" height="10.03"/>
            </g>
            <g>
              <rect class="cls-7" x="181.7" y="150.47" width="6.2" height="10.03"/>
              <rect class="cls-7" x="192.69" y="150.47" width="6.2" height="10.03"/>
              <rect class="cls-7" x="203.68" y="150.47" width="6.2" height="10.03"/>
            </g>
            <g>
              <rect class="cls-7" x="181.7" y="166.78" width="6.2" height="10.03"/>
              <rect class="cls-7" x="192.69" y="166.78" width="6.2" height="10.03"/>
              <rect class="cls-7" x="203.68" y="166.78" width="6.2" height="10.03"/>
            </g>
            <g>
              <rect class="cls-7" x="181.7" y="183.09" width="6.2" height="10.03"/>
              <rect class="cls-7" x="192.69" y="183.09" width="6.2" height="10.03"/>
              <rect class="cls-7" x="203.68" y="183.09" width="6.2" height="10.03"/>
            </g>
            <g>
              <rect class="cls-7" x="181.7" y="199.4" width="6.2" height="10.03"/>
              <rect class="cls-7" x="192.69" y="199.4" width="6.2" height="10.03"/>
              <rect class="cls-7" x="203.68" y="199.4" width="6.2" height="10.03"/>
            </g>
            <g>
              <rect class="cls-7" x="181.7" y="215.7" width="6.2" height="10.03"/>
              <rect class="cls-7" x="192.69" y="215.7" width="6.2" height="10.03"/>
              <rect class="cls-7" x="203.68" y="215.7" width="6.2" height="10.03"/>
            </g>
            <g>
              <rect class="cls-7" x="181.7" y="232.01" width="6.2" height="10.03"/>
              <rect class="cls-7" x="192.69" y="232.01" width="6.2" height="10.03"/>
              <rect class="cls-7" x="203.68" y="232.01" width="6.2" height="10.03"/>
            </g>
            <g>
              <rect class="cls-7" x="181.7" y="248.32" width="6.2" height="10.03"/>
              <rect class="cls-7" x="192.69" y="248.32" width="6.2" height="10.03"/>
              <rect class="cls-7" x="203.68" y="248.32" width="6.2" height="10.03"/>
            </g>
            <g>
              <rect class="cls-7" x="181.7" y="264.63" width="6.2" height="10.03"/>
              <rect class="cls-7" x="192.69" y="264.63" width="6.2" height="10.03"/>
              <rect class="cls-7" x="203.68" y="264.63" width="6.2" height="10.03"/>
            </g>
            <g>
              <rect class="cls-7" x="181.7" y="280.93" width="6.2" height="10.03"/>
              <rect class="cls-7" x="192.69" y="280.93" width="6.2" height="10.03"/>
              <rect class="cls-7" x="203.68" y="280.93" width="6.2" height="10.03"/>
            </g>
            <g>
              <rect class="cls-7" x="181.7" y="297.24" width="6.2" height="29.35"/>
              <rect class="cls-7" x="192.69" y="297.24" width="6.2" height="29.35"/>
              <rect class="cls-7" x="203.68" y="297.24" width="6.2" height="29.35"/>
            </g>
          </g>
        </g>
      </g>
      <g>
        <g>
          <rect class="cls-12" x="229.18" y="161.67" width="50.32" height="164.59"/>
          <rect class="cls-17" x="236.34" y="150.75" width="43.16" height="10.92"/>
          <g>
            <rect class="cls-7" x="234.7" y="167.36" width="39.29" height="123.04"/>
            <g>
              <rect class="cls-19" x="234.7" y="179.11" width="39.29" height="2.91"/>
              <rect class="cls-19" x="234.7" y="191.15" width="39.29" height="2.91"/>
              <rect class="cls-19" x="234.7" y="203.19" width="39.29" height="2.91"/>
              <rect class="cls-19" x="234.7" y="215.24" width="39.29" height="2.91"/>
              <rect class="cls-19" x="234.7" y="227.28" width="39.29" height="2.91"/>
              <rect class="cls-19" x="234.7" y="239.32" width="39.29" height="2.91"/>
              <rect class="cls-19" x="234.7" y="251.37" width="39.29" height="2.91"/>
              <rect class="cls-19" x="234.7" y="263.41" width="39.29" height="2.91"/>
              <rect class="cls-19" x="234.7" y="275.45" width="39.29" height="2.91"/>
              <rect class="cls-19" x="234.7" y="287.5" width="39.29" height="2.91"/>
            </g>
          </g>
        </g>
        <g>
          <rect class="cls-7" x="279.5" y="161.67" width="31.52" height="164.59"/>
          <rect class="cls-15" x="279.5" y="150.75" width="26.79" height="10.92"/>
          <g>
            <rect class="cls-17" x="283.85" y="167.36" width="24.23" height="123.04"/>
            <g>
              <rect class="cls-19" x="283.85" y="179.11" width="24.23" height="2.91"/>
              <rect class="cls-19" x="283.85" y="191.15" width="24.23" height="2.91"/>
              <rect class="cls-19" x="283.85" y="203.19" width="24.23" height="2.91"/>
              <rect class="cls-19" x="283.85" y="215.24" width="24.23" height="2.91"/>
              <rect class="cls-19" x="283.85" y="227.28" width="24.23" height="2.91"/>
              <rect class="cls-19" x="283.85" y="239.32" width="24.23" height="2.91"/>
              <rect class="cls-19" x="283.85" y="251.37" width="24.23" height="2.91"/>
              <rect class="cls-19" x="283.85" y="263.41" width="24.23" height="2.91"/>
              <rect class="cls-19" x="283.85" y="275.45" width="24.23" height="2.91"/>
              <rect class="cls-19" x="283.85" y="287.5" width="24.23" height="2.91"/>
            </g>
          </g>
        </g>
      </g>
      <g>
        <rect class="cls-7" x="628.39" y="138.97" width="26.88" height="31.75"/>
        <rect class="cls-17" x="655.27" y="138.97" width="17.04" height="32.91"/>
        <rect class="cls-7" x="656.53" y="152.98" width="16.91" height="18.89"/>
        <rect class="cls-17" x="673.44" y="152.98" width="10.55" height="18.89"/>
        <g>
          <rect class="cls-12" x="618.08" y="168.65" width="43.46" height="157.94"/>
          <g>
            <rect class="cls-19" x="623.05" y="175.44" width="13.67" height="5.58"/>
            <rect class="cls-19" x="640.53" y="175.44" width="13.67" height="5.58"/>
            <rect class="cls-19" x="623.05" y="184.92" width="13.67" height="5.58"/>
            <rect class="cls-19" x="640.53" y="184.92" width="13.67" height="5.58"/>
            <rect class="cls-19" x="623.05" y="194.4" width="13.67" height="5.58"/>
            <rect class="cls-19" x="640.53" y="194.4" width="13.67" height="5.58"/>
            <rect class="cls-19" x="623.05" y="203.88" width="13.67" height="5.58"/>
            <rect class="cls-19" x="640.53" y="203.88" width="13.67" height="5.58"/>
            <rect class="cls-19" x="623.05" y="213.36" width="13.67" height="5.58"/>
            <rect class="cls-19" x="640.53" y="213.36" width="13.67" height="5.58"/>
            <rect class="cls-19" x="623.05" y="222.84" width="13.67" height="5.58"/>
            <rect class="cls-19" x="640.53" y="222.84" width="13.67" height="5.58"/>
            <rect class="cls-19" x="623.05" y="232.32" width="13.67" height="5.58"/>
            <rect class="cls-19" x="640.53" y="232.32" width="13.67" height="5.58"/>
            <rect class="cls-19" x="623.05" y="241.8" width="13.67" height="5.58"/>
            <rect class="cls-19" x="640.53" y="241.8" width="13.67" height="5.58"/>
            <rect class="cls-19" x="623.05" y="251.28" width="13.67" height="5.58"/>
            <rect class="cls-19" x="640.53" y="251.28" width="13.67" height="5.58"/>
            <rect class="cls-19" x="623.05" y="260.76" width="13.67" height="5.58"/>
            <rect class="cls-19" x="640.53" y="260.76" width="13.67" height="5.58"/>
            <rect class="cls-19" x="623.05" y="270.24" width="13.67" height="5.58"/>
            <rect class="cls-19" x="640.53" y="270.24" width="13.67" height="5.58"/>
            <rect class="cls-19" x="623.05" y="279.72" width="13.67" height="5.58"/>
            <rect class="cls-19" x="640.53" y="279.72" width="13.67" height="5.58"/>
            <rect class="cls-19" x="623.05" y="289.2" width="13.67" height="5.58"/>
            <rect class="cls-19" x="640.53" y="289.2" width="13.67" height="5.58"/>
            <rect class="cls-19" x="623.05" y="298.68" width="13.67" height="5.58"/>
            <rect class="cls-19" x="640.53" y="298.68" width="13.67" height="5.58"/>
          </g>
        </g>
        <g>
          <rect class="cls-17" x="661.54" y="168.65" width="35.21" height="157.94"/>
          <g>
            <rect class="cls-12" x="682" y="298.68" width="11.22" height="5.58" transform="translate(1375.23 602.94) rotate(180)"/>
            <rect class="cls-12" x="667.65" y="298.68" width="11.22" height="5.58" transform="translate(1346.52 602.94) rotate(180)"/>
            <rect class="cls-12" x="682" y="289.2" width="11.22" height="5.58" transform="translate(1375.23 583.98) rotate(180)"/>
            <rect class="cls-12" x="667.65" y="289.2" width="11.22" height="5.58" transform="translate(1346.52 583.98) rotate(180)"/>
            <rect class="cls-12" x="682" y="279.72" width="11.22" height="5.58" transform="translate(1375.23 565.02) rotate(180)"/>
            <rect class="cls-12" x="667.65" y="279.72" width="11.22" height="5.58" transform="translate(1346.52 565.02) rotate(180)"/>
            <rect class="cls-12" x="682" y="270.24" width="11.22" height="5.58" transform="translate(1375.23 546.06) rotate(180)"/>
            <rect class="cls-12" x="667.65" y="270.24" width="11.22" height="5.58" transform="translate(1346.52 546.06) rotate(180)"/>
            <rect class="cls-12" x="682" y="260.76" width="11.22" height="5.58" transform="translate(1375.23 527.1) rotate(180)"/>
            <rect class="cls-12" x="667.65" y="260.76" width="11.22" height="5.58" transform="translate(1346.52 527.1) rotate(180)"/>
            <rect class="cls-12" x="682" y="251.28" width="11.22" height="5.58" transform="translate(1375.23 508.14) rotate(180)"/>
            <rect class="cls-12" x="667.65" y="251.28" width="11.22" height="5.58" transform="translate(1346.52 508.14) rotate(180)"/>
            <rect class="cls-12" x="682" y="241.8" width="11.22" height="5.58" transform="translate(1375.23 489.18) rotate(180)"/>
            <rect class="cls-12" x="667.65" y="241.8" width="11.22" height="5.58" transform="translate(1346.52 489.18) rotate(180)"/>
            <rect class="cls-12" x="682" y="232.32" width="11.22" height="5.58" transform="translate(1375.23 470.22) rotate(180)"/>
            <rect class="cls-12" x="667.65" y="232.32" width="11.22" height="5.58" transform="translate(1346.52 470.22) rotate(180)"/>
            <rect class="cls-12" x="682" y="222.84" width="11.22" height="5.58" transform="translate(1375.23 451.26) rotate(180)"/>
            <rect class="cls-12" x="667.65" y="222.84" width="11.22" height="5.58" transform="translate(1346.52 451.26) rotate(180)"/>
            <rect class="cls-12" x="682" y="213.36" width="11.22" height="5.58" transform="translate(1375.23 432.3) rotate(180)"/>
            <rect class="cls-12" x="667.65" y="213.36" width="11.22" height="5.58" transform="translate(1346.52 432.3) rotate(180)"/>
            <rect class="cls-12" x="682" y="203.88" width="11.22" height="5.58" transform="translate(1375.23 413.34) rotate(180)"/>
            <rect class="cls-12" x="667.65" y="203.88" width="11.22" height="5.58" transform="translate(1346.52 413.34) rotate(180)"/>
            <rect class="cls-12" x="682" y="194.4" width="11.22" height="5.58" transform="translate(1375.23 394.38) rotate(180)"/>
            <rect class="cls-12" x="667.65" y="194.4" width="11.22" height="5.58" transform="translate(1346.52 394.38) rotate(180)"/>
            <rect class="cls-12" x="682" y="184.92" width="11.22" height="5.58" transform="translate(1375.23 375.42) rotate(180)"/>
            <rect class="cls-12" x="667.65" y="184.92" width="11.22" height="5.58" transform="translate(1346.52 375.42) rotate(180)"/>
            <rect class="cls-12" x="682" y="175.44" width="11.22" height="5.58" transform="translate(1375.23 356.46) rotate(180)"/>
            <rect class="cls-12" x="667.65" y="175.44" width="11.22" height="5.58" transform="translate(1346.52 356.46) rotate(180)"/>
          </g>
        </g>
      </g>
    </g>
    <g>
      <g>
        <g>
          <rect class="cls-3" x="186.09" y="107.58" width="43.3" height="219.01"/>
          <rect class="cls-3" x="186.09" y="119.85" width="43.3" height="2.3"/>
          <g>
            <rect class="cls-10" x="190.55" y="128.92" width="7.97" height="12.8"/>
            <rect class="cls-10" x="190.55" y="145.07" width="7.97" height="12.8"/>
            <rect class="cls-10" x="190.55" y="161.23" width="7.97" height="12.8"/>
            <rect class="cls-10" x="190.55" y="177.38" width="7.97" height="12.8"/>
            <rect class="cls-10" x="190.55" y="193.53" width="7.97" height="12.8"/>
            <rect class="cls-10" x="190.55" y="209.69" width="7.97" height="12.8"/>
            <rect class="cls-10" x="190.55" y="225.84" width="7.97" height="12.8"/>
            <rect class="cls-10" x="190.55" y="242" width="7.97" height="12.8"/>
            <rect class="cls-10" x="190.55" y="258.15" width="7.97" height="12.8"/>
            <rect class="cls-10" x="190.55" y="274.3" width="7.97" height="12.8"/>
            <rect class="cls-10" x="190.55" y="290.46" width="7.97" height="12.8"/>
            <rect class="cls-10" x="190.55" y="306.61" width="7.97" height="12.8"/>
            <rect class="cls-10" x="190.55" y="128.92" width="7.97" height="12.8"/>
            <rect class="cls-10" x="190.55" y="145.07" width="7.97" height="12.8"/>
            <rect class="cls-10" x="190.55" y="161.23" width="7.97" height="12.8"/>
            <rect class="cls-10" x="190.55" y="177.38" width="7.97" height="12.8"/>
            <rect class="cls-10" x="190.55" y="193.53" width="7.97" height="12.8"/>
            <rect class="cls-10" x="190.55" y="209.69" width="7.97" height="12.8"/>
            <rect class="cls-10" x="190.55" y="225.84" width="7.97" height="12.8"/>
            <rect class="cls-10" x="190.55" y="242" width="7.97" height="12.8"/>
            <rect class="cls-10" x="190.55" y="258.15" width="7.97" height="12.8"/>
            <rect class="cls-10" x="190.55" y="274.3" width="7.97" height="12.8"/>
            <rect class="cls-10" x="190.55" y="290.46" width="7.97" height="12.8"/>
            <rect class="cls-10" x="190.55" y="306.61" width="7.97" height="12.8"/>
            <rect class="cls-10" x="203.75" y="128.92" width="7.97" height="12.8"/>
            <rect class="cls-10" x="203.75" y="145.07" width="7.97" height="12.8"/>
            <rect class="cls-10" x="203.75" y="161.23" width="7.97" height="12.8"/>
            <rect class="cls-10" x="203.75" y="177.38" width="7.97" height="12.8"/>
            <rect class="cls-10" x="203.75" y="193.53" width="7.97" height="12.8"/>
            <rect class="cls-10" x="203.75" y="209.69" width="7.97" height="12.8"/>
            <rect class="cls-10" x="203.75" y="225.84" width="7.97" height="12.8"/>
            <rect class="cls-10" x="203.75" y="242" width="7.97" height="12.8"/>
            <rect class="cls-10" x="203.75" y="258.15" width="7.97" height="12.8"/>
            <rect class="cls-10" x="203.75" y="274.3" width="7.97" height="12.8"/>
            <rect class="cls-10" x="203.75" y="290.46" width="7.97" height="12.8"/>
            <rect class="cls-10" x="203.75" y="306.61" width="7.97" height="12.8"/>
            <rect class="cls-10" x="203.75" y="128.92" width="7.97" height="12.8"/>
            <rect class="cls-10" x="203.75" y="145.07" width="7.97" height="12.8"/>
            <rect class="cls-10" x="203.75" y="161.23" width="7.97" height="12.8"/>
            <rect class="cls-10" x="203.75" y="177.38" width="7.97" height="12.8"/>
            <rect class="cls-10" x="203.75" y="193.53" width="7.97" height="12.8"/>
            <rect class="cls-10" x="203.75" y="209.69" width="7.97" height="12.8"/>
            <rect class="cls-10" x="203.75" y="225.84" width="7.97" height="12.8"/>
            <rect class="cls-10" x="203.75" y="242" width="7.97" height="12.8"/>
            <rect class="cls-10" x="203.75" y="258.15" width="7.97" height="12.8"/>
            <rect class="cls-10" x="203.75" y="274.3" width="7.97" height="12.8"/>
            <rect class="cls-10" x="203.75" y="290.46" width="7.97" height="12.8"/>
            <rect class="cls-10" x="203.75" y="306.61" width="7.97" height="12.8"/>
            <rect class="cls-10" x="216.96" y="128.92" width="7.97" height="12.8"/>
            <rect class="cls-10" x="216.96" y="145.07" width="7.97" height="12.8"/>
            <rect class="cls-10" x="216.96" y="161.23" width="7.97" height="12.8"/>
            <rect class="cls-10" x="216.96" y="177.38" width="7.97" height="12.8"/>
            <rect class="cls-10" x="216.96" y="193.53" width="7.97" height="12.8"/>
            <rect class="cls-10" x="216.96" y="209.69" width="7.97" height="12.8"/>
            <rect class="cls-10" x="216.96" y="225.84" width="7.97" height="12.8"/>
            <rect class="cls-10" x="216.96" y="242" width="7.97" height="12.8"/>
            <rect class="cls-10" x="216.96" y="258.15" width="7.97" height="12.8"/>
            <rect class="cls-10" x="216.96" y="274.3" width="7.97" height="12.8"/>
            <rect class="cls-10" x="216.96" y="290.46" width="7.97" height="12.8"/>
            <rect class="cls-10" x="216.96" y="306.61" width="7.97" height="12.8"/>
            <rect class="cls-10" x="216.96" y="128.92" width="7.97" height="12.8"/>
            <rect class="cls-10" x="216.96" y="145.07" width="7.97" height="12.8"/>
            <rect class="cls-10" x="216.96" y="161.23" width="7.97" height="12.8"/>
            <rect class="cls-10" x="216.96" y="177.38" width="7.97" height="12.8"/>
            <rect class="cls-10" x="216.96" y="193.53" width="7.97" height="12.8"/>
            <rect class="cls-10" x="216.96" y="209.69" width="7.97" height="12.8"/>
            <rect class="cls-10" x="216.96" y="225.84" width="7.97" height="12.8"/>
            <rect class="cls-10" x="216.96" y="242" width="7.97" height="12.8"/>
            <rect class="cls-10" x="216.96" y="258.15" width="7.97" height="12.8"/>
            <rect class="cls-10" x="216.96" y="274.3" width="7.97" height="12.8"/>
            <rect class="cls-10" x="216.96" y="290.46" width="7.97" height="12.8"/>
            <rect class="cls-10" x="216.96" y="306.61" width="7.97" height="12.8"/>
          </g>
        </g>
        <g>
          <rect class="cls-3" x="112.07" y="107.58" width="74.02" height="219.01"/>
          <rect class="cls-3" x="112.07" y="119.85" width="74.02" height="2.3"/>
          <rect class="cls-3" x="138.46" y="95.28" width="47.63" height="12.3"/>
          <rect class="cls-10" x="186.09" y="95.28" width="22.38" height="12.3" transform="translate(394.56 202.86) rotate(180)"/>
          <g>
            <rect class="cls-10" x="120" y="128.92" width="12.94" height="12.8"/>
            <rect class="cls-10" x="120" y="145.07" width="12.94" height="12.8"/>
            <rect class="cls-10" x="120" y="161.23" width="12.94" height="12.8"/>
            <rect class="cls-10" x="120" y="177.38" width="12.94" height="12.8"/>
            <rect class="cls-10" x="120" y="193.53" width="12.94" height="12.8"/>
            <rect class="cls-10" x="120" y="209.69" width="12.94" height="12.8"/>
            <rect class="cls-10" x="120" y="225.84" width="12.94" height="12.8"/>
            <rect class="cls-10" x="120" y="242" width="12.94" height="12.8"/>
            <rect class="cls-10" x="120" y="258.15" width="12.94" height="12.8"/>
            <rect class="cls-10" x="120" y="274.3" width="12.94" height="12.8"/>
            <rect class="cls-10" x="120" y="290.46" width="12.94" height="12.8"/>
            <rect class="cls-10" x="120" y="306.61" width="12.94" height="12.8"/>
            <rect class="cls-10" x="120" y="128.92" width="12.94" height="12.8"/>
            <rect class="cls-10" x="120" y="145.07" width="12.94" height="12.8"/>
            <rect class="cls-10" x="120" y="161.23" width="12.94" height="12.8"/>
            <rect class="cls-10" x="120" y="177.38" width="12.94" height="12.8"/>
            <rect class="cls-10" x="120" y="193.53" width="12.94" height="12.8"/>
            <rect class="cls-10" x="120" y="209.69" width="12.94" height="12.8"/>
            <rect class="cls-10" x="120" y="225.84" width="12.94" height="12.8"/>
            <rect class="cls-10" x="120" y="242" width="12.94" height="12.8"/>
            <rect class="cls-10" x="120" y="258.15" width="12.94" height="12.8"/>
            <rect class="cls-10" x="120" y="274.3" width="12.94" height="12.8"/>
            <rect class="cls-10" x="120" y="290.46" width="12.94" height="12.8"/>
            <rect class="cls-10" x="120" y="306.61" width="12.94" height="12.8"/>
            <rect class="cls-10" x="141.44" y="128.92" width="12.94" height="12.8"/>
            <rect class="cls-10" x="141.44" y="145.07" width="12.94" height="12.8"/>
            <rect class="cls-10" x="141.44" y="161.23" width="12.94" height="12.8"/>
            <rect class="cls-10" x="141.44" y="177.38" width="12.94" height="12.8"/>
            <rect class="cls-10" x="141.44" y="193.53" width="12.94" height="12.8"/>
            <rect class="cls-10" x="141.44" y="209.69" width="12.94" height="12.8"/>
            <rect class="cls-10" x="141.44" y="225.84" width="12.94" height="12.8"/>
            <rect class="cls-10" x="141.44" y="242" width="12.94" height="12.8"/>
            <rect class="cls-10" x="141.44" y="258.15" width="12.94" height="12.8"/>
            <rect class="cls-10" x="141.44" y="274.3" width="12.94" height="12.8"/>
            <rect class="cls-10" x="141.44" y="290.46" width="12.94" height="12.8"/>
            <rect class="cls-10" x="141.44" y="306.61" width="12.94" height="12.8"/>
            <rect class="cls-10" x="141.44" y="128.92" width="12.94" height="12.8"/>
            <rect class="cls-10" x="141.44" y="145.07" width="12.94" height="12.8"/>
            <rect class="cls-10" x="141.44" y="161.23" width="12.94" height="12.8"/>
            <rect class="cls-10" x="141.44" y="177.38" width="12.94" height="12.8"/>
            <rect class="cls-10" x="141.44" y="193.53" width="12.94" height="12.8"/>
            <rect class="cls-10" x="141.44" y="209.69" width="12.94" height="12.8"/>
            <rect class="cls-10" x="141.44" y="225.84" width="12.94" height="12.8"/>
            <rect class="cls-10" x="141.44" y="242" width="12.94" height="12.8"/>
            <rect class="cls-10" x="141.44" y="258.15" width="12.94" height="12.8"/>
            <rect class="cls-10" x="141.44" y="274.3" width="12.94" height="12.8"/>
            <rect class="cls-10" x="141.44" y="290.46" width="12.94" height="12.8"/>
            <rect class="cls-10" x="141.44" y="306.61" width="12.94" height="12.8"/>
            <rect class="cls-10" x="162.87" y="128.92" width="12.94" height="12.8"/>
            <rect class="cls-10" x="162.87" y="145.07" width="12.94" height="12.8"/>
            <rect class="cls-10" x="162.87" y="161.23" width="12.94" height="12.8"/>
            <rect class="cls-10" x="162.87" y="177.38" width="12.94" height="12.8"/>
            <rect class="cls-10" x="162.87" y="193.53" width="12.94" height="12.8"/>
            <rect class="cls-10" x="162.87" y="209.69" width="12.94" height="12.8"/>
            <rect class="cls-10" x="162.87" y="225.84" width="12.94" height="12.8"/>
            <rect class="cls-10" x="162.87" y="242" width="12.94" height="12.8"/>
            <rect class="cls-10" x="162.87" y="258.15" width="12.94" height="12.8"/>
            <rect class="cls-10" x="162.87" y="274.3" width="12.94" height="12.8"/>
            <rect class="cls-10" x="162.87" y="290.46" width="12.94" height="12.8"/>
            <rect class="cls-10" x="162.87" y="306.61" width="12.94" height="12.8"/>
            <rect class="cls-10" x="162.87" y="128.92" width="12.94" height="12.8"/>
            <rect class="cls-10" x="162.87" y="145.07" width="12.94" height="12.8"/>
            <rect class="cls-10" x="162.87" y="161.23" width="12.94" height="12.8"/>
            <rect class="cls-10" x="162.87" y="177.38" width="12.94" height="12.8"/>
            <rect class="cls-10" x="162.87" y="193.53" width="12.94" height="12.8"/>
            <rect class="cls-10" x="162.87" y="209.69" width="12.94" height="12.8"/>
            <rect class="cls-10" x="162.87" y="225.84" width="12.94" height="12.8"/>
            <rect class="cls-10" x="162.87" y="242" width="12.94" height="12.8"/>
            <rect class="cls-10" x="162.87" y="258.15" width="12.94" height="12.8"/>
            <rect class="cls-10" x="162.87" y="274.3" width="12.94" height="12.8"/>
            <rect class="cls-10" x="162.87" y="290.46" width="12.94" height="12.8"/>
            <rect class="cls-10" x="162.87" y="306.61" width="12.94" height="12.8"/>
          </g>
        </g>
      </g>
      <g>
        <g>
          <g>
            <g>
              <rect class="cls-5" x="72.32" y="166.18" width="34.26" height="160.56"/>
              <rect class="cls-24" x="72.32" y="166.18" width="34.26" height="160.56"/>
            </g>
            <rect class="cls-5" x="72.32" y="160.92" width="36.3" height="5.26" transform="translate(180.94 327.1) rotate(180)"/>
            <g>
              <rect class="cls-5" x="72.32" y="152.71" width="30.78" height="8.21" transform="translate(175.42 313.63) rotate(180)"/>
              <rect class="cls-24" x="72.32" y="152.71" width="30.78" height="8.21" transform="translate(175.42 313.63) rotate(180)"/>
            </g>
            <g>
              <rect class="cls-5" x="72.32" y="134.59" width="23.55" height="18.12" transform="translate(168.19 287.29) rotate(180)"/>
              <rect class="cls-23" x="72.32" y="134.59" width="23.55" height="18.12" transform="translate(168.19 287.29) rotate(180)"/>
            </g>
            <g>
              <g class="cls-29">
                <rect class="cls-2" x="75.6" y="172.27" width="4.65" height="16.89"/>
              </g>
              <g class="cls-29">
                <rect class="cls-2" x="75.6" y="195.27" width="4.65" height="16.89"/>
              </g>
              <g class="cls-29">
                <rect class="cls-2" x="75.6" y="218.28" width="4.65" height="16.89"/>
              </g>
              <g class="cls-29">
                <rect class="cls-2" x="75.6" y="241.29" width="4.65" height="16.89"/>
              </g>
              <g class="cls-29">
                <rect class="cls-2" x="75.6" y="264.3" width="4.65" height="16.89"/>
              </g>
              <g class="cls-29">
                <rect class="cls-2" x="75.6" y="287.3" width="4.65" height="16.89"/>
              </g>
              <g class="cls-29">
                <rect class="cls-2" x="83.28" y="172.27" width="4.65" height="16.89"/>
              </g>
              <g class="cls-29">
                <rect class="cls-2" x="83.28" y="195.27" width="4.65" height="16.89"/>
              </g>
              <g class="cls-29">
                <rect class="cls-2" x="83.28" y="218.28" width="4.65" height="16.89"/>
              </g>
              <g class="cls-29">
                <rect class="cls-2" x="83.28" y="241.29" width="4.65" height="16.89"/>
              </g>
              <g class="cls-29">
                <rect class="cls-2" x="83.28" y="264.3" width="4.65" height="16.89"/>
              </g>
              <g class="cls-29">
                <rect class="cls-2" x="83.28" y="287.3" width="4.65" height="16.89"/>
              </g>
              <g class="cls-29">
                <rect class="cls-2" x="90.96" y="172.27" width="4.65" height="16.89"/>
              </g>
              <g class="cls-29">
                <rect class="cls-2" x="90.96" y="195.27" width="4.65" height="16.89"/>
              </g>
              <g class="cls-29">
                <rect class="cls-2" x="90.96" y="218.28" width="4.65" height="16.89"/>
              </g>
              <g class="cls-29">
                <rect class="cls-2" x="90.96" y="241.29" width="4.65" height="16.89"/>
              </g>
              <g class="cls-29">
                <rect class="cls-2" x="90.96" y="264.3" width="4.65" height="16.89"/>
              </g>
              <g class="cls-29">
                <rect class="cls-2" x="90.96" y="287.3" width="4.65" height="16.89"/>
              </g>
              <g class="cls-29">
                <rect class="cls-2" x="98.64" y="172.27" width="4.65" height="16.89"/>
              </g>
              <g class="cls-29">
                <rect class="cls-2" x="98.64" y="195.27" width="4.65" height="16.89"/>
              </g>
              <g class="cls-29">
                <rect class="cls-2" x="98.64" y="218.28" width="4.65" height="16.89"/>
              </g>
              <g class="cls-29">
                <rect class="cls-2" x="98.64" y="241.29" width="4.65" height="16.89"/>
              </g>
              <g class="cls-29">
                <rect class="cls-2" x="98.64" y="264.3" width="4.65" height="16.89"/>
              </g>
              <g class="cls-29">
                <rect class="cls-2" x="98.64" y="287.3" width="4.65" height="16.89"/>
              </g>
            </g>
          </g>
          <g>
            <rect class="cls-5" x="2.1" y="166.18" width="70.22" height="160.56"/>
            <rect class="cls-5" x="5.46" y="152.71" width="66.85" height="8.21"/>
            <g>
              <rect class="cls-5" x="22.01" y="134.59" width="50.31" height="18.12"/>
              <rect class="cls-24" x="22.01" y="134.59" width="50.31" height="18.12"/>
            </g>
            <rect class="cls-5" y="160.92" width="72.32" height="5.26"/>
            <rect class="cls-24" y="160.92" width="72.32" height="5.26"/>
            <g>
              <g class="cls-30">
                <rect class="cls-2" x="8.81" y="172.27" width="9.53" height="16.89"/>
              </g>
              <g class="cls-30">
                <rect class="cls-2" x="8.81" y="195.27" width="9.53" height="16.89"/>
              </g>
              <g class="cls-30">
                <rect class="cls-2" x="8.81" y="218.28" width="9.53" height="16.89"/>
              </g>
              <g class="cls-30">
                <rect class="cls-2" x="8.81" y="241.29" width="9.53" height="16.89"/>
              </g>
              <g class="cls-30">
                <rect class="cls-2" x="8.81" y="264.3" width="9.53" height="16.89"/>
              </g>
              <g class="cls-30">
                <rect class="cls-2" x="8.81" y="287.3" width="9.53" height="16.89"/>
              </g>
              <g class="cls-30">
                <rect class="cls-2" x="24.57" y="172.27" width="9.53" height="16.89"/>
              </g>
              <g class="cls-30">
                <rect class="cls-2" x="24.57" y="195.27" width="9.53" height="16.89"/>
              </g>
              <g class="cls-30">
                <rect class="cls-2" x="24.57" y="218.28" width="9.53" height="16.89"/>
              </g>
              <g class="cls-30">
                <rect class="cls-2" x="24.57" y="241.29" width="9.53" height="16.89"/>
              </g>
              <g class="cls-30">
                <rect class="cls-2" x="24.57" y="264.3" width="9.53" height="16.89"/>
              </g>
              <g class="cls-30">
                <rect class="cls-2" x="24.57" y="287.3" width="9.53" height="16.89"/>
              </g>
              <g class="cls-30">
                <rect class="cls-2" x="40.32" y="172.27" width="9.53" height="16.89"/>
              </g>
              <g class="cls-30">
                <rect class="cls-2" x="40.32" y="195.27" width="9.53" height="16.89"/>
              </g>
              <g class="cls-30">
                <rect class="cls-2" x="40.32" y="218.28" width="9.53" height="16.89"/>
              </g>
              <g class="cls-30">
                <rect class="cls-2" x="40.32" y="241.29" width="9.53" height="16.89"/>
              </g>
              <g class="cls-30">
                <rect class="cls-2" x="40.32" y="264.3" width="9.53" height="16.89"/>
              </g>
              <g class="cls-30">
                <rect class="cls-2" x="40.32" y="287.3" width="9.53" height="16.89"/>
              </g>
              <g class="cls-30">
                <rect class="cls-2" x="56.07" y="172.27" width="9.53" height="16.89"/>
              </g>
              <g class="cls-30">
                <rect class="cls-2" x="56.07" y="195.27" width="9.53" height="16.89"/>
              </g>
              <g class="cls-30">
                <rect class="cls-2" x="56.07" y="218.28" width="9.53" height="16.89"/>
              </g>
              <g class="cls-30">
                <rect class="cls-2" x="56.07" y="241.29" width="9.53" height="16.89"/>
              </g>
              <g class="cls-30">
                <rect class="cls-2" x="56.07" y="264.3" width="9.53" height="16.89"/>
              </g>
              <g class="cls-30">
                <rect class="cls-2" x="56.07" y="287.3" width="9.53" height="16.89"/>
              </g>
            </g>
            <rect class="cls-23" x="24.57" y="310.83" width="25.28" height="15.91"/>
          </g>
        </g>
        <g>
          <g>
            <g>
              <rect class="cls-5" x="142.6" y="235.19" width="34.26" height="91.56"/>
              <rect class="cls-24" x="142.6" y="235.19" width="34.26" height="91.56"/>
            </g>
            <rect class="cls-5" x="142.6" y="229.92" width="36.3" height="5.26" transform="translate(321.5 465.11) rotate(180)"/>
            <g>
              <rect class="cls-5" x="142.6" y="221.71" width="30.78" height="8.21" transform="translate(315.98 451.63) rotate(180)"/>
              <rect class="cls-24" x="142.6" y="221.71" width="30.78" height="8.21" transform="translate(315.98 451.63) rotate(180)"/>
            </g>
            <g>
              <g class="cls-29">
                <rect class="cls-2" x="145.88" y="241.27" width="4.65" height="16.89"/>
              </g>
              <g class="cls-29">
                <rect class="cls-2" x="145.88" y="264.28" width="4.65" height="16.89"/>
              </g>
              <g class="cls-29">
                <rect class="cls-2" x="145.88" y="287.29" width="4.65" height="16.89"/>
              </g>
              <g class="cls-29">
                <rect class="cls-2" x="153.56" y="241.27" width="4.65" height="16.89"/>
              </g>
              <g class="cls-29">
                <rect class="cls-2" x="153.56" y="264.28" width="4.65" height="16.89"/>
              </g>
              <g class="cls-29">
                <rect class="cls-2" x="153.56" y="287.29" width="4.65" height="16.89"/>
              </g>
              <g class="cls-29">
                <rect class="cls-2" x="161.24" y="241.27" width="4.65" height="16.89"/>
              </g>
              <g class="cls-29">
                <rect class="cls-2" x="161.24" y="264.28" width="4.65" height="16.89"/>
              </g>
              <g class="cls-29">
                <rect class="cls-2" x="161.24" y="287.29" width="4.65" height="16.89"/>
              </g>
              <g class="cls-29">
                <rect class="cls-2" x="168.92" y="241.27" width="4.65" height="16.89"/>
              </g>
              <g class="cls-29">
                <rect class="cls-2" x="168.92" y="264.28" width="4.65" height="16.89"/>
              </g>
              <g class="cls-29">
                <rect class="cls-2" x="168.92" y="287.29" width="4.65" height="16.89"/>
              </g>
            </g>
          </g>
          <g>
            <rect class="cls-5" x="72.38" y="235.19" width="70.22" height="91.56"/>
            <rect class="cls-5" x="75.74" y="221.71" width="66.85" height="8.21"/>
            <rect class="cls-5" x="70.28" y="229.92" width="72.32" height="5.26"/>
            <rect class="cls-24" x="70.28" y="229.92" width="72.32" height="5.26"/>
            <g>
              <g class="cls-30">
                <rect class="cls-2" x="79.09" y="241.27" width="9.53" height="16.89"/>
              </g>
              <g class="cls-30">
                <rect class="cls-2" x="79.09" y="264.28" width="9.53" height="16.89"/>
              </g>
              <g class="cls-30">
                <rect class="cls-2" x="79.09" y="287.29" width="9.53" height="16.89"/>
              </g>
              <g class="cls-30">
                <rect class="cls-2" x="94.85" y="241.27" width="9.53" height="16.89"/>
              </g>
              <g class="cls-30">
                <rect class="cls-2" x="94.85" y="264.28" width="9.53" height="16.89"/>
              </g>
              <g class="cls-30">
                <rect class="cls-2" x="94.85" y="287.29" width="9.53" height="16.89"/>
              </g>
              <g class="cls-30">
                <rect class="cls-2" x="110.6" y="241.27" width="9.53" height="16.89"/>
              </g>
              <g class="cls-30">
                <rect class="cls-2" x="110.6" y="264.28" width="9.53" height="16.89"/>
              </g>
              <g class="cls-30">
                <rect class="cls-2" x="110.6" y="287.29" width="9.53" height="16.89"/>
              </g>
              <g class="cls-30">
                <rect class="cls-2" x="126.35" y="241.27" width="9.53" height="16.89"/>
              </g>
              <g class="cls-30">
                <rect class="cls-2" x="126.35" y="264.28" width="9.53" height="16.89"/>
              </g>
              <g class="cls-30">
                <rect class="cls-2" x="126.35" y="287.29" width="9.53" height="16.89"/>
              </g>
            </g>
          </g>
        </g>
      </g>
      <g>
        <rect class="cls-3" x="466.56" y="138.78" width="57.67" height="187.81"/>
        <g>
          <g>
            <rect class="cls-3" x="480.86" y="119.89" width="43.15" height="18.89"/>
            <g>
              <rect class="cls-3" x="484.45" y="122.81" width="3.69" height="13.06"/>
              <rect class="cls-3" x="490.91" y="122.81" width="3.69" height="13.06"/>
              <rect class="cls-3" x="497.36" y="122.81" width="3.69" height="13.06"/>
              <rect class="cls-3" x="503.82" y="122.81" width="3.69" height="13.06"/>
              <rect class="cls-3" x="510.27" y="122.81" width="3.69" height="13.06"/>
              <rect class="cls-3" x="516.73" y="122.81" width="3.69" height="13.06"/>
            </g>
          </g>
          <g>
            <rect class="cls-3" x="524.01" y="119.89" width="19.62" height="18.89"/>
            <g>
              <rect class="cls-3" x="526.76" y="122.81" width="3.14" height="13.06"/>
              <rect class="cls-3" x="532.25" y="122.81" width="3.14" height="13.06"/>
              <rect class="cls-3" x="537.74" y="122.81" width="3.14" height="13.06"/>
            </g>
          </g>
        </g>
        <rect class="cls-3" x="524.01" y="138.78" width="29.35" height="187.81"/>
        <g>
          <rect class="cls-10" x="478.36" y="151.72" width="10.64" height="17.29"/>
          <rect class="cls-10" x="500.03" y="151.72" width="10.64" height="17.29"/>
          <rect class="cls-10" x="478.36" y="178.96" width="10.64" height="17.29"/>
          <rect class="cls-10" x="500.03" y="178.96" width="10.64" height="17.29"/>
          <rect class="cls-10" x="478.36" y="206.21" width="10.64" height="17.29"/>
          <rect class="cls-10" x="500.03" y="206.21" width="10.64" height="17.29"/>
          <rect class="cls-10" x="478.36" y="233.45" width="10.64" height="17.29"/>
          <rect class="cls-10" x="500.03" y="233.45" width="10.64" height="17.29"/>
          <rect class="cls-10" x="478.36" y="260.69" width="10.64" height="17.29"/>
          <rect class="cls-10" x="500.03" y="260.69" width="10.64" height="17.29"/>
          <rect class="cls-10" x="478.36" y="287.93" width="10.64" height="17.29"/>
          <rect class="cls-10" x="500.03" y="287.93" width="10.64" height="17.29"/>
        </g>
        <g>
          <rect class="cls-10" x="529.4" y="151.72" width="6.12" height="17.29"/>
          <rect class="cls-10" x="541.85" y="151.72" width="6.12" height="17.29"/>
          <rect class="cls-10" x="529.4" y="178.96" width="6.12" height="17.29"/>
          <rect class="cls-10" x="541.85" y="178.96" width="6.12" height="17.29"/>
          <rect class="cls-10" x="529.4" y="206.21" width="6.12" height="17.29"/>
          <rect class="cls-10" x="541.85" y="206.21" width="6.12" height="17.29"/>
          <rect class="cls-10" x="529.4" y="233.45" width="6.12" height="17.29"/>
          <rect class="cls-10" x="541.85" y="233.45" width="6.12" height="17.29"/>
          <rect class="cls-10" x="529.4" y="260.69" width="6.12" height="17.29"/>
          <rect class="cls-10" x="541.85" y="260.69" width="6.12" height="17.29"/>
          <rect class="cls-10" x="529.4" y="287.93" width="6.12" height="17.29"/>
          <rect class="cls-10" x="541.85" y="287.93" width="6.12" height="17.29"/>
        </g>
      </g>
      <g>
        <rect class="cls-3" x="641.72" y="98.68" width="40.89" height="38.56" transform="translate(1324.33 235.93) rotate(180)"/>
        <rect class="cls-3" x="615.79" y="98.68" width="25.93" height="39.98" transform="translate(1257.51 237.34) rotate(180)"/>
        <rect class="cls-3" x="614.07" y="115.71" width="25.73" height="22.95" transform="translate(1253.87 254.37) rotate(180)"/>
        <rect class="cls-3" x="598.02" y="115.71" width="16.05" height="22.95" transform="translate(1212.09 254.37) rotate(180)"/>
        <g>
          <rect class="cls-3" x="632.17" y="134.74" width="66.12" height="191.85" transform="translate(1330.46 461.33) rotate(180)"/>
          <g>
            <rect class="cls-10" x="669.94" y="142.99" width="20.79" height="6.78" transform="translate(1360.67 292.76) rotate(180)"/>
            <rect class="cls-10" x="643.35" y="142.99" width="20.79" height="6.78" transform="translate(1307.48 292.76) rotate(180)"/>
            <rect class="cls-10" x="669.94" y="154.5" width="20.79" height="6.78" transform="translate(1360.67 315.79) rotate(180)"/>
            <rect class="cls-10" x="643.35" y="154.5" width="20.79" height="6.78" transform="translate(1307.48 315.79) rotate(180)"/>
            <rect class="cls-10" x="669.94" y="166.02" width="20.79" height="6.78" transform="translate(1360.67 338.82) rotate(180)"/>
            <rect class="cls-10" x="643.35" y="166.02" width="20.79" height="6.78" transform="translate(1307.48 338.82) rotate(180)"/>
            <rect class="cls-10" x="669.94" y="177.53" width="20.79" height="6.78" transform="translate(1360.67 361.85) rotate(180)"/>
            <rect class="cls-10" x="643.35" y="177.53" width="20.79" height="6.78" transform="translate(1307.48 361.85) rotate(180)"/>
            <rect class="cls-10" x="669.94" y="189.05" width="20.79" height="6.78" transform="translate(1360.67 384.88) rotate(180)"/>
            <rect class="cls-10" x="643.35" y="189.05" width="20.79" height="6.78" transform="translate(1307.48 384.88) rotate(180)"/>
            <rect class="cls-10" x="669.94" y="200.56" width="20.79" height="6.78" transform="translate(1360.67 407.91) rotate(180)"/>
            <rect class="cls-10" x="643.35" y="200.56" width="20.79" height="6.78" transform="translate(1307.48 407.91) rotate(180)"/>
            <rect class="cls-10" x="669.94" y="212.08" width="20.79" height="6.78" transform="translate(1360.67 430.94) rotate(180)"/>
            <rect class="cls-10" x="643.35" y="212.08" width="20.79" height="6.78" transform="translate(1307.48 430.94) rotate(180)"/>
            <rect class="cls-10" x="669.94" y="223.59" width="20.79" height="6.78" transform="translate(1360.67 453.97) rotate(180)"/>
            <rect class="cls-10" x="643.35" y="223.59" width="20.79" height="6.78" transform="translate(1307.48 453.97) rotate(180)"/>
            <rect class="cls-10" x="669.94" y="235.11" width="20.79" height="6.78" transform="translate(1360.67 477) rotate(180)"/>
            <rect class="cls-10" x="643.35" y="235.11" width="20.79" height="6.78" transform="translate(1307.48 477) rotate(180)"/>
            <rect class="cls-10" x="669.94" y="246.63" width="20.79" height="6.78" transform="translate(1360.67 500.03) rotate(180)"/>
            <rect class="cls-10" x="643.35" y="246.63" width="20.79" height="6.78" transform="translate(1307.48 500.03) rotate(180)"/>
            <rect class="cls-10" x="669.94" y="258.14" width="20.79" height="6.78" transform="translate(1360.67 523.07) rotate(180)"/>
            <rect class="cls-10" x="643.35" y="258.14" width="20.79" height="6.78" transform="translate(1307.48 523.07) rotate(180)"/>
            <rect class="cls-10" x="669.94" y="269.66" width="20.79" height="6.78" transform="translate(1360.67 546.1) rotate(180)"/>
            <rect class="cls-10" x="643.35" y="269.66" width="20.79" height="6.78" transform="translate(1307.48 546.1) rotate(180)"/>
            <rect class="cls-10" x="669.94" y="281.17" width="20.79" height="6.78" transform="translate(1360.67 569.13) rotate(180)"/>
            <rect class="cls-10" x="643.35" y="281.17" width="20.79" height="6.78" transform="translate(1307.48 569.13) rotate(180)"/>
            <rect class="cls-10" x="669.94" y="292.69" width="20.79" height="6.78" transform="translate(1360.67 592.16) rotate(180)"/>
            <rect class="cls-10" x="643.35" y="292.69" width="20.79" height="6.78" transform="translate(1307.48 592.16) rotate(180)"/>
          </g>
        </g>
        <g>
          <rect class="cls-3" x="578.6" y="134.74" width="53.58" height="191.85" transform="translate(1210.77 461.33) rotate(180)"/>
          <g>
            <rect class="cls-3" x="583.97" y="292.69" width="17.07" height="6.78"/>
            <rect class="cls-3" x="605.81" y="292.69" width="17.07" height="6.78"/>
            <rect class="cls-3" x="583.97" y="281.17" width="17.07" height="6.78"/>
            <rect class="cls-3" x="605.81" y="281.17" width="17.07" height="6.78"/>
            <rect class="cls-3" x="583.97" y="269.66" width="17.07" height="6.78"/>
            <rect class="cls-3" x="605.81" y="269.66" width="17.07" height="6.78"/>
            <rect class="cls-3" x="583.97" y="258.14" width="17.07" height="6.78"/>
            <rect class="cls-3" x="605.81" y="258.14" width="17.07" height="6.78"/>
            <rect class="cls-3" x="583.97" y="246.63" width="17.07" height="6.78"/>
            <rect class="cls-3" x="605.81" y="246.63" width="17.07" height="6.78"/>
            <rect class="cls-3" x="583.97" y="235.11" width="17.07" height="6.78"/>
            <rect class="cls-3" x="605.81" y="235.11" width="17.07" height="6.78"/>
            <rect class="cls-3" x="583.97" y="223.59" width="17.07" height="6.78"/>
            <rect class="cls-3" x="605.81" y="223.59" width="17.07" height="6.78"/>
            <rect class="cls-3" x="583.97" y="212.08" width="17.07" height="6.78"/>
            <rect class="cls-3" x="605.81" y="212.08" width="17.07" height="6.78"/>
            <rect class="cls-3" x="583.97" y="200.56" width="17.07" height="6.78"/>
            <rect class="cls-3" x="605.81" y="200.56" width="17.07" height="6.78"/>
            <rect class="cls-3" x="583.97" y="189.05" width="17.07" height="6.78"/>
            <rect class="cls-3" x="605.81" y="189.05" width="17.07" height="6.78"/>
            <rect class="cls-3" x="583.97" y="177.53" width="17.07" height="6.78"/>
            <rect class="cls-3" x="605.81" y="177.53" width="17.07" height="6.78"/>
            <rect class="cls-3" x="583.97" y="166.02" width="17.07" height="6.78"/>
            <rect class="cls-3" x="605.81" y="166.02" width="17.07" height="6.78"/>
            <rect class="cls-3" x="583.97" y="154.5" width="17.07" height="6.78"/>
            <rect class="cls-3" x="605.81" y="154.5" width="17.07" height="6.78"/>
            <rect class="cls-3" x="583.97" y="142.99" width="17.07" height="6.78"/>
            <rect class="cls-3" x="605.81" y="142.99" width="17.07" height="6.78"/>
          </g>
        </g>
      </g>
      <g>
        <polygon class="cls-5" points="708.08 326.16 662.05 326.16 662.05 191.55 708.08 163.74 708.08 326.16"/>
        <g>
          <polygon class="cls-5" points="702.16 326.16 667.23 326.16 667.23 195.32 702.16 174.21 702.16 326.16"/>
          <polygon class="cls-24" points="702.16 326.16 667.23 326.16 667.23 195.32 702.16 174.21 702.16 326.16"/>
          <g>
            <rect class="cls-5" x="671.23" y="197.58" width="30.93" height="1.04"/>
            <rect class="cls-5" x="671.23" y="206.09" width="30.93" height="1.04"/>
            <rect class="cls-5" x="671.23" y="214.59" width="30.93" height="1.04"/>
            <rect class="cls-5" x="671.23" y="223.09" width="30.93" height="1.04"/>
            <rect class="cls-5" x="671.23" y="231.59" width="30.93" height="1.04"/>
            <rect class="cls-5" x="671.23" y="240.1" width="30.93" height="1.04"/>
            <rect class="cls-5" x="671.23" y="248.6" width="30.93" height="1.04"/>
            <rect class="cls-5" x="671.23" y="257.1" width="30.93" height="1.04"/>
            <rect class="cls-5" x="671.23" y="265.6" width="30.93" height="1.04"/>
            <rect class="cls-5" x="671.23" y="274.11" width="30.93" height="1.04"/>
            <rect class="cls-5" x="671.23" y="282.61" width="30.93" height="1.04"/>
            <rect class="cls-5" x="671.23" y="291.11" width="30.93" height="1.04"/>
            <rect class="cls-5" x="671.23" y="299.61" width="30.93" height="1.04"/>
            <rect class="cls-5" x="671.23" y="308.12" width="30.93" height="1.04"/>
            <rect class="cls-5" x="671.23" y="316.62" width="30.93" height="1.04"/>
            <rect class="cls-5" x="671.23" y="325.12" width="30.93" height="1.04"/>
            <rect class="cls-5" x="617.47" y="256.37" width="138.46" height="1.11" transform="translate(429.77 943.63) rotate(-90)"/>
          </g>
          <g>
            <polygon class="cls-5" points="702.16 174.21 702.16 178.9 671.23 197.58 671.23 326.16 667.24 326.16 667.24 195.32 702.16 174.21"/>
            <polygon class="cls-21" points="702.16 174.21 702.16 178.9 671.23 197.58 671.23 326.16 667.24 326.16 667.24 195.32 702.16 174.21"/>
          </g>
        </g>
        <g>
          <g>
            <rect class="cls-5" x="708.08" y="163.74" width="40.55" height="162.42"/>
            <rect class="cls-24" x="708.08" y="163.74" width="40.55" height="162.42"/>
          </g>
          <g class="cls-27">
            <rect class="cls-2" x="712.01" y="174.21" width="32.68" height="3.68"/>
            <rect class="cls-2" x="712.01" y="182.54" width="32.68" height="3.68"/>
            <rect class="cls-2" x="712.01" y="190.87" width="32.68" height="3.68"/>
            <rect class="cls-2" x="712.01" y="199.2" width="32.68" height="3.68"/>
            <rect class="cls-2" x="712.01" y="207.53" width="32.68" height="3.68"/>
            <rect class="cls-2" x="712.01" y="215.86" width="32.68" height="3.68"/>
            <rect class="cls-2" x="712.01" y="224.19" width="32.68" height="3.68"/>
            <rect class="cls-2" x="712.01" y="232.52" width="32.68" height="3.68"/>
            <rect class="cls-2" x="712.01" y="240.84" width="32.68" height="3.68"/>
            <rect class="cls-2" x="712.01" y="249.17" width="32.68" height="3.68"/>
            <rect class="cls-2" x="712.01" y="257.5" width="32.68" height="3.68"/>
            <rect class="cls-2" x="712.01" y="265.83" width="32.68" height="3.68"/>
            <rect class="cls-2" x="712.01" y="274.16" width="32.68" height="3.68"/>
            <rect class="cls-2" x="712.01" y="282.49" width="32.68" height="3.68"/>
            <rect class="cls-2" x="712.01" y="290.82" width="32.68" height="3.68"/>
            <rect class="cls-2" x="712.01" y="299.15" width="32.68" height="3.68"/>
            <rect class="cls-2" x="712.01" y="307.48" width="32.68" height="3.68"/>
            <rect class="cls-2" x="712.01" y="315.8" width="32.68" height="3.68"/>
          </g>
        </g>
      </g>
    </g>
    <g>
      <g>
        <polygon class="cls-9" points="548 371.19 507.92 375.42 231.68 375.42 174.92 362.29 183.81 326.82 548 326.82 548 371.19"/>
        <g>
          <circle class="cls-14" cx="253.64" cy="365.37" r="25.23" transform="translate(-118.32 121.5) rotate(-21.98)"/>
          <g>
            <circle class="cls-9" cx="253.64" cy="365.37" r="15.61" transform="translate(-149.05 554.23) rotate(-80.36)"/>
            <g>
              <polygon class="cls-18" points="252.37 361.3 254.91 361.3 254.37 348.78 252.91 348.78 252.37 361.3"/>
              <polygon class="cls-18" points="254.13 361.14 256.46 362.17 261.05 350.51 259.72 349.92 254.13 361.14"/>
              <polygon class="cls-18" points="255.81 361.7 257.52 363.59 266.46 354.81 265.48 353.73 255.81 361.7"/>
              <polygon class="cls-18" points="257.12 362.9 257.9 365.32 269.65 360.94 269.2 359.55 257.12 362.9"/>
              <polygon class="cls-18" points="257.82 364.53 257.55 367.06 270.07 367.83 270.22 366.38 257.82 364.53"/>
              <polygon class="cls-18" points="257.8 366.3 256.53 368.51 267.65 374.3 268.37 373.04 257.8 366.3"/>
              <polygon class="cls-18" points="257.06 367.91 255 369.41 262.8 379.22 263.98 378.37 257.06 367.91"/>
              <polygon class="cls-18" points="255.73 369.09 253.24 369.61 256.38 381.75 257.8 381.45 255.73 369.09"/>
              <polygon class="cls-18" points="254.04 369.61 251.55 369.09 249.48 381.45 250.9 381.75 254.04 369.61"/>
              <polygon class="cls-18" points="252.28 369.41 250.22 367.91 243.3 378.37 244.48 379.22 252.28 369.41"/>
              <polygon class="cls-18" points="250.75 368.51 249.48 366.3 238.91 373.04 239.64 374.3 250.75 368.51"/>
              <polygon class="cls-18" points="249.73 367.06 249.46 364.53 237.06 366.38 237.22 367.83 249.73 367.06"/>
              <polygon class="cls-18" points="249.38 365.32 250.16 362.9 238.09 359.55 237.64 360.94 249.38 365.32"/>
              <polygon class="cls-18" points="249.77 363.59 251.47 361.7 241.8 353.73 240.82 354.81 249.77 363.59"/>
              <polygon class="cls-18" points="250.82 362.17 253.15 361.14 247.56 349.92 246.23 350.51 250.82 362.17"/>
            </g>
            <circle class="cls-19" cx="253.64" cy="365.37" r="12.42" transform="translate(-119.43 123.2) rotate(-22.24)"/>
            <circle class="cls-18" cx="253.64" cy="365.61" r="4.19"/>
            <circle class="cls-18" cx="253.64" cy="359.03" r="1.29"/>
            <path class="cls-18" d="M259.5,362.35c.68-.22,1.4.15,1.62.83.22.68-.15,1.4-.83,1.62-.68.22-1.4-.15-1.62-.83-.22-.68.15-1.4.83-1.62Z"/>
            <path class="cls-18" d="M258.55,370.18c.42.58.29,1.38-.28,1.8s-1.38.29-1.8-.28-.29-1.38.28-1.8,1.38-.29,1.8.28Z"/>
            <path class="cls-18" d="M250.81,371.69c-.42.58-1.22.7-1.8.28s-.7-1.22-.28-1.8c.42-.58,1.22-.7,1.8-.28s.7,1.22.28,1.8Z"/>
            <path class="cls-18" d="M246.98,364.8c-.68-.22-1.05-.95-.83-1.62.22-.68.95-1.05,1.62-.83.68.22,1.05.95.83,1.62-.22.68-.95,1.05-1.62.83Z"/>
            <path class="cls-19" d="M235.87,365.37c0,9.82,7.96,17.77,17.77,17.77,9.82,0,17.77-7.96,17.77-17.77,0-9.82-7.96-17.77-17.77-17.77-9.82,0-17.77,7.96-17.77,17.77ZM238.03,365.37c0-8.62,6.99-15.61,15.61-15.61,8.62,0,15.61,6.99,15.61,15.61s-6.99,15.61-15.61,15.61c-8.62,0-15.61-6.99-15.61-15.61Z"/>
          </g>
        </g>
        <path class="cls-1" d="M175.42,336.77v-39.72s7.52-52.91,7.52-52.91c.6-4.22,4.21-7.36,8.48-7.36h225.08c25.68,0,42.12,6.16,46.91,10.62,4.79,4.45,49.65,49.14,49.65,49.14,0,0,43.15,14.9,46.4,18.15,3.25,3.25,3.77,16.95,3.77,16.95,0,0,2.4,3.42,2.91,4.97.51,1.54.34,23.63,0,25-.34,1.37-4.97,6.85-10.62,8.22-2.15.52-4.91.99-7.51,1.38-3.49.51-6.54-2.23-6.54-5.75,0-.02,0-.05,0-.07,0-16.34-13.25-29.59-29.59-29.59s-29.59,13.25-29.59,29.59c0,.02,0,.05,0,.07,0,3.72-2.93,6.77-6.66,6.77h-185.62c-3.73,0-6.77-3.05-6.76-6.77v-.07c0-16.34-13.25-29.59-29.59-29.59s-29.59,13.25-29.59,29.59v.04c0,2.17-1.93,3.84-4.08,3.52l-45.05-6.65c-1.68-.25-2.92-1.69-2.92-3.39v-18.7c0-1.89,1.53-3.42,3.42-3.42Z"/>
        <path class="cls-8" d="M424.37,289.69c-3.6-7.02-3.94-40.58-3.94-40.58,0,0,1.46-3.72,12.76-3.72,7.56,0,21.78,1.9,33.87,5.54,10.78,10.54,39.65,39.29,45.1,44.72h0c1.2,1.2,1.55,2.72,2.69,5.33,1.15,2.61,3,3.93,3,3.93,2.04,1.18,21.33,7.61,25.19,8.87,3.86,1.26,3.66,2.12,3.66,2.12,0,0,9.5,9.93,3.84,10.89-5.66.96-35.09-15.34-51.09-17.82-16-2.48-71.49-12.24-75.09-19.26Z"/>
        <g>
          <circle class="cls-14" cx="511.87" cy="365.37" r="25.23" transform="translate(-100.86 223.7) rotate(-22.5)"/>
          <g>
            <circle class="cls-9" cx="511.87" cy="365.37" r="15.61" transform="translate(69.22 812.11) rotate(-80.78)"/>
            <g>
              <polygon class="cls-18" points="510.6 361.3 513.14 361.3 512.6 348.78 511.14 348.78 510.6 361.3"/>
              <polygon class="cls-18" points="512.36 361.14 514.69 362.17 519.28 350.51 517.95 349.92 512.36 361.14"/>
              <polygon class="cls-18" points="514.04 361.7 515.75 363.59 524.69 354.81 523.71 353.73 514.04 361.7"/>
              <polygon class="cls-18" points="515.35 362.9 516.13 365.32 527.87 360.94 527.43 359.55 515.35 362.9"/>
              <polygon class="cls-18" points="516.05 364.53 515.78 367.06 528.3 367.83 528.45 366.38 516.05 364.53"/>
              <polygon class="cls-18" points="516.03 366.3 514.76 368.51 525.88 374.3 526.6 373.04 516.03 366.3"/>
              <polygon class="cls-18" points="515.29 367.91 513.23 369.41 521.03 379.22 522.21 378.37 515.29 367.91"/>
              <polygon class="cls-18" points="513.96 369.09 511.47 369.61 514.61 381.75 516.03 381.45 513.96 369.09"/>
              <polygon class="cls-18" points="512.27 369.61 509.78 369.09 507.71 381.45 509.13 381.75 512.27 369.61"/>
              <polygon class="cls-18" points="510.51 369.41 508.45 367.91 501.53 378.37 502.71 379.22 510.51 369.41"/>
              <polygon class="cls-18" points="508.98 368.51 507.71 366.3 497.14 373.04 497.87 374.3 508.98 368.51"/>
              <polygon class="cls-18" points="507.96 367.06 507.69 364.53 495.29 366.38 495.45 367.83 507.96 367.06"/>
              <polygon class="cls-18" points="507.61 365.32 508.39 362.9 496.32 359.55 495.87 360.94 507.61 365.32"/>
              <polygon class="cls-18" points="508 363.59 509.7 361.7 500.03 353.73 499.05 354.81 508 363.59"/>
              <polygon class="cls-18" points="509.05 362.17 511.38 361.14 505.79 349.92 504.46 350.51 509.05 362.17"/>
            </g>
            <circle class="cls-19" cx="511.87" cy="365.37" r="12.42" transform="translate(-100.86 223.7) rotate(-22.5)"/>
            <circle class="cls-18" cx="511.87" cy="365.61" r="4.19"/>
            <circle class="cls-18" cx="511.87" cy="359.03" r="1.29"/>
            <path class="cls-18" d="M517.73,362.35c.68-.22,1.4.15,1.62.83.22.68-.15,1.4-.83,1.62-.68.22-1.4-.15-1.62-.83-.22-.68.15-1.4.83-1.62Z"/>
            <path class="cls-18" d="M516.78,370.18c.42.58.29,1.38-.28,1.8s-1.38.29-1.8-.28-.29-1.38.28-1.8,1.38-.29,1.8.28Z"/>
            <path class="cls-18" d="M509.04,371.69c-.42.58-1.22.7-1.8.28s-.7-1.22-.28-1.8,1.22-.7,1.8-.28.7,1.22.28,1.8Z"/>
            <path class="cls-18" d="M505.21,364.8c-.68-.22-1.05-.95-.83-1.62.22-.68.95-1.05,1.62-.83.68.22,1.05.95.83,1.62-.22.68-.95,1.05-1.62.83Z"/>
            <path class="cls-19" d="M494.1,365.37c0,9.82,7.96,17.77,17.77,17.77,9.82,0,17.77-7.96,17.77-17.77,0-9.82-7.96-17.77-17.77-17.77-9.82,0-17.77,7.96-17.77,17.77ZM496.26,365.37c0-8.62,6.99-15.61,15.61-15.61,8.62,0,15.61,6.99,15.61,15.61s-6.99,15.61-15.61,15.61c-8.62,0-15.61-6.99-15.61-15.61Z"/>
          </g>
        </g>
        <path class="cls-11" d="M499.45,294.31l-38.45-41.09s-6.51-3.77-17.12-5.14c-10.62-1.37-22.43-1.37-23.46,1.03-1.03,2.4,4.79,33.39,6.59,37.24,1.8,3.85,38.27,13.1,47,14.38,8.73,1.28,30.05,5.48,30.82,3.77s-1.17-5.68-5.39-10.19Z"/>
        <path class="cls-28" d="M491.99,281.47v49.31s-8.73,8.05-11.81,14.9c-3.08,6.85-5.65,22.24-5.65,22.24h-58.55v-119.42c0-2.64,2.17-4.77,4.81-4.72,8.33.16,25.31.81,33.2,3.39,10.68,3.49,22.26,17.36,38.01,34.31Z"/>
        <path class="cls-22" d="M562.03,321.24s-3.99-3.87-9.66-5.58c-5.67-1.71-17.74-1.45-17.74-1.45,0,0,6.68,8.86,13.1,11.56,6.42,2.7,15.32,3.09,15.32,3.09,0,0,1.34-3.93-1.02-7.62Z"/>
        <path class="cls-28" d="M513.05,296.54s.14.44.39,1.13c.72,1.98,2.37,5.98,4.41,7.23,2.74,1.69,27.6,9.65,27.6,9.65"/>
        <path class="cls-26" d="M175.42,297.05h6.68c2.36,0,4.28,1.92,4.28,4.28v35.1h-10.96v-39.38Z"/>
        <path class="cls-14" d="M186.38,336.43l3.01,27.99-14.47-2.14c-1.68-.25-2.92-1.69-2.92-3.39v-18.7c0-1.89,1.53-3.42,3.42-3.42v-.34h10.96Z"/>
        <path class="cls-14" d="M566.13,361.6c-.34,1.37-4.97,6.85-10.62,8.22-2.15.52-4.91.99-7.52,1.38-3.45.51-6.54-2.18-6.53-5.66v-.16c0-7.2-2.57-13.79-6.84-18.92h0s10.51-10.82,10.51-10.82c2.49-2.56,5.9-4,9.47-4h8.62s2.4,3.42,2.91,4.97c.51,1.54.34,23.63,0,25Z"/>
        <ellipse class="cls-18" cx="431.96" cy="307.4" rx="8.8" ry="1.55"/>
        <ellipse class="cls-18" cx="396.22" cy="307.4" rx="8.8" ry="1.55"/>
        <path class="cls-20" d="M511.87,323.19c9.9,0,18.99,3.41,26.19,9.12,2.11,1.67,2.3,4.81.4,6.71h0c-1.62,1.62-4.2,1.74-6,.32-5.66-4.48-12.81-7.16-20.59-7.16-7.78,0-14.93,2.68-20.59,7.16-1.8,1.43-4.37,1.31-6-.32h0c-1.91-1.91-1.71-5.04.4-6.71,7.19-5.71,16.29-9.12,26.19-9.12Z"/>
      </g>
      <g>
        <g class="cls-31">
          <path class="cls-16" d="M248.61,266.69h-3.4v3.78c-1.35.26-2.64.68-3.86,1.24l-1.87-3.24-2.95,1.7,1.88,3.26c-1.13.83-2.16,1.8-3.05,2.87l-3.1-2.1-1.91,2.82,3.11,2.11c-1.27,2.38-1.99,5.09-1.99,7.97,0,3.03.8,5.88,2.19,8.34l-3.09,2.14,1.94,2.8,3.12-2.16c.86.98,1.82,1.87,2.88,2.63l-1.88,3.26,2.95,1.7,1.88-3.26c1.22.55,2.52.96,3.87,1.21l-.3,3.74,3.39.28.3-3.74c1.45-.03,2.85-.23,4.19-.6l1.37,3.49,3.17-1.25-1.36-3.47c1.15-.59,2.23-1.3,3.22-2.12l2.66,2.61,2.38-2.43-2.67-2.62c.88-1.1,1.62-2.31,2.2-3.61l3.53,1.18,1.08-3.23-3.54-1.18c.27-1.2.41-2.44.41-3.72,0-1.13-.11-2.23-.32-3.3l3.57-1.06-.97-3.26-3.59,1.06c-.57-1.35-1.31-2.62-2.19-3.76l2.73-2.56-2.33-2.48-2.73,2.57c-.99-.86-2.08-1.61-3.25-2.22l1.39-3.51-3.17-1.25-1.38,3.49c-1.44-.42-2.96-.65-4.53-.66v-3.48ZM260.42,287.12c0,6.62-5.38,12-12,12s-12-5.38-12-12,5.38-12,12-12,12,5.38,12,12"/>
          <path class="cls-13" d="M237.4,278.74c.17-.07.39-.2.56-.39.18-.21.19-.39.06-.5-.12-.11-.28-.07-.57.09-.4.23-.77.29-1.06.04-.34-.29-.35-.8.05-1.27.19-.22.39-.35.54-.42l.28.42c-.11.05-.29.14-.46.33-.17.19-.16.37-.06.46.13.11.28.05.6-.13.43-.24.76-.25,1.04,0,.33.29.39.79-.08,1.34-.2.23-.45.4-.61.46l-.29-.41Z"/>
          <polygon class="cls-13" points="239.41 277 239.33 274.8 239.32 274.79 238.41 275.47 238.12 275.08 239.65 273.93 239.85 274.2 239.94 276.37 239.95 276.38 240.95 275.63 241.24 276.03 239.6 277.25 239.41 277"/>
          <rect class="cls-13" x="241.55" y="272.91" width=".6" height="2.63" transform="translate(-96.95 136.72) rotate(-26.5)"/>
          <polygon class="cls-13" points="243.03 272.27 243.6 272.1 244.21 274.15 245.22 273.84 245.36 274.32 243.78 274.8 243.03 272.27"/>
          <path class="cls-13" d="M246.62,271.48l.11,1.51c.03.45.22.67.52.65.31-.02.47-.25.43-.72l-.11-1.51.59-.04.11,1.47c.06.81-.32,1.23-1.01,1.27-.66.05-1.08-.29-1.14-1.13l-.11-1.46.6-.04Z"/>
          <polygon class="cls-13" points="250.35 272.05 249.65 271.93 249.73 271.44 251.73 271.76 251.65 272.26 250.94 272.14 250.6 274.25 250.01 274.15 250.35 272.05"/>
          <polygon class="cls-13" points="254.1 274.17 253.2 273.82 252.97 274.4 253.98 274.8 253.8 275.25 252.24 274.64 253.2 272.19 254.71 272.78 254.53 273.23 253.58 272.86 253.38 273.37 254.28 273.72 254.1 274.17"/>
          <path class="cls-13" d="M256.38,276.75c-.12-.02-.36-.1-.62-.28-.76-.51-.83-1.24-.41-1.86.5-.75,1.31-.81,1.97-.36.26.17.42.35.47.46l-.36.33c-.07-.11-.19-.24-.36-.36-.39-.26-.86-.23-1.18.26-.29.44-.22.89.22,1.18.15.1.34.18.46.2l-.18.44Z"/>
          <polygon class="cls-13" points="259.47 276.14 258.72 276.82 259.38 277.54 260.13 276.86 260.53 277.3 258.59 279.08 258.19 278.64 259 277.89 258.34 277.17 257.53 277.92 257.12 277.47 259.06 275.7 259.47 276.14"/>
          <path class="cls-16" d="M222.39,287.25c0-1.78,1.41-3.24,3.18-3.32l3.49-.87h.89v-.84h3.92v.9h22.93v.93h5.13v1h5.49v-.62h2.15c.15-.52.62-.9,1.19-.9h1.75c.44,0,.82.23,1.04.57.05,0,.11,0,.16,0,1.74,0,3.15,1.41,3.15,3.15s-1.41,3.15-3.15,3.15c-.06,0-.13,0-.19,0-.22.32-.59.52-1.01.52h-1.75c-.56,0-1.04-.38-1.19-.9h-2.15v-.62h-5.49v1.05h-5.13v.93h-22.93v.9h-3.92v-.84h-.89l-3.49-.87c-1.76-.07-3.18-1.53-3.18-3.32"/>
          <polygon class="cls-16" points="255.74 290.32 255.74 289.39 255.74 285.11 255.74 284.18 232.81 284.18 232.81 290.32 255.74 290.32"/>
          <polygon class="cls-4" points="232.81 290.32 232.81 284.18 232.81 283.28 231 283.28 231 284.12 231 290.38 231 291.22 232.81 291.22 232.81 290.32"/>
          <path class="cls-4" d="M229.18,284.12l-3.48.86c-1.25,0-2.26,1.01-2.26,2.26s1.01,2.26,2.26,2.26l3.48.86v-6.26ZM225.7,288.52c-.7,0-1.27-.57-1.27-1.27s.57-1.27,1.27-1.27,1.27.57,1.27,1.27-.57,1.27-1.27,1.27"/>
          <polygon class="cls-16" points="231 284.12 230.09 284.12 229.18 284.12 229.18 290.38 230.09 290.38 231 290.38 231 284.12"/>
          <polygon class="cls-4" points="261.13 288.36 261.13 286.13 261.13 285.11 257.27 285.11 255.74 285.11 255.74 289.39 257.27 289.39 261.13 289.39 261.13 288.36"/>
          <path class="cls-4" d="M273.7,286.05c.66,0,1.2.54,1.2,1.2s-.54,1.2-1.2,1.2-1.2-.54-1.2-1.2v1.71c.34.24.75.38,1.2.38,1.16,0,2.09-.94,2.09-2.09s-.94-2.09-2.09-2.09c-.45,0-.86.14-1.2.38v1.71c0-.66.54-1.2,1.2-1.2"/>
          <polygon class="cls-4" points="268.47 288.96 270.57 288.96 270.57 285.48 268.47 285.48 268.47 286.1 268.47 288.34 268.47 288.96"/>
          <path class="cls-16" d="M272.68,289.68v-4.92c0-.1-.08-.18-.18-.18h-1.75c-.1,0-.18.08-.18.18v.75h0v3.47h0v.69c0,.1.08.18.18.18h1.75c.1,0,.18-.08.18-.18"/>
          <rect class="cls-25" x="270.57" y="285.48" width="0" height="3.47"/>
          <polygon class="cls-4" points="268 286.1 267 286.1 262.89 286.1 261.98 286.1 261.98 288.34 262.89 288.34 267 288.34 268 288.34 268 286.1"/>
          <path class="cls-13" d="M239.49,300.2l-.43-.33.17-.58-.78-.6-.5.32-.42-.32,2.27-1.36.42.32-.73,2.56ZM239.36,298.87l.29-.93-.82.52.53.41Z"/>
          <path class="cls-13" d="M241.71,300.37l.18-.37.96.47-.43.88c-.14.04-.31.06-.52.04-.21-.02-.41-.07-.59-.16-.23-.11-.41-.26-.53-.44-.12-.18-.19-.38-.18-.61,0-.22.06-.44.16-.65.11-.23.26-.41.45-.54.18-.13.39-.2.63-.2.18,0,.37.05.58.15.27.13.46.3.56.49.1.19.12.4.06.62l-.48-.13c.02-.12,0-.24-.05-.34-.06-.11-.15-.19-.28-.25-.2-.1-.38-.11-.56-.04-.18.07-.32.22-.44.47-.13.26-.17.49-.11.68.05.19.17.33.36.42.09.05.2.07.31.08.11,0,.21,0,.31-.01l.14-.28-.51-.25Z"/>
          <path class="cls-13" d="M243.35,302.04l.61-2.39,1.02.26c.26.07.44.13.54.21.1.07.18.17.22.3.04.13.04.26,0,.4-.05.18-.14.31-.27.4-.14.09-.31.12-.53.1.09.09.16.18.21.27.05.09.11.24.17.46l.17.54-.58-.15-.21-.61c-.08-.22-.13-.36-.16-.42-.03-.06-.07-.11-.12-.14-.05-.03-.13-.06-.24-.09l-.1-.03-.26,1-.48-.12ZM244.18,300.78l.36.09c.23.06.38.09.44.08.06,0,.12-.03.16-.07.04-.04.08-.09.09-.17.02-.08.02-.15-.01-.21-.03-.06-.08-.11-.16-.14-.04-.02-.15-.05-.35-.1l-.38-.1-.16.61Z"/>
          <path class="cls-13" d="M246.38,301.49c.01-.25.06-.46.14-.63.06-.12.14-.23.25-.33.1-.09.21-.16.33-.21.16-.06.34-.08.54-.07.36.02.65.15.85.38.21.24.3.55.28.96-.02.4-.14.7-.37.92-.23.21-.52.31-.88.29-.37-.02-.65-.14-.86-.38-.21-.23-.3-.55-.28-.94M246.89,301.5c-.01.28.04.49.16.64.12.15.28.23.48.24.2,0,.36-.05.5-.19.13-.14.21-.35.22-.63.01-.28-.04-.5-.15-.64-.12-.15-.28-.22-.48-.23-.21-.01-.37.05-.51.19-.13.13-.21.34-.22.63"/>
          <polygon class="cls-13" points="251.18 302.57 250.6 300.17 251.08 300.05 251.34 301.12 252.06 299.81 252.71 299.65 252.03 300.81 253.34 302.04 252.72 302.19 251.78 301.23 251.49 301.72 251.66 302.45 251.18 302.57"/>
          <polygon class="cls-13" points="254.18 301.71 253.16 299.46 254.71 298.77 254.88 299.15 253.79 299.64 254.03 300.17 254.97 299.75 255.14 300.13 254.2 300.55 254.63 301.51 254.18 301.71"/>
          <polygon class="cls-13" points="257.07 300.2 255.93 298.5 255.32 298.91 255.09 298.56 256.71 297.47 256.95 297.81 256.34 298.22 257.48 299.92 257.07 300.2"/>
          <rect class="cls-13" x="258.21" y="298.65" width=".47" height=".47" transform="translate(-131.47 234.92) rotate(-39.83)"/>
        </g>
        <g>
          <g>
            <path class="cls-16" d="M281.49,289.67v-15.33h5.08v15.33h-5.08ZM286.11,286.38l-.28-5.67,5.78-6.37h5.63l-6.48,7.14-2.87,2.93-1.77,1.97ZM291.57,289.67l-4.51-5.96,3.35-3.55,7.14,9.5h-5.98Z"/>
            <path class="cls-16" d="M295.81,289.67l6.7-15.33h5.08l6.7,15.33h-5.34l-4.95-12.88h2.01l-4.95,12.88h-5.26ZM299.8,286.99l1.31-3.72h7.05l1.31,3.72h-9.68Z"/>
            <path class="cls-16" d="M315.13,289.67v-15.33h7.38c1.43,0,2.67.23,3.71.7,1.04.47,1.85,1.14,2.42,2,.57.87.85,1.89.85,3.08s-.28,2.2-.85,3.07c-.57.86-1.38,1.53-2.42,2-1.04.47-2.28.71-3.71.71h-4.51l2.3-2.21v5.98h-5.17ZM320.3,284.26l-2.3-2.34h4.18c.72,0,1.24-.16,1.59-.48.34-.32.51-.76.51-1.31s-.17-.99-.51-1.31c-.34-.32-.87-.48-1.59-.48h-4.18l2.3-2.34v8.28Z"/>
            <path class="cls-16" d="M339.46,290.02c-1.26,0-2.41-.2-3.47-.59-1.06-.39-1.97-.95-2.75-1.68s-1.38-1.57-1.81-2.55c-.43-.98-.65-2.04-.65-3.2s.22-2.24.65-3.21c.43-.97,1.03-1.82,1.81-2.54.77-.72,1.69-1.28,2.75-1.68,1.06-.39,2.21-.59,3.45-.59s2.41.2,3.46.59c1.05.39,1.96.95,2.74,1.68.77.72,1.38,1.57,1.81,2.54.43.97.65,2.04.65,3.21s-.22,2.22-.65,3.2c-.43.98-1.03,1.83-1.81,2.55-.77.72-1.69,1.28-2.74,1.68-1.05.39-2.2.59-3.44.59ZM339.44,285.83c.48,0,.93-.09,1.35-.26.42-.18.78-.43,1.1-.76.31-.33.56-.73.73-1.2.18-.47.26-1.01.26-1.61s-.09-1.13-.26-1.61c-.18-.47-.42-.88-.73-1.2-.31-.33-.68-.58-1.1-.76s-.86-.26-1.35-.26-.93.09-1.35.26c-.42.18-.78.43-1.09.76-.31.33-.56.73-.73,1.2-.18.47-.26,1.01-.26,1.61s.09,1.14.26,1.61c.18.47.42.88.73,1.2.31.33.68.58,1.09.76.42.18.87.26,1.35.26Z"/>
            <path class="cls-16" d="M355.68,290.02c-1.28,0-2.53-.15-3.72-.44-1.2-.29-2.18-.67-2.96-1.14l1.66-3.77c.73.42,1.54.76,2.44,1.02.9.26,1.77.38,2.62.38.5,0,.89-.03,1.17-.1.28-.07.49-.16.62-.28.13-.12.2-.27.2-.45,0-.28-.15-.5-.46-.66-.31-.16-.71-.3-1.22-.41-.5-.11-1.05-.23-1.65-.35-.6-.12-1.2-.29-1.81-.49-.61-.2-1.16-.47-1.66-.81-.5-.34-.91-.78-1.22-1.32-.31-.55-.46-1.23-.46-2.05,0-.95.27-1.81.8-2.59.53-.78,1.33-1.4,2.39-1.87,1.06-.47,2.38-.7,3.95-.7,1.04,0,2.06.11,3.07.33s1.91.55,2.72,1.01l-1.55,3.74c-.76-.38-1.49-.66-2.2-.85-.71-.19-1.4-.28-2.07-.28-.5,0-.89.04-1.18.13-.29.09-.5.2-.62.35-.12.15-.19.31-.19.48,0,.26.15.47.46.62s.71.28,1.22.38c.5.1,1.06.21,1.66.33.61.12,1.21.28,1.81.48.6.2,1.15.47,1.65.81.5.34.91.77,1.22,1.31.31.54.46,1.21.46,2.01,0,.93-.27,1.79-.8,2.57-.53.78-1.32,1.41-2.38,1.88-1.05.47-2.37.71-3.96.71Z"/>
          </g>
          <g>
            <path class="cls-16" d="M281.49,300.06v-8.42h2.84v8.42h-2.84ZM284.14,296.96v-2.33h3.01v2.33h-3.01ZM286.95,300.06v-8.42h2.84v8.42h-2.84Z"/>
            <path class="cls-16" d="M291.16,300.06v-8.42h2.84v8.42h-2.84Z"/>
            <path class="cls-16" d="M295.37,300.06v-8.42h4.15c.94,0,1.76.17,2.48.51.71.34,1.27.82,1.67,1.45.4.63.6,1.37.6,2.25s-.2,1.61-.6,2.24c-.4.63-.96,1.11-1.67,1.45-.71.34-1.54.51-2.48.51h-4.15ZM298.2,297.85h1.19c.4,0,.75-.08,1.05-.23.3-.15.54-.38.7-.68.17-.3.25-.66.25-1.09s-.08-.8-.25-1.09c-.17-.3-.4-.52-.7-.67-.3-.15-.65-.23-1.05-.23h-1.19v3.99Z"/>
            <path class="cls-16" d="M305.3,300.06v-8.42h3.93c1.29,0,2.27.28,2.95.85.67.57,1.01,1.34,1.01,2.32,0,.65-.16,1.21-.47,1.68-.31.47-.76.83-1.33,1.08-.57.25-1.25.37-2.04.37h-2.48l1.26-1.17v3.28h-2.84ZM308.13,297.09l-1.26-1.29h2.3c.39,0,.68-.09.87-.26.19-.18.28-.42.28-.72s-.09-.54-.28-.72c-.19-.18-.48-.26-.87-.26h-2.3l1.26-1.29v4.54ZM310.33,300.06l-2.07-3.07h3.01l2.09,3.07h-3.03Z"/>
            <path class="cls-16" d="M313.34,300.06l3.68-8.42h2.79l3.68,8.42h-2.93l-2.72-7.07h1.11l-2.72,7.07h-2.89ZM315.53,298.6l.72-2.04h3.87l.72,2.04h-5.31Z"/>
            <path class="cls-16" d="M327.79,300.25c-1.29,0-2.3-.35-3.02-1.05-.72-.7-1.08-1.68-1.08-2.93v-4.63h2.84v4.54c0,.64.12,1.1.35,1.36.23.27.54.4.94.4s.72-.13.94-.4c.23-.27.34-.72.34-1.36v-4.54h2.79v4.63c0,1.26-.36,2.24-1.08,2.93-.72.7-1.73,1.05-3.02,1.05Z"/>
            <path class="cls-16" d="M333.19,300.06v-8.42h2.84v6.22h3.8v2.2h-6.64Z"/>
            <path class="cls-16" d="M340.61,300.06v-8.42h2.84v8.42h-2.84Z"/>
            <path class="cls-16" d="M344.81,300.06v-8.42h2.79v8.42h-2.79ZM347.35,298.26l-.16-3.11,3.17-3.5h3.09l-3.56,3.92-1.58,1.61-.97,1.08ZM350.34,300.06l-2.48-3.27,1.84-1.95,3.92,5.22h-3.28Z"/>
            <path class="cls-16" d="M352.68,300.06l3.68-8.42h2.79l3.68,8.42h-2.93l-2.72-7.07h1.11l-2.72,7.07h-2.89ZM354.87,298.6l.72-2.04h3.87l.72,2.04h-5.31Z"/>
          </g>
        </g>
      </g>
    </g>
  </g>
</svg>