<?xml version="1.0" encoding="UTF-8"?>
<svg id="Layer_2" data-name="Layer 2" xmlns="http://www.w3.org/2000/svg" viewBox="0 0 144.78 77.95">
  <defs>
    <style>
      .cls-1 {
        fill: #263238;
      }

      .cls-1, .cls-2, .cls-3, .cls-4 {
        stroke-width: 0px;
      }

      .cls-2 {
        fill: #ffc742;
      }

      .cls-3 {
        fill: #6bbe59;
      }

      .cls-4 {
        fill: #a7a9ac;
      }
    </style>
  </defs>
  <g id="Réteg_1" data-name="Réteg 1">
    <g>
      <path class="cls-3" d="M34.77,63.38h-.07c.32,1.11.49,2.29.48,3.48h14.95V24.43c0-.9-.73-1.63-1.63-1.63H11.98c-.97,0-1.85.62-2.17,1.54l-5.21,14.74-1.24,3.11v25h6.84c.03-1.2.14-2.87.43-4.03,1.22-4.89,6.57-8.73,12.18-8.73s10.43,3.89,11.89,8.95h.07Z"/>
      <path class="cls-4" d="M32.52,29.57c0-.9-.73-1.63-1.63-1.63H14.53c-.98,0-1.85.62-2.19,1.53l-3.19,8.8c-.27.75.28,1.53,1.07,1.53h20.66c.9,0,1.63-.73,1.63-1.63v-8.6Z"/>
      <path class="cls-1" d="M32.59,42.65c0,.74-.6,1.34-1.34,1.34h-2.68c-.74,0-1.34-.6-1.34-1.34s.6-1.34,1.34-1.34h2.68c.74,0,1.34.6,1.34,1.34Z"/>
      <path class="cls-4" d="M1.05,57.54c0,.9.73,1.63,1.63,1.63h.69v-5.45h-.69c-.9,0-1.63.73-1.63,1.63v2.19Z"/>
      <path class="cls-1" d="M4.66,66.49c0,.45-.36.81-.82.81H.89c-.49,0-.89-.4-.89-.89v-5.72c0-.49.4-.89.89-.89h2.95c.45,0,.82.36.82.81v5.87Z"/>
      <path class="cls-1" d="M8.01,62.63h-.47c-1.06,0-1.92-.86-1.92-1.92l.02-19.07,4.81-13.82c.36-1.04,1.34-1.73,2.44-1.73h20.16c1.06,0,1.92.86,1.92,1.92v23.45c0,1.06-.87,1.92-1.93,1.92h-10.74c-5.13,0-10.14,3.18-11.92,7.57-.42,1.03-1.35,1.69-2.37,1.69ZM6.2,41.78v18.93c0,.74.6,1.34,1.34,1.34h.47c.79,0,1.5-.52,1.83-1.33,1.86-4.6,7.1-7.93,12.46-7.93h10.74c.75,0,1.35-.6,1.35-1.34v-23.45c0-.74-.6-1.34-1.34-1.34H12.89c-.85,0-1.61.54-1.89,1.35l-4.79,13.78Z"/>
      <rect class="cls-1" x="57.96" y="49.38" width="79.34" height="4.45"/>
      <path class="cls-2" d="M137.74,58.97h2.54c.9,0,1.63.73,1.63,1.63v.33c0,.9-.73,1.63-1.63,1.63h-2.54v-3.59Z"/>
      <path class="cls-4" d="M138.37,53.54H50.14v13.35h29.17s0-.04,0-.05c0-6.84,5.54-12.38,12.38-12.38,6.31,0,12.17,4.79,12.38,12.44h4s0-.04,0-.05c0-6.79,5.55-12.38,12.38-12.38,6.3,0,12.17,4.78,12.38,12.45h7.17v-11.74c0-.9-.73-1.63-1.64-1.63Z"/>
      <path class="cls-1" d="M25.16,22.78h22.72v-9.3c0-.88-.75-1.57-1.63-1.5l-9.13,1.18c-1.04.08-2.02.56-2.73,1.33l-9.23,8.29Z"/>
      <path class="cls-4" d="M39.15,27.94h6.61c.9,0,1.63.73,1.63,1.63v8.6c0,.9-.73,1.63-1.63,1.63h-6.61c-.9,0-1.63-.73-1.63-1.63v-8.6c0-.9.73-1.63,1.63-1.63Z"/>
      <path class="cls-4" d="M55.45,0h87.6c.96,0,1.73.78,1.73,1.73v47.26c0,.96-.78,1.73-1.73,1.73H55.45c-.96,0-1.73-.78-1.73-1.73V1.73c0-.96.78-1.73,1.73-1.73Z"/>
      <g>
        <path class="cls-1" d="M33.9,66.8c0,6.14-4.98,11.12-11.12,11.12s-11.12-4.98-11.12-11.12,4.98-11.12,11.12-11.12,11.12,4.98,11.12,11.12Z"/>
        <path class="cls-4" d="M30.32,66.8c0,4.16-3.37,7.54-7.54,7.54s-7.54-3.37-7.54-7.54,3.38-7.54,7.54-7.54,7.54,3.37,7.54,7.54Z"/>
        <path class="cls-1" d="M28.85,66.8c0,3.35-2.72,6.07-6.07,6.07s-6.07-2.72-6.07-6.07,2.72-6.07,6.07-6.07,6.07,2.72,6.07,6.07Z"/>
        <path class="cls-4" d="M26.29,66.8c0,1.94-1.57,3.51-3.51,3.51s-3.51-1.57-3.51-3.51,1.57-3.51,3.51-3.51,3.51,1.57,3.51,3.51Z"/>
      </g>
      <g>
        <path class="cls-1" d="M102.76,66.83c0,6.14-4.98,11.12-11.12,11.12s-11.12-4.98-11.12-11.12,4.98-11.12,11.12-11.12,11.12,4.98,11.12,11.12Z"/>
        <path class="cls-4" d="M99.18,66.83c0,4.16-3.37,7.54-7.54,7.54s-7.54-3.37-7.54-7.54,3.37-7.54,7.54-7.54,7.54,3.38,7.54,7.54Z"/>
        <path class="cls-1" d="M97.71,66.83c0,3.35-2.72,6.07-6.07,6.07s-6.07-2.72-6.07-6.07,2.72-6.07,6.07-6.07,6.07,2.72,6.07,6.07Z"/>
        <path class="cls-4" d="M95.15,66.83c0,1.94-1.57,3.51-3.51,3.51s-3.51-1.57-3.51-3.51,1.57-3.51,3.51-3.51,3.51,1.57,3.51,3.51Z"/>
      </g>
      <g>
        <path class="cls-1" d="M131.75,66.83c0,6.14-4.98,11.12-11.12,11.12s-11.12-4.98-11.12-11.12,4.98-11.12,11.12-11.12,11.12,4.98,11.12,11.12Z"/>
        <path class="cls-4" d="M128.17,66.83c0,4.16-3.38,7.54-7.54,7.54s-7.54-3.37-7.54-7.54,3.37-7.54,7.54-7.54,7.54,3.38,7.54,7.54Z"/>
        <path class="cls-1" d="M126.71,66.83c0,3.35-2.72,6.07-6.07,6.07s-6.07-2.72-6.07-6.07,2.72-6.07,6.07-6.07,6.07,2.72,6.07,6.07Z"/>
        <path class="cls-4" d="M124.14,66.83c0,1.94-1.57,3.51-3.51,3.51s-3.51-1.57-3.51-3.51,1.57-3.51,3.51-3.51,3.51,1.57,3.51,3.51Z"/>
      </g>
      <g>
        <path class="cls-4" d="M138.81,47.55c0,.9-.73,1.63-1.63,1.63s-1.65-.72-1.65-1.63V4.4c0-.9.73-1.63,1.63-1.63s1.65.73,1.65,1.63v43.15Z"/>
        <path class="cls-4" d="M127.86,47.55c0,.9-.73,1.63-1.63,1.63s-1.65-.72-1.65-1.63V4.4c0-.9.73-1.63,1.63-1.63s1.65.73,1.65,1.63v43.15Z"/>
        <path class="cls-4" d="M116.92,47.55c0,.9-.73,1.63-1.63,1.63s-1.65-.72-1.65-1.63V4.4c0-.9.73-1.63,1.63-1.63s1.65.73,1.65,1.63v43.15Z"/>
        <path class="cls-4" d="M105.98,47.55c0,.9-.73,1.63-1.63,1.63s-1.65-.72-1.65-1.63V4.4c0-.9.73-1.63,1.63-1.63s1.65.73,1.65,1.63v43.15Z"/>
        <path class="cls-4" d="M95.04,47.55c0,.9-.73,1.63-1.63,1.63s-1.65-.72-1.65-1.63V4.4c0-.9.73-1.63,1.63-1.63s1.65.73,1.65,1.63v43.15Z"/>
        <path class="cls-4" d="M84.1,47.55c0,.9-.73,1.63-1.63,1.63s-1.65-.72-1.65-1.63V4.4c0-.9.73-1.63,1.63-1.63s1.65.73,1.65,1.63v43.15Z"/>
        <path class="cls-4" d="M73.16,47.55c0,.9-.73,1.63-1.63,1.63s-1.65-.72-1.65-1.63V4.4c0-.9.73-1.63,1.63-1.63s1.65.73,1.65,1.63v43.15Z"/>
        <path class="cls-4" d="M62.22,47.55c0,.9-.73,1.63-1.63,1.63s-1.65-.72-1.65-1.63V4.4c0-.9.73-1.63,1.63-1.63s1.65.73,1.65,1.63v43.15Z"/>
      </g>
      <path class="cls-1" d="M137.19,64.14h3.06c.9,0,1.63.73,1.63,1.63v2.78c0,.9-.73,1.63-1.63,1.63h-3.07c-.9,0-1.63-.73-1.63-1.63v-2.78c0-.9.73-1.63,1.63-1.63Z"/>
      <g>
        <path class="cls-4" d="M54.7,56.19h19.08c.9,0,1.63.73,1.63,1.63v11.38c0,.9-.73,1.63-1.63,1.63h-19.08c-.9,0-1.63-.73-1.63-1.63v-11.38c0-.9.73-1.63,1.63-1.63Z"/>
        <g>
          <path class="cls-4" d="M70.92,71.02c0,.56-.45,1.01-1.01,1.01s-1.01-.45-1.01-1.01v-14.81c0-.55.45-1.01,1.01-1.01s1.01.45,1.01,1.01v14.81Z"/>
          <path class="cls-4" d="M65.24,71.02c0,.56-.45,1.01-1.01,1.01s-1.01-.45-1.01-1.01v-14.81c0-.55.45-1.01,1.01-1.01s1.01.45,1.01,1.01v14.81Z"/>
          <path class="cls-4" d="M59.57,71.02c0,.56-.45,1.01-1.01,1.01s-1.01-.45-1.01-1.01v-14.81c0-.55.45-1.01,1.01-1.01s1.01.45,1.01,1.01v14.81Z"/>
        </g>
      </g>
    </g>
  </g>
</svg>