<?xml version="1.0" encoding="UTF-8"?>
<svg id="Layer_2" data-name="Layer 2" xmlns="http://www.w3.org/2000/svg" viewBox="0 0 736 842.13">
  <defs>
    <style>
      .cls-1 {
        fill: #a7a9ac;
        stroke-width: 0px;
      }
    </style>
  </defs>
  <g id="Réteg_1" data-name="Réteg 1">
    <g>
      <path class="cls-1" d="M306.48,455.09c-.51-.21-2.08-.65-4.73-1.33l-5.09-1.31-2.11,8.19,4.82,1.24c3.13.8,5.11,1.17,5.96,1.11.85-.07,1.57-.36,2.18-.9.61-.53,1.03-1.28,1.28-2.25.28-1.09.22-2.04-.19-2.86-.41-.82-1.12-1.45-2.13-1.9Z"/>
      <polygon class="cls-1" points="229.35 434.75 233.28 422.16 222.15 429.19 229.35 434.75"/>
      <path class="cls-1" d="M340.96,459.38c-2.77-.14-5.05.7-6.84,2.52-1.79,1.81-2.78,4.64-2.97,8.47-.19,3.77.54,6.67,2.18,8.71,1.65,2.03,3.81,3.11,6.49,3.25,2.68.13,4.93-.72,6.74-2.57,1.81-1.84,2.82-4.7,3.01-8.56.19-3.82-.5-6.7-2.08-8.67-1.58-1.96-3.76-3.01-6.53-3.15Z"/>
      <path class="cls-1" d="M44.83,260.58c-9.48,0-17.17,7.69-17.17,17.18s7.69,17.18,17.17,17.18,17.18-7.69,17.18-17.18-7.69-17.18-17.18-17.18ZM44.83,260.58c-9.48,0-17.17,7.69-17.17,17.18s7.69,17.18,17.17,17.18,17.18-7.69,17.18-17.18-7.69-17.18-17.18-17.18ZM44.83,260.58c-9.48,0-17.17,7.69-17.17,17.18s7.69,17.18,17.17,17.18,17.18-7.69,17.18-17.18-7.69-17.18-17.18-17.18ZM44.83,260.58c-9.48,0-17.17,7.69-17.17,17.18s7.69,17.18,17.17,17.18,17.18-7.69,17.18-17.18-7.69-17.18-17.18-17.18ZM693.47,235.22c-.72,0-1.44.02-2.15.06-2.95-4.66-8.16-7.76-14.07-7.76h-23.7c-7.62,0-14.06,5.15-16.03,12.15h-29.05v8.38h-29.29c-.68-5.59-1.57-11.11-2.64-16.57l48.22-14.26-13.06-44.12-48.56,14.37c-7.67-18.29-17.67-35.35-29.6-50.87l36.88-34.65-31.51-33.53-36.91,34.69c-13.35-11.61-28.05-21.69-43.85-29.99l18.75-47.38-42.78-16.93-18.66,47.15c-19.45-5.61-39.95-8.73-61.16-8.96V0h-46.01v51.13c-18.23,3.51-35.68,9.18-52.1,16.74l-25.24-43.72-39.85,23.01,25.43,44.04c-15.29,11.21-29.16,24.25-41.24,38.84l-41.92-28.37-25.79,38.09,42.09,28.5c-7.03,13.16-12.81,27.09-17.2,41.62h-30.36v11.36h-12.03l-47.15,11.72C19.09,233.96,0,253.68,0,277.76s19.09,43.8,42.93,44.8l47.15,11.72h12.03v11.36h31.46c4.83,15.09,11.17,29.5,18.84,43.05l-41.75,28.9,26.18,37.83,42.15-29.17c11.56,13.29,24.62,25.23,38.93,35.56l-25.44,44.07,39.85,23,25.41-44.02c16.5,7.44,34.03,12.98,52.34,16.36l-4.12,50.57,45.86,3.73,4.11-50.54c19.55-.35,38.49-3.13,56.55-8.08l18.54,47.12,42.81-16.84-18.43-46.87c15.6-7.92,30.19-17.56,43.48-28.7l36,35.31,32.22-32.85-36.1-35.41c11.85-14.87,21.88-31.24,29.77-48.78l47.74,15.96,14.59-43.63-47.79-15.98c1.43-6.41,2.6-12.92,3.49-19.51h29.67v8.38h29.05c1.97,7.01,8.41,12.16,16.03,12.16h23.7c5.61,0,10.57-2.79,13.59-7.05.88.06,1.75.08,2.63.08,23.45,0,42.53-19.08,42.53-42.53s-19.08-42.54-42.53-42.54ZM91.83,320.03l-47-11.68c-16.89,0-30.58-13.7-30.58-30.59s13.69-30.59,30.58-30.59l47-11.68v84.54ZM140.9,331.39h-24.54v-107.26h24.54v107.26ZM501.05,127.6l-10.07,9.24,8.95,9.77,10.08-9.24,5.42,5.91-26.23,24.04-5.42-5.91,10.97-10.06-8.95-9.77-10.97,10.06-5.45-5.95,26.22-24.04,5.45,5.95ZM445.35,106.92c6.76-10.08,17.72-10.88,26.66-4.88,3.47,2.32,5.63,4.79,6.4,6.2l-4.92,4.39c-.97-1.48-2.51-3.27-4.88-4.86-5.3-3.55-11.57-3.12-15.98,3.46-3.97,5.92-2.96,12,3,16,2.02,1.35,4.55,2.42,6.22,2.77l-2.49,5.9c-1.64-.21-4.84-1.41-8.44-3.82-10.22-6.85-11.22-16.74-5.57-25.16ZM416.36,74.23l20.46,8-2.4,6.15-12.94-5.06-2.69,6.88,12.2,4.77-2.39,6.1-12.19-4.77-3.08,7.87,13.62,5.33-2.4,6.14-21.15-8.27,12.96-33.14ZM369.51,64.15l27.01,4.33-1.07,6.68-9.6-1.54-4.57,28.47-7.98-1.28,4.57-28.47-9.44-1.52,1.08-6.67ZM327.5,64.68l1.47,20.42c.44,6.1,2.98,9.04,7.08,8.75,4.21-.3,6.32-3.42,5.87-9.68l-1.47-20.43,8-.57,1.43,19.9c.79,10.95-4.37,16.55-13.63,17.22-8.95.64-14.57-3.93-15.38-15.24l-1.42-19.8,8.05-.57ZM286.67,73.08l8.29,27.61,13.55-4.06,1.94,6.47-21.29,6.39-10.23-34.08,7.74-2.33ZM258.62,84.01l15.87,31.84-7.22,3.6-15.88-31.84,7.23-3.6ZM233.25,97.78l2.78,3.72,1.16,29.22.13.17,13.48-10.1,3.99,5.33-22.15,16.59-2.6-3.47-1.05-29.7-.13-.17-12.3,9.22-3.99-5.33,20.68-15.48ZM189.14,152.38c-4.59-3.97-4.78-10.85.72-17.19,2.63-3.03,5.21-4.71,7.31-5.68l3.73,5.61c-1.45.62-3.87,1.88-6.15,4.51-2.29,2.64-2.2,4.95-.8,6.16,1.71,1.49,3.79.63,8.11-1.7,5.87-3.23,10.28-3.32,14.07-.03,4.51,3.91,5.33,10.7-1.07,18.08-2.66,3.07-6.08,5.41-8.24,6.2l-3.95-5.59c2.25-.91,5.27-2.7,7.52-5.29,2.42-2.8,2.54-5.28.78-6.8-1.67-1.45-3.73-1-7.69,1.23-5.43,3.12-10.43,3.88-14.34.49ZM351.83,113.86c75.1,0,138.43,51.32,156.78,120.74h-43.63v-12.57H198.93c22.29-62.95,82.41-108.17,152.9-108.17ZM231.09,452.77l-5.79-4.48,2.32-7.77-10.54-8.15-6.81,4.31-5.65-4.36,30.66-18.44,5.63,4.35-9.82,34.54ZM279.02,450.63l-6.55-1.82c.29-1.68.07-3.23-.67-4.65-.75-1.42-2-2.56-3.74-3.42-2.64-1.29-5.15-1.48-7.53-.57-2.38.91-4.38,3.01-5.99,6.3-1.74,3.56-2.26,6.61-1.55,9.16s2.34,4.45,4.9,5.71c1.27.62,2.66.99,4.17,1.12,1.52.13,2.91.06,4.17-.2l1.86-3.8-6.92-3.39,2.47-5.05,13.03,6.39-5.85,11.93c-1.87.6-4.23.78-7.09.53-2.86-.24-5.52-.97-7.99-2.18-3.13-1.53-5.53-3.53-7.22-5.98-1.68-2.46-2.51-5.19-2.48-8.21.02-3.02.74-5.96,2.15-8.83,1.53-3.12,3.54-5.57,6.04-7.35,2.49-1.79,5.32-2.7,8.47-2.76,2.4-.06,5.04.62,7.89,2.02,3.72,1.82,6.24,4.02,7.57,6.61,1.32,2.58,1.61,5.39.86,8.44ZM315.63,461.16c-.62,2.42-1.85,4.24-3.68,5.45-1.83,1.21-4.22,1.66-7.16,1.34,1.2,1.18,2.13,2.39,2.8,3.6.66,1.23,1.45,3.29,2.36,6.2l2.32,7.31-7.79-2-2.91-8.24c-1.03-2.94-1.77-4.82-2.21-5.63-.45-.81-.99-1.43-1.62-1.85-.63-.42-1.69-.82-3.19-1.2l-1.32-.34-3.47,13.47-6.51-1.67,8.3-32.29,13.72,3.53c3.45.89,5.89,1.82,7.3,2.81,1.42.98,2.4,2.33,2.96,4.06.56,1.72.59,3.54.1,5.45ZM356.51,471.7c-.27,5.37-1.94,9.51-5.01,12.4-3.08,2.89-7.06,4.21-11.95,3.97-4.95-.25-8.81-1.96-11.58-5.12-2.77-3.17-4.03-7.4-3.76-12.7.17-3.4.81-6.22,1.94-8.47.85-1.65,1.95-3.12,3.33-4.41,1.38-1.28,2.86-2.21,4.45-2.78,2.12-.78,4.54-1.1,7.25-.96,4.9.24,8.75,1.96,11.55,5.15,2.79,3.19,4.05,7.5,3.78,12.92ZM409.84,479.69l-12.61-13.03-3.98,6.71,2.38,9.79-6.53,1.59-7.91-32.38,6.54-1.6,3.51,14.38,9.7-17.6,8.79-2.15-9.11,15.59,17.68,16.64-8.46,2.06ZM435.72,470.41l-6.14,2.76-13.69-30.4,20.84-9.38,2.32,5.14-14.71,6.62,3.25,7.2,12.68-5.72,2.32,5.14-12.69,5.72,5.82,12.92ZM468.7,452.76l-15.47-22.97-8.21,5.52-3.15-4.67,21.98-14.8,3.15,4.68-8.19,5.51,15.47,22.97-5.58,3.76ZM486.91,439.51l-4.09-4.91,4.9-4.09,4.1,4.9-4.91,4.1ZM351.83,438.16c-69.18,0-128.37-43.55-151.62-104.67h264.77v-12.57h42.67c-19.53,67.64-81.99,117.24-155.82,117.24ZM523.56,306.67h-72.83v-57.82h72.83v57.82ZM616.42,292.47h-81.36v-30.17h81.36v30.17ZM693.47,306.04c-5.03,0-9.74-1.34-13.83-3.64v8.21c0,1.32-1.07,2.39-2.39,2.39h-23.7c-1.32,0-2.4-1.07-2.4-2.39v-9.39h.06v-.37h-28.49v-46.93h28.43v-9.75c0-1.32,1.08-2.4,2.4-2.4h23.7c1.32,0,2.39,1.08,2.39,2.4v8.95c4.09-2.3,8.8-3.64,13.83-3.64,15.62,0,28.28,12.66,28.28,28.28s-12.66,28.28-28.28,28.28ZM693.47,261.57c-5.87,0-10.98,3.13-13.83,7.79v16.8c2.85,4.66,7.96,7.79,13.83,7.79,8.94,0,16.19-7.25,16.19-16.19s-7.25-16.19-16.19-16.19ZM27.66,277.76c0,9.49,7.69,17.18,17.17,17.18s17.18-7.69,17.18-17.18-7.69-17.18-17.18-17.18-17.17,7.69-17.17,17.18ZM44.83,260.58c-9.48,0-17.17,7.69-17.17,17.18s7.69,17.18,17.17,17.18,17.18-7.69,17.18-17.18-7.69-17.18-17.18-17.18ZM44.83,260.58c-9.48,0-17.17,7.69-17.17,17.18s7.69,17.18,17.17,17.18,17.18-7.69,17.18-17.18-7.69-17.18-17.18-17.18ZM44.83,260.58c-9.48,0-17.17,7.69-17.17,17.18s7.69,17.18,17.17,17.18,17.18-7.69,17.18-17.18-7.69-17.18-17.18-17.18ZM44.83,260.58c-9.48,0-17.17,7.69-17.17,17.18s7.69,17.18,17.17,17.18,17.18-7.69,17.18-17.18-7.69-17.18-17.18-17.18Z"/>
    </g>
    <polygon class="cls-1" points="116.37 235.5 104.1 235.5 91.83 235.5 91.83 320.03 104.1 320.03 116.37 320.03 116.37 235.5"/>
    <g>
      <g>
        <path class="cls-1" d="M0,746.31v-138.72h45.98v138.72H0ZM41.81,716.59l-2.57-51.33,52.31-57.67h50.93l-58.66,64.6-25.96,26.55-16.05,17.84ZM91.16,746.31l-40.82-53.9,30.32-32.1,64.6,86.01h-54.1Z"/>
        <path class="cls-1" d="M129.6,746.31l60.64-138.72h45.97l60.64,138.72h-48.35l-44.79-116.52h18.23l-44.79,116.52h-47.56ZM165.67,722.14l11.89-33.69h63.81l11.89,33.69h-87.59Z"/>
        <path class="cls-1" d="M304.39,746.31v-138.72h66.78c12.95,0,24.14,2.11,33.59,6.34,9.44,4.23,16.75,10.27,21.9,18.13,5.15,7.86,7.73,17.14,7.73,27.84s-2.58,19.95-7.73,27.74c-5.15,7.8-12.46,13.84-21.9,18.13-9.45,4.29-20.65,6.44-33.59,6.44h-40.82l20.81-20.02v54.1h-46.77ZM351.16,697.37l-20.81-21.2h37.85c6.47,0,11.26-1.45,14.37-4.36,3.1-2.9,4.66-6.87,4.66-11.89s-1.55-8.98-4.66-11.89c-3.11-2.9-7.89-4.36-14.37-4.36h-37.85l20.81-21.2v74.91Z"/>
        <path class="cls-1" d="M524.56,749.49c-11.36,0-21.83-1.78-31.41-5.35-9.58-3.57-17.87-8.62-24.87-15.16-7-6.54-12.45-14.23-16.35-23.09-3.9-8.85-5.84-18.49-5.84-28.93s1.95-20.24,5.84-29.03c3.9-8.79,9.35-16.45,16.35-22.99,7-6.54,15.29-11.59,24.87-15.16,9.58-3.57,19.98-5.35,31.21-5.35s21.8,1.78,31.31,5.35c9.51,3.57,17.77,8.62,24.77,15.16,7,6.54,12.45,14.2,16.35,22.99,3.89,8.79,5.85,18.46,5.85,29.03s-1.95,20.08-5.85,28.93c-3.9,8.85-9.35,16.55-16.35,23.09-7,6.54-15.26,11.59-24.77,15.16-9.51,3.57-19.89,5.35-31.11,5.35ZM524.36,711.64c4.36,0,8.42-.79,12.19-2.38,3.76-1.59,7.07-3.86,9.91-6.84,2.84-2.97,5.05-6.6,6.64-10.9,1.59-4.29,2.38-9.15,2.38-14.57s-.79-10.27-2.38-14.57c-1.58-4.29-3.8-7.93-6.64-10.9-2.84-2.97-6.14-5.25-9.91-6.84s-7.83-2.38-12.19-2.38-8.42.79-12.19,2.38c-3.76,1.59-7.07,3.86-9.91,6.84-2.84,2.97-5.05,6.61-6.64,10.9-1.58,4.29-2.38,9.15-2.38,14.57s.79,10.27,2.38,14.57c1.59,4.29,3.8,7.93,6.64,10.9,2.84,2.97,6.14,5.25,9.91,6.84,3.77,1.58,7.83,2.38,12.19,2.38Z"/>
        <path class="cls-1" d="M671.4,749.49c-11.63,0-22.86-1.32-33.69-3.96-10.83-2.64-19.75-6.08-26.75-10.31l15.06-34.08c6.6,3.83,13.97,6.9,22.09,9.21,8.13,2.31,16.02,3.47,23.68,3.47,4.49,0,8.03-.3,10.6-.89,2.58-.6,4.46-1.45,5.65-2.58,1.19-1.12,1.78-2.48,1.78-4.06,0-2.51-1.39-4.49-4.16-5.94-2.77-1.45-6.44-2.67-11-3.67-4.56-.99-9.55-2.05-14.96-3.17-5.42-1.12-10.87-2.61-16.35-4.46-5.48-1.85-10.5-4.29-15.06-7.33-4.56-3.04-8.22-7.04-11-11.99-2.78-4.95-4.16-11.13-4.16-18.53,0-8.59,2.41-16.41,7.23-23.48,4.82-7.07,12.02-12.71,21.6-16.94,9.58-4.23,21.5-6.34,35.77-6.34,9.38,0,18.63.99,27.74,2.97,9.12,1.98,17.31,5.02,24.57,9.12l-14.07,33.89c-6.87-3.43-13.51-6.01-19.92-7.73-6.41-1.72-12.65-2.58-18.73-2.58-4.49,0-8.06.4-10.7,1.19-2.64.79-4.53,1.85-5.65,3.17-1.12,1.32-1.68,2.78-1.68,4.36,0,2.38,1.39,4.26,4.16,5.65,2.77,1.39,6.44,2.55,11,3.47,4.56.93,9.58,1.92,15.06,2.97,5.48,1.06,10.93,2.51,16.35,4.36,5.42,1.85,10.4,4.29,14.96,7.33,4.56,3.04,8.22,7,11,11.89,2.77,4.89,4.16,10.97,4.16,18.23,0,8.46-2.41,16.22-7.23,23.28-4.82,7.07-11.99,12.75-21.5,17.04-9.51,4.29-21.47,6.44-35.87,6.44Z"/>
      </g>
      <g>
        <path class="cls-1" d="M0,840.39v-76.16h25.68v76.16H0ZM23.93,812.32v-21.11h27.2v21.11h-27.2ZM49.39,840.39v-76.16h25.68v76.16h-25.68Z"/>
        <path class="cls-1" d="M87.47,840.39v-76.16h25.68v76.16h-25.68Z"/>
        <path class="cls-1" d="M125.55,840.39v-76.16h37.53c8.48,0,15.95,1.54,22.41,4.62,6.45,3.08,11.49,7.45,15.12,13.11,3.62,5.66,5.44,12.44,5.44,20.34s-1.82,14.6-5.44,20.29c-3.63,5.7-8.67,10.08-15.12,13.16-6.46,3.08-13.93,4.62-22.41,4.62h-37.53ZM151.22,820.37h10.77c3.63,0,6.8-.69,9.52-2.07,2.72-1.38,4.84-3.43,6.36-6.15,1.52-2.72,2.28-6,2.28-9.85s-.76-7.22-2.28-9.9c-1.52-2.68-3.64-4.71-6.36-6.09-2.72-1.38-5.89-2.07-9.52-2.07h-10.77v36.12Z"/>
        <path class="cls-1" d="M215.41,840.39v-76.16h35.57c11.68,0,20.56,2.58,26.66,7.72,6.09,5.15,9.14,12.15,9.14,21,0,5.87-1.41,10.93-4.24,15.18-2.83,4.24-6.84,7.49-12.02,9.74-5.19,2.25-11.34,3.37-18.44,3.37h-22.41l11.43-10.55v29.7h-25.68ZM241.09,813.52l-11.43-11.64h20.78c3.55,0,6.18-.8,7.89-2.39,1.7-1.59,2.56-3.77,2.56-6.53s-.85-4.93-2.56-6.53c-1.71-1.59-4.33-2.39-7.89-2.39h-20.78l11.43-11.64v41.12ZM261,840.39l-18.71-27.74h27.2l18.93,27.74h-27.42Z"/>
        <path class="cls-1" d="M288.2,840.39l33.29-76.16h25.24l33.29,76.16h-26.55l-24.59-63.97h10.01l-24.59,63.97h-26.11ZM308,827.12l6.53-18.5h35.03l6.53,18.5h-48.09Z"/>
        <path class="cls-1" d="M418.97,842.13c-11.68,0-20.78-3.15-27.31-9.46-6.53-6.31-9.79-15.16-9.79-26.55v-41.89h25.68v41.12c0,5.8,1.05,9.92,3.15,12.35,2.1,2.43,4.93,3.64,8.49,3.64s6.47-1.21,8.54-3.64c2.07-2.43,3.1-6.54,3.1-12.35v-41.12h25.24v41.89c0,11.39-3.26,20.24-9.79,26.55-6.53,6.31-15.63,9.46-27.31,9.46Z"/>
        <path class="cls-1" d="M467.82,840.39v-76.16h25.68v56.25h34.38v19.91h-60.06Z"/>
        <path class="cls-1" d="M534.95,840.39v-76.16h25.68v76.16h-25.68Z"/>
        <path class="cls-1" d="M573.02,840.39v-76.16h25.24v76.16h-25.24ZM595.98,824.07l-1.41-28.18,28.72-31.66h27.96l-32.2,35.47-14.25,14.58-8.81,9.79ZM623.07,840.39l-22.41-29.59,16.64-17.63,35.47,47.22h-29.7Z"/>
        <path class="cls-1" d="M644.18,840.39l33.29-76.16h25.24l33.29,76.16h-26.55l-24.59-63.97h10.01l-24.59,63.97h-26.11ZM663.98,827.12l6.53-18.5h35.03l6.53,18.5h-48.09Z"/>
      </g>
    </g>
  </g>
</svg>