<?xml version="1.0" encoding="UTF-8"?>
<svg xmlns="http://www.w3.org/2000/svg" xmlns:xlink="http://www.w3.org/1999/xlink" viewBox="0 0 97.8 131.03">
  <defs>
    <style>
      .cls-1 {
        fill: #758b9b;
      }

      .cls-1, .cls-2, .cls-3, .cls-4, .cls-5, .cls-6, .cls-7, .cls-8, .cls-9, .cls-10, .cls-11, .cls-12, .cls-13, .cls-14, .cls-15, .cls-16, .cls-17, .cls-18, .cls-19, .cls-20, .cls-21, .cls-22, .cls-23 {
        stroke-width: 0px;
      }

      .cls-2 {
        fill: #263238;
      }

      .cls-3 {
        fill: #ffd97b;
      }

      .cls-4 {
        fill: url(#linear-gradient);
      }

      .cls-5 {
        fill: #000;
      }

      .cls-6 {
        fill: #231f20;
      }

      .cls-7 {
        fill: #424f5c;
      }

      .cls-8 {
        fill: #44616f;
      }

      .cls-9 {
        fill: #b06f60;
      }

      .cls-24 {
        isolation: isolate;
      }

      .cls-10 {
        fill: #66271a;
      }

      .cls-11 {
        fill: #30130d;
      }

      .cls-12 {
        fill: none;
      }

      .cls-13 {
        fill: #589c48;
      }

      .cls-14 {
        fill: #d8dade;
      }

      .cls-15 {
        fill: #010101;
      }

      .cls-16 {
        fill: #ffca35;
      }

      .cls-17 {
        fill: #ffca36;
      }

      .cls-18 {
        fill: #ddac9e;
      }

      .cls-19 {
        fill: #6cbf5a;
      }

      .cls-20 {
        fill: #bbbcbf;
      }

      .cls-21 {
        fill: #a7a9ac;
      }

      .cls-22 {
        fill: #e9c9bb;
      }

      .cls-23 {
        fill: #232121;
      }

      .cls-25 {
        mix-blend-mode: multiply;
      }
    </style>
    <linearGradient id="linear-gradient" x1="8.76" y1="21.75" x2="16.66" y2="21.75" gradientTransform="translate(14.47 7.09) rotate(-1.81)" gradientUnits="userSpaceOnUse">
      <stop offset="0" stop-color="#fff"/>
      <stop offset=".64" stop-color="#c6c0b9"/>
    </linearGradient>
  </defs>
  <g class="cls-24">
    <g id="Layer_2" data-name="Layer 2">
      <g id="Réteg_1" data-name="Réteg 1">
        <g>
          <g>
            <g>
              <g>
                <path class="cls-16" d="M58.45,7.47c0,.07.51.12,1.13.12s1.13-.06,1.13-.12-.51-.12-1.13-.12-1.13.06-1.13.12Z"/>
                <path class="cls-16" d="M57.26,4.4c-.07,0-.12.51-.12,1.14s.06,1.15.12,1.15.12-.51.12-1.15-.06-1.14-.12-1.14Z"/>
              </g>
              <g>
                <path class="cls-16" d="M55.98,7.4c0-.07-.51-.12-1.13-.12s-1.13.06-1.13.12.51.12,1.13.12,1.13-.06,1.13-.12Z"/>
                <path class="cls-16" d="M57.18,10.47c.07,0,.12-.51.12-1.14s-.06-1.14-.12-1.14-.12.51-.12,1.14.06,1.14.12,1.14Z"/>
              </g>
              <path class="cls-16" d="M55.35,9.15c.05.04.28-.14.5-.4.22-.27.36-.52.31-.56s-.28.14-.5.4c-.22.27-.36.52-.31.56Z"/>
              <path class="cls-16" d="M55.46,5.67s.1.28.33.51c.23.23.46.38.51.33.05-.05-.1-.28-.33-.51-.23-.23-.46-.38-.51-.33Z"/>
              <path class="cls-16" d="M58.05,6.55c.04.05.26-.05.48-.23.22-.18.36-.37.32-.43-.04-.05-.26.05-.48.23-.22.18-.36.37-.32.43Z"/>
              <path class="cls-16" d="M58.15,8.09c-.05.05.08.27.29.5.21.23.42.38.47.33.05-.05-.08-.27-.29-.5-.21-.23-.42-.38-.47-.33Z"/>
            </g>
            <g>
              <g>
                <path class="cls-16" d="M2.69,34.38s.29.07.64.07.64-.03.64-.07-.29-.07-.64-.07-.64.03-.64.07Z"/>
                <path class="cls-16" d="M2.01,32.64s-.07.29-.07.65.03.65.07.65.07-.29.07-.65-.03-.65-.07-.65Z"/>
              </g>
              <g>
                <path class="cls-16" d="M1.28,34.34s-.29-.07-.64-.07-.64.03-.64.07.29.07.64.07.64-.03.64-.07Z"/>
                <path class="cls-16" d="M1.96,36.08s.07-.29.07-.65-.03-.65-.07-.65-.07.29-.07.65.03.65.07.65Z"/>
              </g>
              <path class="cls-16" d="M.93,35.34s.16-.08.28-.23c.13-.15.2-.29.17-.32-.03-.03-.16.08-.28.23-.13.15-.2.29-.17.32Z"/>
              <path class="cls-16" d="M.99,33.36s.06.16.19.29c.13.13.26.22.29.19.03-.03-.06-.16-.19-.29-.13-.13-.26-.22-.29-.19Z"/>
              <path class="cls-16" d="M2.45,33.86s.15-.03.27-.13c.12-.1.2-.21.18-.24-.03-.03-.15.03-.27.13-.12.1-.2.21-.18.24Z"/>
              <path class="cls-16" d="M2.51,34.73s.04.15.16.28c.12.13.24.21.27.19.03-.03-.04-.15-.16-.28-.12-.13-.24-.21-.27-.19Z"/>
            </g>
            <g>
              <g>
                <path class="cls-16" d="M59.62,48.2s.29.07.64.07.64-.03.64-.07-.29-.07-.64-.07-.64.03-.64.07Z"/>
                <path class="cls-16" d="M58.94,46.45s-.07.29-.07.65.03.65.07.65.07-.29.07-.65-.03-.65-.07-.65Z"/>
              </g>
              <g>
                <path class="cls-16" d="M58.21,48.15s-.29-.07-.64-.07-.64.03-.64.07.29.07.64.07.64-.03.64-.07Z"/>
                <path class="cls-16" d="M58.89,49.9s.07-.29.07-.65-.03-.65-.07-.65-.07.29-.07.65.03.65.07.65Z"/>
              </g>
              <path class="cls-16" d="M57.86,49.15s.16-.08.28-.23c.13-.15.2-.29.17-.32-.03-.03-.16.08-.28.23-.13.15-.2.29-.17.32Z"/>
              <path class="cls-16" d="M57.92,47.17s.06.16.19.29c.13.13.26.22.29.19.03-.03-.06-.16-.19-.29-.13-.13-.26-.22-.29-.19Z"/>
              <path class="cls-16" d="M59.39,47.68s.15-.03.27-.13c.12-.1.2-.21.18-.24-.03-.03-.15.03-.27.13-.12.1-.2.21-.18.24Z"/>
              <path class="cls-16" d="M59.44,48.55s.04.15.16.28c.12.13.24.21.27.19.03-.03-.04-.15-.16-.28-.12-.13-.24-.21-.27-.19Z"/>
            </g>
            <g>
              <g>
                <path class="cls-16" d="M12.49,84.28s.29.07.64.07.64-.03.64-.07-.29-.07-.64-.07-.64.03-.64.07Z"/>
                <path class="cls-16" d="M11.81,82.54s-.07.29-.07.65.03.65.07.65.07-.29.07-.65-.03-.65-.07-.65Z"/>
              </g>
              <g>
                <path class="cls-16" d="M11.08,84.24s-.29-.07-.64-.07-.64.03-.64.07.29.07.64.07.64-.03.64-.07Z"/>
                <path class="cls-16" d="M11.76,85.98s.07-.29.07-.65-.03-.65-.07-.65-.07.29-.07.65.03.65.07.65Z"/>
              </g>
              <path class="cls-16" d="M10.73,85.24s.16-.08.28-.23c.13-.15.2-.29.17-.32-.03-.03-.16.08-.28.23-.13.15-.2.29-.17.32Z"/>
              <path class="cls-16" d="M10.79,83.26s.06.16.19.29c.13.13.26.22.29.19.03-.03-.06-.16-.19-.29-.13-.13-.26-.22-.29-.19Z"/>
              <path class="cls-16" d="M12.26,83.76s.15-.03.27-.13c.12-.1.2-.21.18-.24-.03-.03-.15.03-.27.13-.12.1-.2.21-.18.24Z"/>
              <path class="cls-16" d="M12.31,84.64s.04.15.16.28c.12.13.24.21.27.19.03-.03-.04-.15-.16-.28-.12-.13-.24-.21-.27-.19Z"/>
            </g>
            <path class="cls-16" d="M11.56,24.94l-.07.18c-.13.31-.37.55-.68.68l-.19.08.18.07c.31.13.56.38.69.69l.05.13.08-.16c.14-.29.39-.52.7-.63l.17-.06-.22-.11c-.28-.13-.49-.36-.61-.64l-.09-.22Z"/>
            <path class="cls-16" d="M3.33,21.85l-.04.09c-.06.15-.19.28-.34.34l-.1.04.09.04c.16.06.28.19.34.35l.03.06.04-.08c.07-.15.2-.26.35-.32l.08-.03-.11-.05c-.14-.07-.25-.18-.3-.32l-.05-.11Z"/>
            <path class="cls-16" d="M67.09,9.19l-.04.09c-.06.15-.19.28-.34.34l-.1.04.09.04c.16.06.28.19.34.35l.03.06.04-.08c.07-.15.2-.26.35-.32l.08-.03-.11-.05c-.14-.07-.25-.18-.3-.32l-.05-.11Z"/>
            <path class="cls-16" d="M63.59,56.64l-.04.09c-.06.15-.19.28-.34.34l-.1.04.09.04c.16.06.28.19.34.35l.03.06.04-.08c.07-.15.2-.26.35-.32l.08-.03-.11-.05c-.14-.07-.25-.18-.3-.32l-.05-.11Z"/>
            <path class="cls-16" d="M14.45,77.42l-.04.09c-.06.15-.19.28-.34.34l-.1.04.09.04c.16.06.28.19.34.35l.03.06.04-.08c.07-.15.2-.26.35-.32l.08-.03-.11-.05c-.14-.07-.25-.18-.3-.32l-.05-.11Z"/>
            <path class="cls-16" d="M51.38,0l-.04.09c-.06.15-.19.28-.34.34l-.1.04.09.04c.16.06.28.19.34.35l.03.06.04-.08c.07-.15.2-.26.35-.32l.08-.03-.11-.05c-.14-.07-.25-.18-.3-.32l-.05-.11Z"/>
            <path class="cls-16" d="M56.95,62l-.07.18c-.13.31-.37.55-.68.68l-.19.08.18.07c.31.13.56.38.69.69l.05.13.08-.16c.14-.29.39-.52.7-.63l.17-.06-.22-.11c-.28-.13-.49-.36-.61-.64l-.09-.22Z"/>
          </g>
          <g>
            <path class="cls-16" d="M26.69,31.19s-8.4,17.98-2.08,34.74c6.32,16.76,29.53,40.78,32.11,42.05,0,0-5.96-9.36,4.92-9.28,10.87.08,16.33-2.57,17.5-6.38,1.17-3.81-5.28-16.12.65-19.08,5.93-2.96,13.16-2.07,18.01-6.17,0,0-11.31-.94-19.65-1.79-8.77-.89-35.1-19.24-37.23-32.73"/>
            <path class="cls-2" d="M57.24,62.16s.05.04.15.11c.11.08.26.18.44.3.38.26.95.62,1.65,1.05,1.41.86,3.4,1.99,5.67,3.08,2.27,1.09,4.4,1.93,5.95,2.49.78.28,1.41.49,1.85.63.21.06.38.12.51.16.12.03.18.05.18.05,0,0-.06-.03-.17-.07-.13-.05-.29-.11-.5-.18-.44-.15-1.06-.38-1.84-.67-1.54-.58-3.66-1.44-5.93-2.52-2.27-1.09-4.26-2.2-5.68-3.04-.71-.42-1.28-.77-1.67-1.01-.19-.11-.34-.21-.45-.28-.1-.06-.16-.09-.16-.09Z"/>
            <path class="cls-2" d="M50.1,72.13s.06.05.18.14c.13.1.31.22.53.39.46.33,1.12.82,1.93,1.43,1.62,1.22,3.83,2.95,6.16,4.99,2.33,2.04,4.35,3.99,5.77,5.43.71.72,1.28,1.31,1.67,1.72.19.2.34.35.45.47.1.11.16.16.17.16,0,0-.05-.06-.14-.18-.11-.12-.25-.28-.44-.49-.38-.42-.94-1.02-1.64-1.76-1.41-1.46-3.42-3.43-5.75-5.47-2.34-2.04-4.55-3.76-6.19-4.96-.82-.6-1.49-1.08-1.96-1.39-.23-.15-.41-.28-.54-.37-.12-.08-.19-.12-.19-.12Z"/>
            <path class="cls-2" d="M51.06,75.08s.02.04.08.1c.07.07.15.16.25.27.22.23.53.55.93.95.8.79,1.93,1.86,3.24,2.97,1.3,1.12,2.53,2.08,3.43,2.75.45.34.82.6,1.08.78.12.08.22.15.3.2.07.05.11.07.11.06,0,0-.03-.03-.09-.09-.08-.06-.17-.13-.28-.22-.27-.21-.62-.48-1.05-.81-.89-.69-2.1-1.66-3.4-2.77-1.3-1.12-2.44-2.17-3.26-2.94-.39-.38-.72-.69-.96-.92-.11-.1-.19-.18-.26-.25-.06-.06-.1-.08-.1-.08Z"/>
          </g>
          <g>
            <g>
              <g>
                <path class="cls-18" d="M24.77,22.65l-.65,7.32s1.44,8.92,3.68,9.73c2.24.81,4.44-5.01,4.39-6.56-.05-1.55-.54-10.05-.54-10.05l-6.88-.45Z"/>
                <path class="cls-22" d="M32.2,33.81c-.05-1.55-.54-10.05-.54-10.05l-3-.2-1.23,16.98c2.23.74,4.82-5.2,4.77-6.73Z"/>
              </g>
              <g class="cls-25">
                <path class="cls-4" d="M24,21.35c-.52-1.32,5.94,1.74,7.69,2.96l-5.89,11.69c-1.09-.37-1.48-6.42-1.86-6.88.56-.89.98-5.45.07-7.77Z"/>
              </g>
              <g>
                <path class="cls-22" d="M32.24,17.43c-.48-3.16-1.47-5.73-5.98-5.1-5.65.79-4.69,4.18-4.23,8.04.46,3.86,3.39,7.71,6.27,7.37,2.19-.26,3.72-2.87,4.13-5.81.55-.4.9-1.26.83-2.23-.09-1.26-.18-2.28-1.01-2.27Z"/>
                <path class="cls-18" d="M21.79,18.79c-.09,0-.18,0-.26.01-.88.17-.68,1.21-.43,2.48.21,1.1.93,1.92,1.69,2,1.16,2.65,2.97,4.69,5.1,4.44.1-.01.19-.04.28-.06l-3.26-14.56c-4.81.69-3.52,2.52-3.13,5.69Z"/>
                <path class="cls-11" d="M25.79,10.92c-.8-.3-3.71,1.27-4.54,2.29-.73.89-.85,1.97-.69,3.65.16,1.68.57,2.05.57,2.05l.7.08.57.27-.26-1.19s-.36-1.39.85-2.77c1.21-1.38,3.34-1.04,3.34-1.04l-.54-3.34Z"/>
                <path class="cls-10" d="M25.49,14.22c.62.56.23.6,1.7.31,1.48-.29,3.02.43,3.48,1.03.46.59.76,2.13.76,2.13l.95-.26.6.22s.22-2.83-1.03-4.62c-.95-1.35-1.5-1.81-3.37-2.07-.85-.12-2.58-1.07-3.08.26-.24.63,0,3,0,3Z"/>
              </g>
              <g>
                <path class="cls-16" d="M29.35,9.13c-1.91-.34-6.76-.18-8.43,2.32-1.67,2.5-.13,6.19-.13,6.19,1.34-1.17,8.59-3.29,12.31-1.32-.27-4.1-1.83-6.84-3.74-7.19ZM23.56,14.21s-.21-1.56,1.56-2.13c1.77-.57,3.11,1.22,3.11,1.22l-4.67.91Z"/>
                <path class="cls-3" d="M29.35,9.15c-.79-.15-2.11-.2-3.49-.03-.29.9-.47,1.89-.5,2.92,1.65-.34,2.86,1.28,2.86,1.28l-2.77.54c.04.33.1.67.17,1.01.07.33.16.66.26.98,2.49-.46,5.31-.53,7.21.48-.27-4.09-1.83-6.84-3.74-7.18Z"/>
              </g>
            </g>
            <path class="cls-23" d="M42.25,131.02l3-.07s3.49-.84,1.19-4.05c-1.72-2.4-1.45-3.3-2.38-5.17-.56-1.13-4.74-.44-4.74-.44,0,0,.54,3.62.19,4.84-1.51,5.3,2.73,4.89,2.73,4.89Z"/>
            <path class="cls-19" d="M37.57,57.33c1.47,2.93,2.38,8.68,3.5,17.9.49,4.08,1.44,14.27,2.28,17.54,2.92,11.38,2.08,31.34,2.08,31.34l-6.15.28s-5.65-28.57-6.17-30.62c-.51-2.05-4.1-16.68-4.1-16.68,0,0-1.68,17.28-.65,19.33,1.03,2.05,1.79,25.78,1.79,25.78l-6.55-.04s-2.26-23.79-2.77-28.92c-.51-5.13-.9-34.32-.9-34.32l17.64-1.59Z"/>
            <path class="cls-15" d="M25.64,121.2c-.5,2.02-2.6,3.73-4.11,4.24-1.51.5-3.38,1.5-2.87,3.52.5,2.02,4.47,1.12,4.47,1.12,0,0,4.96-1.61,6.47-1.61s1.51-4.2,1.01-6.22c-.5-2.02-4.97-1.04-4.97-1.04Z"/>
            <path class="cls-13" d="M18.88,95.2c.82,12.84,4.83,28.2,4.83,28.2l7.81-.27s-.13-20.99-1.08-25.97c-.88-4.66-.94-14.67-.94-14.67,0,0,2.31,11.67,2.83,13.73.51,2.05,6.4,28.3,6.4,28.3l5.13-.49c-.39-3.89-2.78-22.61-4.58-30.59-1.05-4.66-3.77-26.2-5.83-33.55l-15.66.13s.76,30.04,1.09,35.18Z"/>
            <path class="cls-20" d="M25.62,33.45c-1.3-1.99-1.38-4.93-1.38-4.93,0,0-1.35.41-5.99,1.79-2.37.7-3.69,1.85-3.88,3.56-.19,1.71,4.37,7.18,4.75,9.08.38,1.9-1.33,15.07.38,17.33,1.15,1.51,2.53-.84,9-.75,0-7.04-.2-20.32-.58-24.12-.03-.28-1.75-1.11-2.31-1.95Z"/>
            <path class="cls-14" d="M31.94,28.37s2.71-.08,7.06,1.4c1.75.59,1.49,1.05,1.68,2.76.19,1.71-1.58,12.03-1.96,13.93-.38,1.9-3.43,8.09-3.18,11.49.14,1.9-5.12,1.23-8.7,1.26,0-7.04-.56-23.04.87-24.03,4.05-2.79,4.22-6.82,4.22-6.82Z"/>
            <path class="cls-13" d="M19.47,29.88c-.42,1.89.45,8.17,1.08,8.59,1.58,1.05,11.53.42,11.53.42l1.52,21.8s-14.54,1.72-14.96,1.26c-1.05-1.15-1.62-3.98-1.62-5.65s.28-11.95.28-11.95c0,0,.69-10.31-.12-13.6,1.55-1.01,2.28-.86,2.28-.86Z"/>
            <path class="cls-19" d="M35.98,28.87s-1.8,8.87-2.22,9.5c-.42.63-2.62.52-2.62.52,0,0-.74,15.46,2.3,22.07.59,1.28,4.3-.58,4.3-.58,0,0,1.98-4.4,1.57-18.45-.02-.84-3.14-2.73-3.14-3.56s2.01-8.98,2.01-8.98l-2.2-.52Z"/>
            <g>
              <path class="cls-22" d="M33.54,49.35c-7.28.87-12.63.43-12.63.43,0,0-1.07-.33-2.38-.99-2.45-1.25-2.76-.46-2.76-.46l1.64,1.19-3.68-.51s-.51.48-.77.74c-.77.78.57,3.26,2.28,3.51,3.59.53,2.68.29,5.76.55,3.56.3,8.84,1.06,10.55,1.04,1.71-.03,1.98-5.48,1.98-5.48Z"/>
              <path class="cls-14" d="M40.01,30.28c2.73,1.05,3.67,8.34,3.53,12.82-.14,4.46-.8,8.78-2.03,11.07-1.12,2.1-11,2.1-11,2.1l-.28-6.46s5.87-.98,6.15-1.4c1.4-2.1,1.99-6.45,1.89-7.23-.1-.78,1.75-10.89,1.75-10.89Z"/>
            </g>
            <rect class="cls-12" x="23.18" y="41.11" width="7.1" height="5.52"/>
            <g>
              <path class="cls-1" d="M35.88,58.01c.17-.09.4-.27.71-.71.45-.63.11-1.02-.02-1.32-.13-.3-.23-.51-.19-.74.04-.23,4.64-12.49,4.73-12.78.09-.3.27-.5,1.06-.97.79-.46.64-1.03.57-1.39-.07-.39-.25-.78-.49-1.03-.1-.1-.26-.2-.26-.2,0,0,.06.64-.03.99-.13.48-.54.67-1.13.47-.66-.24-.72-.66-.53-1.12.14-.33.54-.75.54-.75,0,0-.18-.05-.18-.05-.23-.06-.73.16-1.21.55-.28.24-.77.63-.42,1.48.35.85.36,1.12.26,1.41-.1.29-4.13,12.72-4.23,12.93-.1.21-.34.34-.63.49-.29.16-.69.27-.7,1.05,0,.69.17,1.14.27,1.24.04.05.08.08.12.09.14.05-.15-.64.27-1.13.06-.07,1.01-.19,1.51.52.06.08-.29,1.07-.22,1.05.02,0,.11-.03.23-.11Z"/>
              <path class="cls-7" d="M40.29,39.22c.14-.33.54-.75.54-.75,0,0-.18-.05-.18-.05-.23-.06-.73.16-1.21.55-.28.24-.77.63-.42,1.48.35.85.36,1.12.26,1.41-.1.29-4.13,12.72-4.23,12.93-.1.21-.34.34-.63.49-.29.16-.69.27-.7,1.05,0,.69.17,1.14.27,1.24.04.05.08.08.12.09.14.05-.15-.64.27-1.13.04-.05.46-.11.89.05l5.69-16.23s-.08-.02-.13-.04c-.66-.24-.72-.66-.53-1.12Z"/>
            </g>
            <g>
              <path class="cls-22" d="M20.78,50.95c7.3-.73,12.43-2.32,12.43-2.32,0,0,.97-.55,2.1-1.49,2.12-1.75,2.59-1.05,2.59-1.05l-1.34,1.51,3.48-1.3s.6.36.91.55c.92.59.15,3.3-1.46,3.92-3.39,1.3-2.55.87-5.5,1.79-3.41,1.06-8.4,2.96-10.08,3.3-1.68.34-3.12-4.92-3.12-4.92Z"/>
              <path class="cls-20" d="M16.31,31.22c-2.73,1.05-3.67,8.34-3.53,12.82.14,4.46.8,8.78,2.03,11.07,1.12,2.1,11.02.78,11.02.78l.06-6.01s-5.67-.11-5.94-.53c-1.4-2.1-1.99-6.45-1.89-7.23.1-.78-1.75-10.89-1.75-10.89Z"/>
            </g>
          </g>
          <circle class="cls-5" cx="24.68" cy="20.36" r=".46"/>
          <circle class="cls-5" cx="29.18" cy="19.52" r=".46"/>
          <path class="cls-9" d="M26.45,22.62c.53.25.99.17,1.57.07-.1.1-.23.19-.36.25-.14.06-.29.08-.44.09-.3-.01-.63-.14-.76-.42Z"/>
          <path class="cls-11" d="M26.36,24.58c.6.02,1.11-.07,1.6-.25.49-.18.95-.47,1.47-.77-.12.28-.3.53-.52.74-.22.22-.49.38-.78.5-.3.1-.61.16-.93.12-.31-.03-.62-.13-.85-.33Z"/>
          <path class="cls-11" d="M25.38,18.88c-.44.17-.85.24-1.25.33-.41.08-.76.15-1.21.31.18-.46.67-.71,1.11-.8.45-.08.92-.06,1.35.16Z"/>
          <path class="cls-11" d="M30.27,17.98c-.44.17-.85.24-1.25.33-.41.08-.76.15-1.21.31.18-.46.67-.71,1.11-.8.45-.08.92-.06,1.35.16Z"/>
          <g>
            <path class="cls-6" d="M27.33,41.1h-.45v.5c-.18.03-.35.09-.51.17l-.25-.43-.39.23.25.43c-.15.11-.29.24-.41.38l-.41-.28-.25.38.42.28c-.17.32-.27.68-.27,1.06,0,.4.11.78.29,1.11l-.41.29.26.37.42-.29c.11.13.24.25.38.35l-.25.43.39.23.25-.43c.16.07.34.13.52.16l-.04.5.45.04.04-.5c.19,0,.38-.03.56-.08l.18.47.42-.17-.18-.46c.15-.08.3-.17.43-.28l.36.35.32-.32-.36-.35c.12-.15.22-.31.29-.48l.47.16.14-.43-.47-.16c.04-.16.06-.33.06-.5,0-.15-.02-.3-.04-.44l.48-.14-.13-.44-.48.14c-.08-.18-.17-.35-.29-.5l.36-.34-.31-.33-.36.34c-.13-.11-.28-.21-.43-.3l.19-.47-.42-.17-.18.47c-.19-.06-.39-.09-.6-.09v-.46ZM28.9,43.82c0,.88-.72,1.6-1.6,1.6s-1.6-.72-1.6-1.6.72-1.6,1.6-1.6,1.6.72,1.6,1.6"/>
            <path class="cls-17" d="M25.83,42.71s.05-.03.07-.05c.02-.03.03-.05,0-.07-.02-.01-.04,0-.08.01-.05.03-.1.04-.14,0-.05-.04-.05-.11,0-.17.03-.03.05-.05.07-.06l.04.06s-.04.02-.06.04c-.02.03-.02.05,0,.06.02.01.04,0,.08-.02.06-.03.1-.03.14,0,.04.04.05.11-.01.18-.03.03-.06.05-.08.06l-.04-.06Z"/>
            <polygon class="cls-17" points="26.1 42.47 26.09 42.18 26.09 42.18 25.97 42.27 25.93 42.22 26.13 42.06 26.16 42.1 26.17 42.39 26.17 42.39 26.31 42.29 26.35 42.34 26.13 42.51 26.1 42.47"/>
            <rect class="cls-17" x="26.39" y="41.93" width=".08" height=".35" transform="translate(-16.01 16.21) rotate(-26.5)"/>
            <polygon class="cls-17" points="26.58 41.84 26.66 41.82 26.74 42.09 26.88 42.05 26.89 42.12 26.68 42.18 26.58 41.84"/>
            <path class="cls-17" d="M27.06,41.74v.2c.02.06.04.09.08.09.04,0,.06-.03.06-.1v-.2s.06,0,.06,0v.2c.02.11-.03.16-.12.17-.09,0-.14-.04-.15-.15v-.2s.07,0,.07,0Z"/>
            <polygon class="cls-17" points="27.56 41.81 27.47 41.8 27.48 41.73 27.74 41.77 27.73 41.84 27.64 41.83 27.59 42.11 27.52 42.09 27.56 41.81"/>
            <polygon class="cls-17" points="28.06 42.1 27.94 42.05 27.91 42.13 28.04 42.18 28.02 42.24 27.81 42.16 27.94 41.83 28.14 41.91 28.12 41.97 27.99 41.92 27.96 41.99 28.08 42.04 28.06 42.1"/>
            <path class="cls-17" d="M28.36,42.44s-.05-.01-.08-.04c-.1-.07-.11-.17-.06-.25.07-.1.17-.11.26-.05.03.02.06.05.06.06l-.05.04s-.02-.03-.05-.05c-.05-.04-.11-.03-.16.03-.04.06-.03.12.03.16.02.01.04.02.06.03l-.02.06Z"/>
            <polygon class="cls-17" points="28.78 42.36 28.68 42.45 28.77 42.55 28.86 42.45 28.92 42.51 28.66 42.75 28.61 42.69 28.71 42.59 28.63 42.5 28.52 42.6 28.46 42.54 28.72 42.3 28.78 42.36"/>
            <path class="cls-6" d="M23.83,43.84c0-.24.19-.43.42-.44l.47-.12h.12v-.11h.52v.12h3.06v.12h.68v.13h.73v-.08h.29c.02-.07.08-.12.16-.12h.23c.06,0,.11.03.14.08,0,0,.01,0,.02,0,.23,0,.42.19.42.42s-.19.42-.42.42c0,0-.02,0-.03,0-.03.04-.08.07-.13.07h-.23c-.08,0-.14-.05-.16-.12h-.29v-.08h-.73v.14h-.68v.12h-3.06v.12h-.52v-.11h-.12l-.47-.12c-.24,0-.42-.2-.42-.44"/>
            <polygon class="cls-6" points="28.28 44.25 28.28 44.13 28.28 43.56 28.28 43.43 25.22 43.43 25.22 44.25 28.28 44.25"/>
            <polygon class="cls-21" points="25.22 44.25 25.22 43.43 25.22 43.31 24.98 43.31 24.98 43.42 24.98 44.26 24.98 44.37 25.22 44.37 25.22 44.25"/>
            <path class="cls-21" d="M24.74,43.42l-.46.12c-.17,0-.3.14-.3.3s.14.3.3.3l.46.12v-.83ZM24.27,44.01c-.09,0-.17-.08-.17-.17s.08-.17.17-.17.17.08.17.17-.08.17-.17.17"/>
            <polygon class="cls-6" points="24.98 43.42 24.86 43.42 24.74 43.42 24.74 44.26 24.86 44.26 24.98 44.26 24.98 43.42"/>
            <polygon class="cls-21" points="29 43.99 29 43.69 29 43.56 28.48 43.56 28.28 43.56 28.28 44.13 28.48 44.13 29 44.13 29 43.99"/>
            <path class="cls-21" d="M30.68,43.68c.09,0,.16.07.16.16s-.07.16-.16.16-.16-.07-.16-.16v.23s.1.05.16.05c.15,0,.28-.12.28-.28s-.12-.28-.28-.28c-.06,0-.11.02-.16.05v.23c0-.09.07-.16.16-.16"/>
            <polygon class="cls-21" points="29.98 44.07 30.26 44.07 30.26 43.61 29.98 43.61 29.98 43.69 29.98 43.99 29.98 44.07"/>
            <path class="cls-6" d="M30.54,44.16v-.66s-.01-.02-.02-.02h-.23s-.02.01-.02.02v.1h0v.46h0v.09s.01.02.02.02h.23s.02-.01.02-.02"/>
            <rect class="cls-8" x="30.26" y="43.61" width="0" height=".46"/>
            <polygon class="cls-21" points="29.91 43.69 29.78 43.69 29.23 43.69 29.11 43.69 29.11 43.99 29.23 43.99 29.78 43.99 29.91 43.99 29.91 43.69"/>
            <path class="cls-17" d="M26.11,45.57l-.06-.04.02-.08-.1-.08-.07.04-.06-.04.3-.18.06.04-.1.34ZM26.09,45.39l.04-.12-.11.07.07.05Z"/>
            <path class="cls-17" d="M26.41,45.59l.02-.05.13.06-.06.12s-.04,0-.07,0c-.03,0-.05,0-.08-.02-.03-.02-.05-.03-.07-.06-.02-.02-.02-.05-.02-.08,0-.03,0-.06.02-.09.02-.03.03-.05.06-.07.02-.02.05-.03.08-.03.02,0,.05,0,.08.02.04.02.06.04.07.07.01.03.02.05,0,.08l-.06-.02s0-.03,0-.05c0-.01-.02-.03-.04-.03-.03-.01-.05-.01-.07,0-.02,0-.04.03-.06.06-.02.04-.02.07-.02.09,0,.03.02.04.05.06.01,0,.03,0,.04.01.01,0,.03,0,.04,0l.02-.04-.07-.03Z"/>
            <path class="cls-17" d="M26.63,45.81l.08-.32.14.03s.06.02.07.03c.01,0,.02.02.03.04,0,.02,0,.03,0,.05,0,.02-.02.04-.04.05-.02.01-.04.02-.07.01.01.01.02.02.03.04,0,.01.01.03.02.06l.02.07-.08-.02-.03-.08s-.02-.05-.02-.06c0,0,0-.01-.02-.02,0,0-.02,0-.03-.01h-.01s-.03.13-.03.13l-.06-.02ZM26.74,45.65h.05s.05.02.06.02c0,0,.02,0,.02,0,0,0,.01-.01.01-.02,0-.01,0-.02,0-.03,0,0-.01-.01-.02-.02,0,0-.02,0-.05-.01h-.05s-.02.07-.02.07Z"/>
            <path class="cls-17" d="M27.03,45.74s0-.06.02-.08c0-.02.02-.03.03-.04.01-.01.03-.02.04-.03.02,0,.04-.01.07,0,.05,0,.09.02.11.05.03.03.04.07.04.13,0,.05-.02.09-.05.12-.03.03-.07.04-.12.04-.05,0-.09-.02-.11-.05-.03-.03-.04-.07-.04-.13M27.1,45.74s0,.07.02.09c.02.02.04.03.06.03.03,0,.05,0,.07-.03.02-.02.03-.05.03-.08,0-.04,0-.07-.02-.09-.02-.02-.04-.03-.06-.03-.03,0-.05,0-.07.02-.02.02-.03.05-.03.08"/>
            <polygon class="cls-17" points="27.67 45.88 27.59 45.56 27.66 45.55 27.69 45.69 27.79 45.52 27.87 45.5 27.78 45.65 27.96 45.81 27.88 45.83 27.75 45.71 27.71 45.77 27.74 45.87 27.67 45.88"/>
            <polygon class="cls-17" points="28.07 45.77 27.94 45.47 28.14 45.38 28.16 45.43 28.02 45.49 28.05 45.56 28.18 45.51 28.2 45.56 28.07 45.61 28.13 45.74 28.07 45.77"/>
            <polygon class="cls-17" points="28.46 45.57 28.3 45.34 28.22 45.4 28.19 45.35 28.41 45.2 28.44 45.25 28.36 45.3 28.51 45.53 28.46 45.57"/>
            <rect class="cls-17" x="28.61" y="45.36" width=".06" height=".06" transform="translate(-22.43 28.88) rotate(-39.83)"/>
            <rect class="cls-12" x="23.61" y="41" width="7.7" height="5.68"/>
          </g>
        </g>
      </g>
    </g>
  </g>
</svg>