<?xml version="1.0" encoding="UTF-8"?>
<svg xmlns="http://www.w3.org/2000/svg" xmlns:xlink="http://www.w3.org/1999/xlink" viewBox="0 0 40.63 103.55">
  <defs>
    <style>
      .cls-1 {
        fill: #758b9b;
      }

      .cls-1, .cls-2, .cls-3, .cls-4, .cls-5, .cls-6, .cls-7, .cls-8, .cls-9, .cls-10, .cls-11, .cls-12, .cls-13, .cls-14, .cls-15, .cls-16, .cls-17 {
        stroke-width: 0px;
      }

      .cls-2 {
        fill: #ffd97b;
      }

      .cls-3 {
        fill: url(#linear-gradient);
      }

      .cls-4 {
        fill: #424f5c;
      }

      .cls-18 {
        isolation: isolate;
      }

      .cls-5 {
        fill: #66271a;
      }

      .cls-6 {
        fill: #30130d;
      }

      .cls-7 {
        fill: #589c48;
      }

      .cls-8 {
        fill: #ffc742;
      }

      .cls-9 {
        fill: #010101;
      }

      .cls-10 {
        fill: #ffca35;
      }

      .cls-11 {
        fill: #ddac9e;
      }

      .cls-12 {
        fill: #6bbe59;
      }

      .cls-13 {
        fill: url(#linear-gradient-2);
      }

      .cls-13, .cls-19 {
        mix-blend-mode: multiply;
      }

      .cls-14 {
        fill: #e9c9bb;
      }

      .cls-15 {
        fill: #d8d9d8;
      }

      .cls-16 {
        fill: #232121;
      }

      .cls-17 {
        fill: #bfb9b9;
      }
    </style>
    <linearGradient id="linear-gradient" x1="62.11" y1="45.98" x2="68.4" y2="45.98" gradientTransform="translate(-33.62 -32.3) rotate(6.29)" gradientUnits="userSpaceOnUse">
      <stop offset="0" stop-color="#fff"/>
      <stop offset=".64" stop-color="#c6c0b9"/>
    </linearGradient>
    <linearGradient id="linear-gradient-2" x1="15.12" y1="55.02" x2="29.02" y2="20.11" gradientUnits="userSpaceOnUse">
      <stop offset=".12" stop-color="#fff"/>
      <stop offset=".22" stop-color="#fafafa"/>
      <stop offset=".33" stop-color="#eee"/>
      <stop offset=".44" stop-color="#d9d9d9"/>
      <stop offset=".55" stop-color="#bcbcbc"/>
      <stop offset=".66" stop-color="#969696"/>
      <stop offset=".77" stop-color="#686868"/>
      <stop offset=".78" stop-color="#656565"/>
    </linearGradient>
  </defs>
  <g class="cls-18">
    <g id="Layer_2" data-name="Layer 2">
      <g id="Réteg_1" data-name="Réteg 1">
        <g>
          <path class="cls-11" d="M9.72,13.43c.61.85,2.37,11.4,2.37,11.4,0,0-2.83.64-3.56,1.03-.73.39-1.12-10.54-1.12-10.54l2.32-1.89Z"/>
          <path class="cls-8" d="M10.56,14.9c.03-.48-.34-3.2-.33-3.87,0-.67.12-1.33.02-1.99-.09-.66-1.06-2.81-1.49-3.07-.49-.29-.72.26-.39,1.21.27.77.26,1.2.26,1.2,0,0-2.94.79-3.26,1.3-.31.52-1.87.31-.87,1.41,1.01,1.11,2.23,2.39,2.47,3.5.25,1.11-.61,1.55-.12,1.68.49.12,3.7-1.37,3.7-1.37Z"/>
          <path class="cls-17" d="M20.04,21.75c-1.2.06-7.54,1.64-7.54,1.64l-.82-2.6-4.8.89s.98,6.23,1.85,7.06c.88.83,10.88,1.96,11.16,1.21.27-.74.15-8.2.15-8.2Z"/>
          <g>
            <path class="cls-11" d="M24.31,16.67l-1.34,5.75s.14,7.25,1.82,8.14c1.69.9,4.09-3.48,4.23-4.71.13-1.24.71-8.05.71-8.05l-5.41-1.13Z"/>
            <path class="cls-14" d="M28.95,26.38c.13-1.23.71-8.05.71-8.05l-2.83-1.11-3.84,12.96c1.69.84,5.83-2.58,5.96-3.8Z"/>
          </g>
          <g class="cls-19">
            <path class="cls-3" d="M23.85,15.55c-.26-1.11,4.45,2.27,5.69,3.44l-6.31,6.22c-.82-.41-.07-3.09-.32-3.49.54-.64,1.4-4.22.93-6.16Z"/>
          </g>
          <g>
            <g>
              <path class="cls-14" d="M32.41,15.38c.98-2.36,1.37-4.54-2-5.98-4.21-1.8-5.25.56-6.31,3.38-1.1,2.92-.8,7.09,1.32,8.06,1.62.73,3.75-.43,5.24-2.28.55-.05,1.14-.49,1.49-1.19.46-.9.83-1.64.25-1.98Z"/>
              <path class="cls-11" d="M29.13,9.1c-2.25-.54-3.78.3-4.64,2.55-.06-.03.07.26,0,.23-.68-.24-.95.51-1.25,1.59-.23.87-.23,1.64.26,2.01-.3,2.3.34,4.61,1.91,5.31.07.03.14.05.22.08,0,0-1.19-1.31,3.49-11.78Z"/>
              <path class="cls-6" d="M30.68,8.23c-.42-.54-3.08-.67-4.07-.31-.87.31-1.24.95-1.82,2.17-.59,1.21-.52,1.78-.52,1.78l.22.13.25-.78s.42-1.03,1.83-1.48c1.4-.45,3.09,1,3.09,1l1.02-2.52Z"/>
              <path class="cls-5" d="M29.11,10.38c.19.65-.1.51,1.04.92,1.13.41,1.89,1.55,1.96,2.15.07.6-.36,1.78-.36,1.78l.76.22.32.4s1.33-1.86,1.21-3.61c-.09-1.32-.28-1.87-1.45-2.82-.53-.43-1.33-1.8-2.23-1.1-.43.33-1.24,2.06-1.24,2.06Z"/>
            </g>
            <g>
              <path class="cls-10" d="M33.43,8.29c-1.17-1.03-3.88-2.64-6.06-1.62-2.18,1.02-2.91,4.11-2.91,4.11,2.08-1.4,7.61.53,8.81,4.46,1.51-2.93,1.33-5.91.17-6.94ZM27.88,9.1s.67-.98,2.13-.64c1.68.4,1.43,2.2,1.43,2.2l-3.55-1.57Z"/>
              <path class="cls-2" d="M33.67,8.45c-.46-.46-1.18-.96-2.19-1.42-.58.5-.92.77-1.37,1.47,1.39.5,1.26,2.12,1.26,2.12l-1.97-.86c-.11.24-.44.85-.5,1.11,2.1.96,3.69,2.58,4.35,4.41,1.51-2.92,1.55-5.71.43-6.83Z"/>
            </g>
          </g>
          <path class="cls-16" d="M36.64,103.55l2.41-.06s2.8-.67.95-3.25c-1.38-1.93-1.16-2.65-1.91-4.15-.45-.91-3.8-.35-3.8-.35,0,0,.44,2.91.16,3.88-1.21,4.25,2.19,3.92,2.19,3.92Z"/>
          <path class="cls-12" d="M27.8,44.4c1.74,2.45,3.51,6.38,5.38,15.72.64,3.23,1.77,10.11,2.44,12.73,2.34,9.13,3.57,24.88,3.57,24.88l-4.98.08s-6.38-22.51-6.8-24.15c-.41-1.65-5.82-13.38-5.82-13.38,0,0-1.35,13.86-.52,15.51.82,1.65,1.43,20.68,1.43,20.68l-5.25-.03s-1.81-19.08-2.22-23.2c-.41-4.12-.72-27.53-.72-27.53l13.5-1.29Z"/>
          <path class="cls-9" d="M18.35,95.56c-.4,1.62-2.08,3-3.3,3.4-1.22.41-2.71,1.21-2.31,2.83.4,1.62,3.59.9,3.59.9,0,0,3.98-1.29,5.19-1.29s1.22-3.37.81-4.99c-.4-1.62-3.99-.84-3.99-.84Z"/>
          <path class="cls-7" d="M13,54.77c-.11,7.52.32,17.07.45,19.41,1.15,20.02,3.37,23.18,3.37,23.18l6.44-.1s.33-15.94-.42-19.94c-.71-3.74,0-10.45,0-10.45,0,0,3.6,9.33,4.01,10.97.53,2.11,5.46,19.73,6.96,20.36l4.11-.26c-.31-3.12-4.13-18.14-5.57-24.55-.84-3.75-5.55-21.02-7.21-26.92l-11.43-1.91s-.63,4.42-.71,10.21Z"/>
          <path class="cls-17" d="M24.65,25.08c-1.37-.82-1.86-1.6-1.6-3.8,0,0-.41.05-4.25.67-1.26.2-3.43,2.23-3.77,3.57-.34,1.34,2.41,5.08,2.5,6.64.09,1.55-2.76,11.82-1.65,13.8.75,1.33,2.11-.39,7.23.42.79-5.59,2.13-16.16,2.26-19.23,0-.23-.03-1.66-.73-2.07Z"/>
          <path class="cls-15" d="M29.84,22.09s2.27.9,4.92,2.61c1.25.8.72,3.86-.74,6.41-.69,1.2-3.28,5.6-3.8,7.07-.87,2.49-2.51,3.15-2.74,6.47-.1,1.52-5.01.99-7.87.61.79-5.59,3.47-19.99,4.85-20.22,4.09-.7,5.37-2.94,5.37-2.94Z"/>
          <path class="cls-17" d="M29.61,20.8l1.44,1.45-3.6,4.29s-1.72-2.34-1.57-2.42c2.56-1.41,3.73-3.31,3.73-3.31Z"/>
          <path class="cls-15" d="M23.37,20.6l-1.42.87-.75,3.22s1.86-1.61,1.85-1.78c-.07-1.73.32-2.31.32-2.31Z"/>
          <path class="cls-7" d="M20.9,21.63c-.55,1.45-1.78,6.87-1.32,7.27,1.14,1.01,8.71,1.5,8.71,1.5l-3.25,17.97s-10.97-.78-11.26-1.2c-.7-1.03-.4-3.41-.2-4.74.19-1.33,2.37-12.21,2.37-12.21,0,0,1.21-3.64,2.83-8.29,1.48-.53,2.13-.31,2.13-.31Z"/>
          <path class="cls-12" d="M31.69,22.98s-2.81,2.74-4.32,6.51c-.22.56-1.4.74-1.4.74,0,0-3.76,11.53-1.02,17.44.47,1.02,2.49-.4,2.49-.4,0,0,1.95-.98,3.06-4.42.45-1.4.05-4.68,2.48-9.82.29-.61-2.47-2.33-2.53-3-.33-3.29,3.16-6.32,3.16-6.32l-1.91-.74Z"/>
          <g>
            <path class="cls-1" d="M2.94,27.37c.25-.12.59-.35,1.07-.93.7-.85.26-1.44.09-1.88-.16-.43-.28-.75-.2-1.07.08-.32,7.77-17.28,7.93-17.7.15-.41.43-.69,1.59-1.27,1.16-.58,1-1.4.94-1.92-.07-.56-.28-1.13-.6-1.51-.13-.16-.35-.3-.35-.3,0,0,.03.92-.14,1.4-.22.66-.84.9-1.65.56-.91-.41-.96-1-.65-1.64.22-.46.83-1.01.83-1.01,0,0-.25-.09-.25-.09-.32-.1-1.05.15-1.77.67-.42.31-1.16.82-.74,2.06.42,1.24.41,1.63.23,2.03-.18.41-7.07,17.66-7.24,17.95-.17.29-.52.45-.94.64-.43.2-1.01.32-1.1,1.43-.08.99.14,1.63.27,1.79.05.07.1.12.16.15.2.08-.15-.92.49-1.58.09-.09,1.45-.18,2.09.88.07.12-.52,1.49-.42,1.47.04,0,.16-.04.33-.13Z"/>
            <path class="cls-4" d="M10.98,1.12c.22-.46.83-1.01.83-1.01,0,0-.25-.09-.25-.09-.32-.1-1.05.15-1.77.67-.42.31-1.16.82-.74,2.06.42,1.24.41,1.63.23,2.03-.18.41-7.07,17.66-7.24,17.95-.17.29-.52.45-.94.64-.43.2-1.01.32-1.1,1.43-.08.99.14,1.63.27,1.79.05.07.1.12.16.15.2.08-.15-.92.49-1.58.06-.06.67-.11,1.26.16L11.81,2.82c-.06-.02-.12-.03-.18-.06-.91-.41-.96-1-.65-1.64Z"/>
          </g>
          <g>
            <path class="cls-2" d="M3.97,10.73c.8.52,2.24,1.16,2.5.7.25-.45-1.23-1.4-1.49-1.78-.26-.38-.64-.85-1.07-.17-.43.69.06,1.25.06,1.25Z"/>
            <path class="cls-2" d="M4.48,8.99c-.18-.37.24-1.13.75-.81.51.32,2.19,2.29,2.14,2.52-.05.24-.71.27-1.65-.31-1.03-.63-1.25-1.41-1.25-1.41Z"/>
            <path class="cls-2" d="M5.12,8.08c.03-.32.26-1.2.98-.7.59.41,2.23,2.54,2.28,2.69.06.15-.57.43-1.23-.11-.66-.54-2.04-1.87-2.04-1.87Z"/>
            <path class="cls-2" d="M6.09,7.2c-.06-.32.55-1.15,1.14-.68.28.22,1.88,2.58,1.74,2.95-.15.37-.45.3-.86-.02-.41-.32-2.01-2.25-2.01-2.25Z"/>
          </g>
          <path class="cls-13" d="M34.2,30.11l-14.81,21.38h-6.31s.64-15.26,3.29-22.66c7.68,1.37,17.82,1.28,17.82,1.28Z"/>
          <g>
            <path class="cls-14" d="M17.19,25.61c-4.57-3.71-8.11-6.42-8.11-6.42,0,0-.41-.8-.75-1.92-.65-2.11-1.27-1.85-1.27-1.85l.23,1.61-2.61-2.49s-1-.57-1.29-.57c-.88,0-1.81.5-.96,2.52,1.12,2.69,2.84,3.09,4.41,5.01,1.82,2.22,5.11,4.92,6.08,5.89.98.97,4.29-1.77,4.29-1.77Z"/>
            <g>
              <path class="cls-2" d="M11.1,20.21c0-.12-2.28-1.68-2.25-1.89.32-1.91-.39-2.54-.12-3.66.21-.89-.34-2.36-1.07-.42-.34.9-.67.61-.67.61,0,0-.36.17-1.81-1.42-.72-.8-2.17-1.27-1.38.08-.68-.88-1.66-.53-1,.64-.61-.55-1.08-.07-.54.92-.36-.28-.52.07-.29.69.15.41.01,1.15,1.56,2.75,1.54,1.6,3.54,5.52,3.54,5.52l4.02-3.82Z"/>
              <path class="cls-8" d="M3.47,18.62c-1.27-1.4-1.61-2.55-1.78-2.95-.26-.62.2-.88.55-.61-.42-.77-.19-1.41.36-1.05.88,2.36,4.73,6.47,6.57,8.05l-2.1,1.98s-2.12-3.77-3.61-5.41Z"/>
            </g>
            <path class="cls-15" d="M33.56,24.9c-1.93-.21-6.79,2.07-10.78,1.28-2.94-.58-10.46-4.75-10.46-4.75l-2.38,5.32s8.69,5.28,11.56,5.37c2.87.09,10.68,1.1,12.52-1.55,3.29-4.75-.46-5.67-.46-5.67Z"/>
          </g>
        </g>
      </g>
    </g>
  </g>
</svg>