<?xml version="1.0" encoding="UTF-8"?>
<svg xmlns="http://www.w3.org/2000/svg" xmlns:xlink="http://www.w3.org/1999/xlink" viewBox="0 0 138.32 44.65">
  <defs>
    <style>
      .cls-1 {
        fill: #758b9b;
      }

      .cls-1, .cls-2, .cls-3, .cls-4, .cls-5, .cls-6, .cls-7, .cls-8, .cls-9, .cls-10, .cls-11, .cls-12, .cls-13, .cls-14, .cls-15, .cls-16, .cls-17, .cls-18 {
        stroke-width: 0px;
      }

      .cls-2, .cls-15 {
        fill: #ffd97b;
      }

      .cls-3 {
        fill: #000;
      }

      .cls-4 {
        fill: #333;
      }

      .cls-5 {
        fill: #424f5c;
      }

      .cls-19 {
        isolation: isolate;
      }

      .cls-6 {
        fill: #30130d;
      }

      .cls-7 {
        fill: #589c48;
      }

      .cls-8 {
        fill: #010101;
      }

      .cls-9, .cls-16 {
        fill: #ffca35;
      }

      .cls-10 {
        fill: #ddac9e;
      }

      .cls-11 {
        fill: url(#linear-gradient);
        mix-blend-mode: multiply;
      }

      .cls-12 {
        fill: #6cbf5a;
      }

      .cls-13 {
        fill: #222;
      }

      .cls-14 {
        fill: #e9c9bb;
      }

      .cls-15, .cls-16 {
        fill-rule: evenodd;
      }

      .cls-17 {
        fill: #d8d9d8;
      }

      .cls-18 {
        fill: #232121;
      }
    </style>
    <linearGradient id="linear-gradient" x1="224.21" y1="-950.38" x2="237.28" y2="-998.24" gradientTransform="translate(-898.51 -100.44) rotate(84.13)" gradientUnits="userSpaceOnUse">
      <stop offset=".12" stop-color="#fff"/>
      <stop offset=".22" stop-color="#fafafa"/>
      <stop offset=".33" stop-color="#eee"/>
      <stop offset=".44" stop-color="#d9d9d9"/>
      <stop offset=".55" stop-color="#bcbcbc"/>
      <stop offset=".66" stop-color="#969696"/>
      <stop offset=".77" stop-color="#686868"/>
      <stop offset=".78" stop-color="#656565"/>
    </linearGradient>
  </defs>
  <g class="cls-19">
    <g id="Layer_2" data-name="Layer 2">
      <g id="Réteg_1" data-name="Réteg 1">
        <g>
          <path class="cls-16" d="M48.65,5.2c-5.43,10.19-5.09,14.97,3.36,22.64l56.8.52c-8.27-8.35-38.81-17.25-60.16-23.16Z"/>
          <path class="cls-16" d="M47.82,11.78c8.5,10.14,23.27,20.06,17.78,30.81l45.64-11.21c-17.16-6.69-46.27-12.91-63.43-19.6Z"/>
          <g>
            <path class="cls-17" d="M100.44,29.86s.51,2.56,2.08,3.86c2.28,1.89,7.6,5.03,10.79,5.38,4.37.48,5.9.55,13.63-1.39.99-.25,1.4-5.78,1.4-5.78,0,0-11.64.67-12.88.25-1.23-.42-9.13-5.87-10.91-6.2-2.1-.39-4.68.91-4.1,3.88Z"/>
            <path class="cls-13" d="M126.47,31.76c.08-.1,2.96-.08,3.06-.28.87-1.83.94-1.83,1.95-2.49.75-.49,2.09-1.23,2.13-.8s-.56,1.17-.56,1.17c0,0-1.12.95,1.08.44,1.1-.25,2.62.21,1.14.9,1.11-.35,1.18.71.48,1.15.38.1.45,1.15-.09,1.11.47-.02.41.37-.16.77-.37.26.77.64-1.52,1.1-2.28.46-6.34,2.63-6.34,2.63l-1.18-5.69Z"/>
          </g>
          <g>
            <g>
              <path class="cls-10" d="M112.15,20.92c-.98,1.04-1.95,2.56-4.04,3.19l-2.09.64,3.7,6.34s2.17-2.41,3.8-2.59c1.63-.17-1.36-7.58-1.36-7.58Z"/>
              <path class="cls-10" d="M125.65,20.93c.77-3.95-5.69-10.85-9.99-6.48-7.85,7.94-3.16,13.21-3.16,13.21,1.9,1.33,2.22,1.89,3.97,2.35.86.22,1.98-.4,3.31-1.38.68.3,1.37.78,1.61.31.11-.79.78-1.93.95-2.45,1.74-1.8,2.97-3.69,3.32-5.56Z"/>
              <path class="cls-14" d="M114.04,28.86c1.09.92,1.34,1.1,2.36,1.19.88.09,1.97-.4,3.31-1.38.68.31,1.37.78,1.62.32.11-.8.78-1.94.94-2.45,1.73-1.8,3.44-2.92,3.79-4.78.04-.2-.41-1.18-.41-1.39l-3.34-1.53c-5.2,3.46-8.51,6.55-8.61,9.08l-5.3,1.28-.07,3.91s4.35-3.44,5.72-4.24Z"/>
              <path class="cls-6" d="M118.17,12.33c1.29-.36,2.87-.62,5.04,1.33,2.11,1.88,3.25,3.42,3.35,6.1.06,1.36-1.17,1.86-1.17,1.86,0,0-.71-1.88-1.34-2.19-.63-.31-.47,1.2-1.97,1.55-1.27.3-3.01.73-3.01.73,0,0-2.87-1.11-3.53-.44-.67.68-4.27.47-4.27.47,0,0-.31-2.42,1.38-5.44,2.51-4.49,5.2-3.86,5.51-3.96Z"/>
              <path class="cls-10" d="M117.76,21.59c-.15-.61-.19-2.07-.98-1.92-.79.16-2.11,1.92-1.62,3.23.48,1.3,2.6-1.32,2.6-1.32Z"/>
            </g>
            <g>
              <path class="cls-9" d="M125.81,23.3c-1.05-.41-8.71-4.54-8.71-4.54,0,0-3.82,1.81-5.59,1.37-1.77-.43-5.88-2.11-4.6-2.72,1.99-.51,4.57-1.28,4.57-1.28,0,0,1.58-3.8,4.37-4.59,1.73-.48,4.33.15,5.48.71,2.06.99,4.45,2.56,5,5.09.68,3.09-.53,5.95-.53,5.95Z"/>
              <path class="cls-2" d="M126.76,17.72c.65,3.1-.89,5.62-.89,5.62-.89-.34-5.68-2.82-7.04-3.66,1.32-2.12,2.61-5.58,2.02-7.63.1.04.37.11.46.15,1.18.5,4.82,2.42,5.46,5.51Z"/>
            </g>
          </g>
          <path class="cls-17" d="M108.85,23.75c-1.93-.51-5.76-3.2-10.85-2.26-3.67.68-12.83,3.93-17.27,6.12-2.36,1.17-2.27,1.51-2.27,1.51l-.18,13.14s14.84-.4,21.08-3.38c4.73-2.26,9.1-6.23,8.78-7.35-.33-1.12.7-7.78.7-7.78Z"/>
          <path class="cls-8" d="M21.89,38.51c-1.64-.43-2.82-1.74-4.48-3.15-1.66-1.4-2.71-2.74-4.35-1.23-1.63,1.51-6.23,8.14-6.23,8.14,0,0-1.64,4.11,2.51,1.5,3.22-2.03,6.24-3.09,9.45-.53.63.5,3.09-4.74,3.09-4.74Z"/>
          <path class="cls-7" d="M76.23,43.08c-7.95.62-27.6,1.18-28.75,1.16-10.76-.19-31.65-.45-31.65-.45l-.69-6.76s24.35-3.74,32.21-2.16c2.39.48,21.19-4.91,21.19-4.91l7.69,13.12Z"/>
          <path class="cls-18" d="M13.93,30.57c-1.52-.97-3.26-2.92-5.73-3.49-.86-.2-1.87,1.04-2.7,2.05-.35.42-2.27,1.51-3,2.2C-.15,33.83-.04,35.72.02,36.46c.06.75.83,1.34,2.8.61,1.69-.63,3.13-2.01,4.4-1.95,1.27.06,4.42,1.9,4.42,1.9l2.3-6.46Z"/>
          <path class="cls-12" d="M77.81,42.67c-11.11,1.69-17.79-.02-33.35-.78-5.5-.27-33.14-5-33.14-5l-.27-7.77s13.2-1.65,34.56.91c1.51.18,10.4-.84,20.53-2.66,5.99-1.07,12.72.87,12.72.87l-1.05,14.42Z"/>
          <path class="cls-12" d="M93.32,25.72c-1.62.59,1.25.4,1.37.34,2.97-1.49,10.02-3.06,11.16-.47,1.22,2.77-3.4,9.27-10.17,10.14-.85.74,1.03,1.78,1.03,1.78,0,0,9.87-3.12,10.3-9.7.35-5.2-6.21-6.33-14.96-3.3l1.26,1.21Z"/>
          <path class="cls-12" d="M74.14,43c9.58,1.05,24.91-2.71,26.4-3.85-1.98-1.1-1.57-4.2-1.57-4.2-4.03.79-10.19-2.74-3.67-9.11-17.43,4.42-17.38,4.68-24.9,4.89-6.34.18,3.73,12.27,3.73,12.27Z"/>
          <path class="cls-11" d="M99.88,38.62l-33.92-11.58s9.65-.1,12.9,1.2c8.4-3.54,16.24-6.32,17.66-6.47,1.06-.11,7.85,2.66,7.85,2.66l-4.49,14.19Z"/>
          <path class="cls-6" d="M116.97,26.78c.09.42.21.75.41,1.06.18.32.46.57.73.91-.22-.03-.42-.11-.6-.23-.18-.12-.33-.29-.47-.46-.22-.38-.32-.89-.08-1.27Z"/>
          <circle class="cls-3" cx="121.01" cy="25.56" r=".48"/>
          <path class="cls-6" d="M122.98,25.19c-.45-.19-.8-.44-1.16-.66-.36-.23-.68-.44-1.13-.63.46-.21,1-.04,1.39.21.4.26.73.62.89,1.08Z"/>
          <path class="cls-15" d="M108.56,23.44c-18.3-7.67-32.23-14.39-50.55-22.03-11.89-4.96-27.78,4.01-34.24,14.66,27.23,4.61,46.79,1.5,74.02,6.12,3.19.16,9.62,3.65,10.76,1.26Z"/>
          <g>
            <path class="cls-1" d="M131.16,41.88c.17-.1.41-.28.73-.73.47-.65.12-1.06-.02-1.37-.14-.31-.24-.53-.19-.77.04-.24,4.8-12.93,4.9-13.23.09-.31.28-.52,1.1-1,.82-.48.66-1.07.59-1.44-.08-.4-.26-.81-.51-1.06-.11-.11-.27-.2-.27-.2,0,0,.06.67-.03,1.03-.13.49-.56.69-1.17.48-.68-.25-.74-.68-.55-1.16.14-.35.56-.77.56-.77,0,0-.18-.05-.19-.05-.24-.06-.76.16-1.25.57-.29.25-.8.65-.43,1.53.37.88.38,1.16.27,1.46-.11.3-4.28,13.17-4.38,13.39-.11.22-.35.35-.65.51-.3.16-.72.28-.73,1.09,0,.72.18,1.18.28,1.29.04.05.08.08.12.1.15.05-.16-.66.28-1.17.06-.07,1.04-.2,1.56.54.06.08-.3,1.1-.23,1.09.03,0,.11-.04.24-.11Z"/>
            <path class="cls-5" d="M135.72,22.43c.14-.35.56-.77.56-.77,0,0-.18-.05-.19-.05-.24-.06-.76.16-1.25.57-.29.25-.8.65-.43,1.53.37.88.38,1.16.27,1.46-.11.3-4.28,13.17-4.38,13.39-.11.22-.35.35-.65.51-.3.16-.72.28-.73,1.09,0,.72.18,1.18.28,1.29.04.05.08.08.12.1.15.05-.16-.66.28-1.17.04-.05.48-.11.93.05l5.89-16.8s-.09-.02-.13-.04c-.68-.25-.74-.68-.55-1.16Z"/>
          </g>
          <g>
            <path class="cls-17" d="M105.62,24.91s-1.14-2.34-2.99-3.21c-2.69-1.25-8.62-2.95-11.8-2.48-4.34.64-5.85.96-12.83,4.79-.9.49.11,5.95.11,5.95,0,0,11.1-3.59,12.4-3.5,1.3.09,10.32,3.37,12.13,3.24,2.13-.15,4.3-2.06,2.99-4.79Z"/>
            <g>
              <path class="cls-13" d="M79.96,29.66c-.05.11-2.85.83-2.89,1.04-.38,1.99-.45,2.01-1.26,2.9-.6.66-1.28.49-1.42.1s0,0,0,0c0,0,.65-1.25-1.35-.2-1,.52-2.59.46-1.33-.58-.98.62-1.83-.08-.75-.99-.8.32-1.09-.31-.2-1.09-.45.14-.49-.25-.04-.79.3-.34-.9-.42,1.19-1.44,2.09-1.02,5.47-4.15,5.47-4.15l2.58,5.21Z"/>
              <path class="cls-13" d="M71.88,28.48c-1.75.92-1.17,1.23-1.48,1.56-.48.51-.12.94.32.8-.69.6-.7,1.31-.03,1.17,1.72-2,5.65-3.96,8.02-4.85l-1.35-2.7s-3.44,2.94-5.5,4.02Z"/>
            </g>
          </g>
          <path class="cls-4" d="M136.08,28.97c.75.29.74,1.09.11,1.4.49.4.32,1.28-.3,1.46.46.29.41,1.44-.15,1.69.08.52-.57,1.15-1.12,1.27-.76.17-1.6.14-1.9-.39-.31-.55,1.36-.78,1.36-.78,0,0-1.08.23-1.55-.27,0,0-.25-.54.27-.75.53-.22,1.6-.53,1.6-.53,0,0-1.7.32-1.79.08-.15-.44-.49-.88,2.14-1.46-1.96.36-1.92.09-2.07-.42-.15-.52,3.4-1.3,3.4-1.3Z"/>
        </g>
      </g>
    </g>
  </g>
</svg>