<?xml version="1.0" encoding="UTF-8" standalone="no"?>
<svg
   xmlns:dc="http://purl.org/dc/elements/1.1/"
   xmlns:cc="http://creativecommons.org/ns#"
   xmlns:rdf="http://www.w3.org/1999/02/22-rdf-syntax-ns#"
   xmlns:svg="http://www.w3.org/2000/svg"
   xmlns="http://www.w3.org/2000/svg"
   xml:space="preserve"
   viewBox="30 0 150.30627 104.8919"
   height="104.8919"
   width="150.30627"
   y="0px"
   x="0px"
   id="Rg_1"
   version="1.1"><metadata
   id="metadata23"><rdf:RDF><cc:Work
       rdf:about=""><dc:format>image/svg+xml</dc:format><dc:type
         rdf:resource="http://purl.org/dc/dcmitype/StillImage" /><dc:title></dc:title></cc:Work></rdf:RDF></metadata><defs
   id="defs21" />
<style
   id="style2"
   type="text/css">
	.st0{fill-rule:evenodd;clip-rule:evenodd;fill:#312683;}
	.st1{fill-rule:evenodd;clip-rule:evenodd;fill:#A0C410;}
</style>

<g
   id="g84"
   transform="matrix(1.021866,0,0,1.021866,30,-0.00264817)"><path
     style="clip-rule:evenodd;fill:#312683;fill-rule:evenodd"
     id="path4-3"
     d="m 20.8,36.34 v 0.92 c -3.11,0 -4.81,0.42 -4.81,5.59 v 36.36 c 0,4.81 1.27,6.01 4.32,6.01 v 0.92 H 0 v -0.92 c 2.97,0 3.96,-1.2 3.96,-6.01 V 42.84 C 3.96,38.45 3.04,37.25 0,37.25 v -0.92 h 20.8 z m 33.46,49.8 H 42.38 c -7.5,0 -8.7,-1.41 -16.2,-12.1 -4.03,-5.8 -7.15,-9.91 -7.15,-9.91 l 10.9,-12.24 c 2.55,-2.76 8,-14.5 -0.57,-14.65 v -0.92 h 23.35 v 0.92 c -4.53,0 -11.6,3.11 -24.98,19.1 16.56,22.16 17.97,24 17.97,24 3.61,4.74 6.72,4.81 8.56,4.88 z"
     class="st0" /><path
     style="clip-rule:evenodd;fill:#a0c410;fill-rule:evenodd"
     id="path6-6"
     d="m 146.2,17.65 c -0.12,-0.91 -0.45,-1.74 -0.97,-2.46 -0.08,-0.11 -0.17,-0.22 -0.26,-0.32 -0.3,-0.35 -0.63,-0.65 -1,-0.88 -0.24,-0.15 -0.49,-0.26 -0.75,-0.35 -0.24,-0.09 -0.5,-0.15 -0.76,-0.19 -0.58,-0.45 -1.24,-0.76 -2.03,-0.88 -0.9,-0.14 -1.8,-0.12 -2.7,0.04 -1.42,0.25 -2.82,0.13 -4.2,-0.25 -1.08,-0.29 -2.11,-0.7 -3.09,-1.24 -1.48,-0.81 -2.96,-1.61 -4.41,-2.46 -0.92,-0.53 -1.7,-1.22 -2.16,-2.23 C 123.65,5.94 123.32,5.5 123.04,5.04 122.5,4.18 121.79,3.48 121,2.85 120.91,2.63 120.81,2.41 120.7,2.21 120.61,2.06 120.51,1.92 120.41,1.78 120.09,1.36 119.71,1 119.27,0.72 c -0.62,-0.39 -1.34,-0.63 -2.15,-0.7 -0.9,-0.07 -1.79,0.07 -2.67,0.44 -1.62,0.67 -2.9,1.84 -3.8,3.47 -0.64,1.16 -0.91,2.38 -0.8,3.61 0.07,0.76 0.29,1.45 0.64,2.04 0.18,0.31 0.4,0.59 0.64,0.84 0.08,0.09 0.17,0.17 0.26,0.25 0.09,0.08 0.2,0.14 0.3,0.22 -0.91,0.64 -1.69,1.44 -2.29,2.37 -1.03,1.58 -1.21,3.25 -0.26,4.95 0.26,0.47 0.59,0.91 0.88,1.36 0.19,0.29 0.47,0.52 0.6,0.96 -0.19,-0.09 -0.3,-0.14 -0.4,-0.19 -0.98,-0.58 -1.73,-1.39 -2.41,-2.28 -0.12,-0.16 -0.27,-0.31 -0.4,-0.46 -1.12,0.21 -2.11,0.61 -3.03,1.21 -0.46,0.3 -0.84,0.68 -1.17,1.11 -0.44,0.57 -0.54,1.21 -0.23,1.87 0.15,0.32 0.34,0.64 0.56,0.92 0.53,0.66 1.06,1.31 1.64,1.92 0.72,0.75 1.28,1.59 1.73,2.52 1.1,2.28 1.6,4.72 1.97,7.2 0.01,0.09 0.06,0.25 -0.18,0.27 -0.06,-0.12 -0.13,-0.24 -0.18,-0.38 -0.12,-0.37 -0.22,-0.75 -0.35,-1.12 -0.4,-1.14 -0.79,-2.28 -1.22,-3.4 -1.08,-2.8 -3.04,-4.94 -5.26,-6.95 -1.41,0.26 -2.76,0.74 -3.91,1.67 -1.24,1 -1.72,2.31 -1.25,3.86 0.17,0.57 0.42,1.13 0.7,1.66 0.76,1.42 1.8,2.63 2.92,3.77 1.18,1.2 2.42,2.34 3.63,3.52 0.64,0.63 1.28,1.28 1.88,1.95 1.45,1.65 2.84,3.35 4.18,5.09 1.6,2.08 2.85,4.31 3.52,6.86 0.13,0.49 0.32,0.97 0.51,1.45 0.2,0.51 0.54,0.93 0.98,1.28 0.65,0.52 1.36,0.61 2.12,0.33 1.2,-0.45 1.87,-1.75 1.55,-3.01 -0.14,-0.56 -0.41,-1.06 -0.82,-1.48 -0.4,-0.41 -0.78,-0.84 -1.18,-1.25 -0.86,-0.88 -1.27,-1.96 -1.37,-3.16 -0.01,-0.13 0.06,-0.27 0.1,-0.45 0.25,0.11 0.45,0.16 0.63,0.27 0.51,0.31 1.02,0.64 1.52,0.97 0.73,0.49 1.4,1.04 1.91,1.77 0.29,0.42 0.61,0.82 0.91,1.24 0.38,0.52 0.84,0.95 1.36,1.31 0.93,0.65 2.07,0.63 2.85,-0.04 1.02,-0.87 1.16,-2.25 0.31,-3.31 -0.47,-0.6 -1.05,-1.09 -1.74,-1.4 -0.49,-0.22 -1,-0.41 -1.51,-0.6 -0.59,-0.22 -1.17,-0.47 -1.66,-0.9 -1.2,-1.05 -2.33,-2.18 -3.42,-3.35 -0.06,-0.06 -0.08,-0.15 -0.13,-0.27 0.09,-0.07 0.17,-0.17 0.27,-0.21 0.47,-0.18 0.95,-0.18 1.4,0.04 0.32,0.16 0.61,0.38 0.9,0.59 0.61,0.44 1.18,0.94 1.81,1.35 0.79,0.52 1.66,0.58 2.48,0.08 1.42,-0.87 1.29,-2.21 0.38,-3 -0.48,-0.42 -1.01,-0.76 -1.61,-0.98 -0.74,-0.27 -1.47,-0.54 -2.2,-0.81 -1.53,-0.55 -3.06,-1.11 -4.58,-1.66 -0.17,-0.06 -0.36,-0.11 -0.34,-0.4 0.15,-0.1 0.32,-0.22 0.5,-0.32 1.25,-0.68 2.6,-0.91 4,-0.96 3.16,-0.12 6.32,-0.25 9.48,-0.38 0.33,-0.01 0.66,-0.02 0.99,-0.03 0.15,0 0.31,0.01 0.38,0.23 -0.12,0.32 -0.39,0.56 -0.62,0.83 -0.31,0.38 -0.56,0.79 -0.72,1.24 -0.55,1.52 0.68,2.55 1.83,2.51 0.63,-0.02 1.17,-0.25 1.63,-0.67 0.59,-0.55 0.97,-1.22 1.19,-1.99 0.14,-0.49 0.27,-0.99 0.39,-1.48 0.08,-0.3 0.22,-0.56 0.45,-0.76 0.16,-0.14 0.45,-0.12 0.56,0.06 0.1,0.18 0.21,0.38 0.22,0.58 0.01,0.39 0,0.79 -0.07,1.16 -0.22,1.13 -0.58,2.21 -1.16,3.21 -0.37,0.65 -0.79,1.28 -1.2,1.91 -0.5,0.75 -0.81,1.55 -0.66,2.47 0.1,0.65 0.4,1.2 0.99,1.53 1.04,0.58 2.28,0.22 2.88,-0.82 0.28,-0.48 0.43,-1 0.48,-1.54 0.06,-0.57 0.08,-1.14 0.11,-1.71 0.05,-0.98 0.29,-1.9 0.74,-2.77 0.16,-0.3 0.37,-0.55 0.66,-0.72 0.51,-0.3 0.99,-0.26 1.38,0.18 0.17,0.2 0.32,0.45 0.37,0.71 0.07,0.38 0.11,0.79 0.05,1.16 -0.09,0.59 -0.25,1.17 -0.41,1.75 -0.18,0.64 -0.42,1.26 -0.61,1.89 -0.15,0.52 -0.21,1.06 -0.14,1.61 0.27,1.82 2.44,2.98 4.06,1.73 0.48,-0.37 0.74,-0.89 0.84,-1.46 0.11,-0.62 0.17,-1.26 0.15,-1.88 -0.02,-0.81 -0.13,-1.62 -0.23,-2.43 -0.2,-1.49 -0.14,-2.93 0.4,-4.36 0.26,-0.7 0.42,-1.45 0.51,-2.19 0.22,-1.78 -0.87,-3.15 -2.37,-3.59 -0.79,-0.23 -1.59,-0.34 -2.4,-0.4 -0.29,-0.02 -0.6,0.05 -0.92,-0.14 0.02,-0.19 0.02,-0.4 0.08,-0.59 0.19,-0.64 0.39,-1.27 0.6,-1.89 0.26,-0.76 0.58,-1.49 1.08,-2.11 0.15,0.02 0.29,0.03 0.44,0.03 0,0 0.01,0 0.01,0 0.17,0 0.35,-0.02 0.52,-0.04 0.33,-0.04 0.66,-0.1 0.98,-0.22 0.13,-0.04 0.24,-0.1 0.35,-0.16 0.81,-0.36 1.44,-0.89 1.93,-1.37 l 0.1,-0.11 c 1.31,-1.7 1.86,-3.58 1.59,-5.6 m -35.04,-2.28 c 0.17,0.05 0.33,0.15 0.47,0.25 0.76,0.54 1.52,1.08 2.28,1.62 2.85,2.02 5.82,3.83 8.98,5.34 3.93,1.87 8.07,2.94 12.4,3.26 0.3,0.02 0.6,0.03 0.9,0.09 0.32,0.06 0.52,0.3 0.55,0.63 0.03,0.34 -0.16,0.69 -0.49,0.77 -0.29,0.06 -0.6,0.07 -0.89,0.06 -2.29,-0.09 -4.55,-0.46 -6.76,-1.06 -3.21,-0.87 -6.23,-2.18 -9.13,-3.81 -2.34,-1.32 -4.55,-2.82 -6.65,-4.48 -0.56,-0.45 -1.13,-0.89 -1.69,-1.36 -0.2,-0.17 -0.37,-0.39 -0.53,-0.6 -0.12,-0.16 -0.1,-0.34 0.01,-0.5 0.14,-0.21 0.34,-0.27 0.55,-0.21 m 19.21,1.66 c -0.05,0.17 -0.14,0.33 -0.2,0.45 -0.33,0.31 -0.64,0.53 -1.06,0.54 -0.37,0.01 -0.61,-0.29 -0.52,-0.66 0.13,-0.54 0.7,-0.99 1.25,-0.99 0.37,0 0.63,0.31 0.53,0.66 m -6.43,-1.98 c -0.21,0.2 -0.51,0.19 -0.72,-0.03 -0.42,-0.42 -0.41,-1.31 0.01,-1.72 0.18,-0.17 0.46,-0.19 0.65,-0.03 0.48,0.38 0.5,1.34 0.06,1.78 M 111.56,4.44 c 0.78,-1.42 1.88,-2.43 3.28,-3 0.72,-0.3 1.46,-0.42 2.18,-0.36 0.16,0.01 0.31,0.04 0.47,0.07 0.65,0.13 1.21,0.41 1.66,0.83 0.53,0.49 0.91,1.15 1.06,1.95 0.16,0.84 0.09,1.71 -0.23,2.59 -0.3,0.83 -0.73,1.55 -1.29,2.14 -0.64,0.76 -1.44,1.33 -2.37,1.71 -0.57,0.23 -1.16,0.36 -1.75,0.37 -0.03,0 -0.06,0 -0.09,0 -0.95,0 -1.78,-0.32 -2.41,-0.88 -0.27,-0.24 -0.5,-0.53 -0.69,-0.85 -0.27,-0.46 -0.45,-0.98 -0.5,-1.57 -0.09,-1.02 0.14,-2.03 0.68,-3 m 32.18,18.13 -0.06,0.06 c -0.17,0.17 -0.36,0.34 -0.57,0.51 -0.36,0.29 -0.77,0.56 -1.27,0.73 -0.04,0.02 -0.09,0.02 -0.13,0.04 -0.21,0.06 -0.41,0.11 -0.62,0.13 l -0.83,-0.01 c -0.06,0 -0.12,-0.01 -0.18,-0.01 -0.86,-0.16 -1.62,-0.68 -2.12,-1.51 -0.25,-0.41 -0.45,-0.88 -0.56,-1.35 -0.54,-2.12 0.39,-4.69 2.16,-5.96 0.57,-0.41 1.14,-0.65 1.72,-0.72 0.33,-0.04 0.65,-0.04 0.96,0.01 0.25,0.04 0.49,0.1 0.72,0.19 0.45,0.18 0.85,0.47 1.19,0.86 0.08,0.09 0.15,0.18 0.23,0.28 0.09,0.13 0.17,0.26 0.25,0.39 0.28,0.48 0.46,1.02 0.53,1.59 0.21,1.71 -0.26,3.32 -1.42,4.77"
     class="st1" /><path
     style="clip-rule:evenodd;fill:#312683;fill-rule:evenodd"
     id="path8"
     d="m 137.86,42.16 c 0.1,-0.31 0.21,-0.62 0.3,-0.94 0.15,-0.52 0.3,-1.08 0.38,-1.61 0.03,-0.21 0.01,-0.48 -0.05,-0.8 -0.01,-0.03 -0.04,-0.11 -0.12,-0.2 -0.01,0.01 -0.02,0.01 -0.04,0.02 -0.08,0.05 -0.17,0.12 -0.26,0.3 -0.38,0.73 -0.58,1.49 -0.62,2.34 l -0.01,0.26 c -0.02,0.5 -0.05,1 -0.1,1.5 -0.02,0.16 -0.04,0.32 -0.07,0.48 0.04,0.08 0.09,0.17 0.13,0.26 0.04,-0.22 0.08,-0.43 0.14,-0.65 0.11,-0.33 0.21,-0.64 0.32,-0.96"
     class="st0" /><path
     style="clip-rule:evenodd;fill:#312683;fill-rule:evenodd"
     id="path10-7"
     d="m 138.84,47.59 c 0.38,1.48 0.66,3.14 0.81,5.02 h 1.49 l 0.3,-4.32 c -0.14,0.02 -0.29,0.04 -0.44,0.04 -0.8,0 -1.55,-0.28 -2.16,-0.74"
     class="st0" /><path
     style="clip-rule:evenodd;fill:#312683;fill-rule:evenodd"
     id="path12"
     d="m 125.78,35.66 c -0.35,0.01 -0.7,0.03 -1.05,0.04 -0.22,0 -0.43,-0.01 -0.65,-0.01 -1.03,0 -2.03,0.05 -3.02,0.15 -1.14,0.11 -2.24,0.29 -3.32,0.52 l 2.28,0.82 c 0.02,0.01 0.04,0.02 0.07,0.02 1.15,-0.42 2.48,-0.6 3.99,-0.6 1.15,0 2.34,0.07 3.54,0.26 0.03,-0.16 0.07,-0.32 0.13,-0.49 0.08,-0.21 0.18,-0.41 0.29,-0.61 0.04,-0.07 0.06,-0.15 0.1,-0.22 z"
     class="st0" /><path
     style="clip-rule:evenodd;fill:#312683;fill-rule:evenodd"
     id="path14-5"
     d="m 118.55,4.47 c -0.2,-1.02 -0.95,-1.69 -1.99,-1.78 -0.5,-0.04 -0.98,0.05 -1.44,0.24 -1.02,0.42 -1.76,1.14 -2.28,2.1 -0.35,0.63 -0.52,1.3 -0.46,2.03 0.11,1.26 1.05,2.09 2.31,2.07 0.4,-0.01 0.79,-0.1 1.16,-0.25 0.64,-0.26 1.19,-0.65 1.65,-1.19 0.4,-0.42 0.7,-0.92 0.89,-1.48 0.2,-0.57 0.27,-1.15 0.16,-1.74 m -2.26,-0.16 c -1.28,0.7 -2.03,1.68 -2.28,3 -0.02,0.12 -0.12,0.21 -0.24,0.23 -0.02,0 -0.04,0.01 -0.06,0.01 -0.1,0 -0.2,-0.05 -0.25,-0.14 -0.3,-0.47 -0.23,-1.21 0.19,-1.96 0.48,-0.86 1.47,-1.73 2.5,-1.7 0.13,0 0.25,0.1 0.28,0.23 0.04,0.13 -0.02,0.27 -0.14,0.33"
     class="st0" /><path
     style="clip-rule:evenodd;fill:#312683;fill-rule:evenodd"
     id="path16"
     d="m 143.9,18.14 c -0.07,-0.5 -0.24,-0.96 -0.54,-1.37 -0.49,-0.69 -1.17,-0.96 -2,-0.86 -0.42,0.05 -0.8,0.24 -1.15,0.49 -1.3,0.93 -1.93,2.82 -1.55,4.29 0.08,0.33 0.22,0.66 0.4,0.95 0.54,0.9 1.52,1.22 2.51,0.88 0.5,-0.17 0.9,-0.5 1.3,-0.88 0.81,-1.02 1.21,-2.18 1.03,-3.5 m -1.03,1.52 c -0.29,0.94 -0.9,1.59 -1.71,1.84 -0.03,0.01 -0.06,0.02 -0.1,0.02 -0.11,0 -0.22,-0.06 -0.28,-0.16 -0.08,-0.13 -0.06,-0.29 0.05,-0.4 0.93,-0.93 1.32,-2.04 1.21,-3.37 -0.01,-0.15 0.08,-0.28 0.21,-0.33 0.14,-0.05 0.29,0 0.38,0.12 0.44,0.65 0.52,1.39 0.24,2.28"
     class="st0" /><path
     style="clip-rule:evenodd;fill:#312683;fill-rule:evenodd"
     id="path18"
     d="m 94,57.51 -0.21,0.02 c -0.15,0.02 -0.3,0.03 -0.45,0.04 -0.07,0.01 -0.14,0.01 -0.22,0.01 0,0 -0.91,0.01 -1.16,0.01 0.68,0.42 1.17,0.99 1.45,1.7 0.42,1.05 0.1,2.28 -0.78,2.99 -0.57,0.46 -1.19,0.72 -1.86,0.76 -0.12,0.01 -0.24,0.01 -0.36,0 C 89.79,63 89.24,62.92 88.74,62.78 88.39,62.69 88.05,62.59 87.7,62.49 L 85.1,61.74 84.25,61.5 v 0.32 H 67.14 V 44.75 c 0,-3.11 -0.35,-7.22 1.7,-7.5 V 36.33 H 52.28 v 0.92 c 3.4,0.28 3.18,4.39 3.18,7.5 v 33.18 c 0,3.47 0.43,6.79 -3.18,7.29 v 0.92 h 16.56 v -0.92 c -1.91,-0.35 -1.7,-3.82 -1.7,-7.29 V 62.87 h 17.12 v 15.07 c 0,3.47 0.21,6.93 -1.7,7.29 v 0.92 H 99.05 V 85.23 C 95.58,84.74 95.94,81.41 95.94,77.94 V 56.68 c -0.15,0.13 -0.3,0.24 -0.47,0.34 -0.49,0.28 -0.97,0.44 -1.47,0.49"
     class="st0" /><path
     style="clip-rule:evenodd;fill:#a0c410;fill-rule:evenodd"
     id="path20"
     d="m 83.05,40.26 -1.88,2.46 c -0.38,0.5 -0.71,1.03 -0.99,1.59 l -1.43,2.85 c -0.95,1.9 -1.41,4.01 -1.33,6.13 l 0.07,1.87 c 0.14,1.13 0.69,2.15 1.37,3.07 0.31,0.42 0.73,0.74 1.22,0.91 0.48,0.17 0.97,0.31 1.46,0.45 1.29,0.37 2.58,0.74 3.86,1.11 0.81,0.23 1.62,0.47 2.43,0.7 0.39,0.11 0.79,0.23 1.18,0.33 0.47,0.13 0.97,0.19 1.46,0.22 0.56,0.03 1.06,-0.17 1.49,-0.52 0.52,-0.42 0.71,-1.15 0.46,-1.77 -0.25,-0.63 -0.71,-1.05 -1.31,-1.34 -0.64,-0.31 -1.33,-0.44 -2.03,-0.43 -0.63,0.01 -1.25,0.07 -1.88,0.12 -0.23,0.02 -0.5,0.02 -0.79,0.01 -0.64,-0.02 -1.35,-0.1 -1.85,-0.23 -1.04,-0.27 -2.08,-0.55 -3.12,-0.83 -0.13,-0.03 -0.24,-0.12 -0.35,-0.19 0.11,-0.22 0.27,-0.17 0.41,-0.16 0.81,0.05 1.63,0.1 2.44,0.16 0.36,0.03 0.69,0.01 1.03,-0.16 0.3,-0.15 0.63,-0.23 0.96,-0.28 0.4,-0.06 0.82,-0.04 1.22,0 1.98,0.21 3.97,0.18 5.95,0.17 0.26,0 0.52,-0.04 0.78,-0.07 0.38,-0.03 0.71,-0.17 1.02,-0.35 0.78,-0.45 1.31,-1.53 1.03,-2.39 -0.26,-0.8 -0.95,-1.27 -1.84,-1.21 -0.68,0.05 -1.33,0.28 -1.96,0.55 -1.35,0.56 -2.83,0.73 -4.27,0.5 C 87.03,53.4 86.21,53.2 85.39,53.03 85.25,53 85.11,52.94 84.98,52.88 84.91,52.85 84.86,52.8 84.82,52.76 c -0.06,-0.08 -0.1,-0.18 -0.08,-0.3 0,-0.01 0,-0.01 0.01,-0.02 0.04,-0.2 0.2,-0.36 0.41,-0.35 0.23,0.01 0.46,0.05 0.69,0.08 0.78,0.1 1.56,0.22 2.34,0.3 0.55,0.06 1.06,-0.08 1.52,-0.38 0.52,-0.34 0.77,-1.02 0.55,-1.59 -0.17,-0.45 -0.48,-0.77 -0.89,-1 -0.5,-0.28 -1.03,-0.4 -1.59,-0.4 -0.65,-0.01 -1.3,0.02 -1.95,0.05 -0.53,0.02 -1.06,0.01 -1.59,-0.05 -0.27,-0.03 -0.54,-0.08 -0.81,-0.15 -0.16,-0.04 -0.3,-0.15 -0.45,-0.23 L 82.9,44.43 Z"
     class="st1" /><path
     style="clip-rule:evenodd;fill:#a0c410;fill-rule:evenodd"
     id="path22"
     d="m 83.05,40.26 -1.88,2.46 c -0.38,0.5 -0.71,1.03 -0.99,1.59 l -1.43,2.85 c -0.95,1.9 -1.41,4.01 -1.33,6.13 l 0.07,1.87 c 0.14,1.13 0.69,2.15 1.37,3.07 0.31,0.42 0.73,0.74 1.22,0.91 0.48,0.17 0.97,0.31 1.46,0.45 1.29,0.37 2.58,0.74 3.86,1.11 0.81,0.23 1.62,0.47 2.43,0.7 0.39,0.11 0.79,0.23 1.18,0.33 0.47,0.13 0.97,0.19 1.46,0.22 0.56,0.03 1.06,-0.17 1.49,-0.52 0.52,-0.42 0.71,-1.15 0.46,-1.77 -0.25,-0.63 -0.71,-1.05 -1.31,-1.34 -0.64,-0.31 -1.33,-0.44 -2.03,-0.43 -0.63,0.01 -1.25,0.07 -1.88,0.12 -0.23,0.02 -0.5,0.02 -0.79,0.01 -0.64,-0.02 -1.35,-0.1 -1.85,-0.23 -1.04,-0.27 -2.08,-0.55 -3.12,-0.83 -0.13,-0.03 -0.24,-0.12 -0.35,-0.19 0.11,-0.22 0.27,-0.17 0.41,-0.16 0.81,0.05 1.63,0.1 2.44,0.16 0.36,0.03 0.69,0.01 1.03,-0.16 0.3,-0.15 0.63,-0.23 0.96,-0.28 0.4,-0.06 0.82,-0.04 1.22,0 1.98,0.21 3.97,0.18 5.95,0.17 0.26,0 0.52,-0.04 0.78,-0.07 0.38,-0.03 0.71,-0.17 1.02,-0.35 0.78,-0.45 1.31,-1.53 1.03,-2.39 -0.26,-0.8 -0.95,-1.27 -1.84,-1.21 -0.68,0.05 -1.33,0.28 -1.96,0.55 -1.35,0.56 -2.83,0.73 -4.27,0.5 C 87.03,53.4 86.21,53.2 85.39,53.03 85.25,53 85.11,52.94 84.98,52.88 84.91,52.85 84.86,52.8 84.82,52.76 c -0.06,-0.08 -0.1,-0.18 -0.08,-0.3 0,-0.01 0,-0.01 0.01,-0.02 0.04,-0.2 0.2,-0.36 0.41,-0.35 0.23,0.01 0.46,0.05 0.69,0.08 0.78,0.1 1.56,0.22 2.34,0.3 0.55,0.06 1.06,-0.08 1.52,-0.38 0.52,-0.34 0.77,-1.02 0.55,-1.59 -0.17,-0.45 -0.48,-0.77 -0.89,-1 -0.5,-0.28 -1.03,-0.4 -1.59,-0.4 -0.65,-0.01 -1.3,0.02 -1.95,0.05 -0.53,0.02 -1.06,0.01 -1.59,-0.05 -0.27,-0.03 -0.54,-0.08 -0.81,-0.15 -0.16,-0.04 -0.3,-0.15 -0.45,-0.23 L 82.9,44.43 Z"
     class="st1" /><path
     style="clip-rule:evenodd;fill:#312683;fill-rule:evenodd"
     id="path24"
     d="m 0.4,96.85 h 0.98 v 5.69 H 0.4 Z m 0.9,2.55 2.55,-2.54 h 1.23 l -3.71,3.71 z m 0.76,0.28 0.74,-0.6 2.36,3.46 H 3.99 Z"
     class="st0" /><path
     style="clip-rule:evenodd;fill:#312683;fill-rule:evenodd"
     id="path26"
     d="m 7.26,96.85 h 0.91 l -0.55,1.7 -1.35,3.98 H 5.24 Z m -0.6,3.35 h 2.49 v 0.79 H 6.66 Z M 8.18,98.54 7.64,96.86 h 0.91 l 2.03,5.69 H 9.54 Z"
     class="st0" /><path
     style="clip-rule:evenodd;fill:#312683;fill-rule:evenodd"
     id="path28"
     d="m 11.22,96.85 h 2.25 c 1.1,0 1.85,0.69 1.85,1.7 0,1.01 -0.75,1.71 -1.85,1.71 h -1.26 v 2.27 h -0.99 z m 2.15,2.6 c 0.59,0 0.97,-0.36 0.97,-0.9 0,-0.54 -0.38,-0.89 -0.97,-0.89 h -1.15 v 1.79 z"
     class="st0" /><path
     style="clip-rule:evenodd;fill:#312683;fill-rule:evenodd"
     id="path30"
     d="m 15.84,99.68 c 0,-1.78 1,-2.93 2.66,-2.93 1.65,0 2.66,1.15 2.66,2.93 0,1.78 -1,2.97 -2.66,2.97 -1.66,-0.01 -2.66,-1.2 -2.66,-2.97 m 4.31,0 c 0,-1.21 -0.6,-2.11 -1.65,-2.11 -1.05,0 -1.66,0.89 -1.66,2.11 0,1.23 0.62,2.14 1.66,2.14 1.03,0 1.65,-0.92 1.65,-2.14"
     class="st0" /><path
     style="clip-rule:evenodd;fill:#312683;fill-rule:evenodd"
     id="path32"
     d="m 21.73,100.59 h 0.98 c 0.04,0.79 0.52,1.23 1.31,1.23 0.66,0 1.11,-0.32 1.11,-0.84 0,-0.63 -0.64,-0.76 -1.46,-0.98 -0.87,-0.25 -1.8,-0.58 -1.8,-1.69 0,-1.1 0.92,-1.56 2,-1.56 1.25,0 2.02,0.59 2.07,1.79 h -0.98 c -0.04,-0.69 -0.47,-0.97 -1.12,-0.97 -0.51,0 -0.99,0.18 -0.99,0.7 0,0.55 0.55,0.69 1.28,0.89 1.24,0.34 1.97,0.73 1.97,1.77 0,1.2 -1.01,1.71 -2.1,1.71 -1.41,0 -2.24,-0.77 -2.27,-2.05"
     class="st0" /><polygon
     style="clip-rule:evenodd;fill:#312683;fill-rule:evenodd"
     id="polygon34"
     points="29.04,101.5 30.53,96.85 31.59,96.85 29.65,102.54 28.43,102.54 26.5,96.85 27.54,96.85 "
     class="st0" /><path
     style="clip-rule:evenodd;fill:#312683;fill-rule:evenodd"
     id="path36"
     d="m 33.75,96.85 h 0.91 l -0.55,1.7 -1.35,3.98 h -1.03 z m -0.61,3.35 h 2.49 v 0.79 h -2.49 z m 1.58,-4.95 h 1.15 l -1.02,1.14 h -0.9 z m -0.05,3.29 -0.54,-1.68 h 0.91 l 2.03,5.69 h -1.03 z"
     class="st0" /><path
     style="clip-rule:evenodd;fill:#312683;fill-rule:evenodd"
     id="path38"
     d="m 37.71,96.85 h 2.43 c 1.04,0 1.83,0.66 1.83,1.61 0,0.61 -0.31,1.12 -0.92,1.39 v -0.1 c 0.65,0.19 0.86,0.67 0.86,1.18 v 0.83 c 0,0.24 0.05,0.49 0.24,0.78 h -1.04 c -0.12,-0.19 -0.19,-0.43 -0.19,-0.76 v -0.83 c 0,-0.46 -0.27,-0.73 -0.81,-0.73 H 38.7 v 2.32 h -0.99 z m 2.4,2.56 c 0.51,0 0.88,-0.38 0.88,-0.88 0,-0.5 -0.36,-0.87 -0.88,-0.87 H 38.7 v 1.74 h 1.41 z"
     class="st0" /><rect
     style="clip-rule:evenodd;fill:#312683;fill-rule:evenodd"
     id="rect40"
     height="5.6900001"
     width="0.99000001"
     class="st0"
     y="96.849998"
     x="43.02" /><polygon
     style="clip-rule:evenodd;fill:#312683;fill-rule:evenodd"
     id="polygon42"
     points="48.01,100 48.01,102.54 47.01,102.54 47.01,96.85 48.01,96.85 48.01,99.19 50.58,99.19 50.58,96.85 51.57,96.85 51.57,102.54 50.58,102.54 50.58,100 "
     class="st0" /><path
     style="clip-rule:evenodd;fill:#312683;fill-rule:evenodd"
     id="path44"
     d="m 52.65,100.5 v -3.65 h 0.99 v 3.68 c 0,0.75 0.49,1.28 1.25,1.28 0.74,0 1.24,-0.49 1.24,-1.26 v -3.7 h 0.99 v 3.67 c 0,1.29 -0.96,2.12 -2.25,2.12 -1.3,0 -2.22,-0.86 -2.22,-2.14"
     class="st0" /><polygon
     style="clip-rule:evenodd;fill:#312683;fill-rule:evenodd"
     id="polygon46"
     points="61.91,101.73 61.91,102.54 58.21,102.54 58.21,96.85 59.2,96.85 59.2,101.73 "
     class="st0" /><polygon
     style="clip-rule:evenodd;fill:#312683;fill-rule:evenodd"
     id="polygon48"
     points="66.36,101.73 66.36,102.54 62.66,102.54 62.66,96.85 63.65,96.85 63.65,101.73 "
     class="st0" /><path
     style="clip-rule:evenodd;fill:#312683;fill-rule:evenodd"
     id="path50"
     d="m 68.69,96.85 h 0.91 l -0.55,1.7 -1.35,3.98 h -1.03 z m -0.61,3.35 h 2.49 v 0.79 h -2.49 z m 1.52,-1.66 -0.54,-1.68 h 0.91 l 2.03,5.69 h -1.03 z"
     class="st0" /><path
     style="clip-rule:evenodd;fill:#312683;fill-rule:evenodd"
     id="path52"
     d="m 72.64,96.85 h 2.14 c 1.68,0 2.65,1.18 2.65,2.84 0,1.64 -0.95,2.85 -2.69,2.85 h -2.1 z m 2.02,4.88 c 1.12,0 1.78,-0.75 1.78,-2.05 0,-1.23 -0.59,-2.02 -1.78,-2.02 h -1.02 v 4.06 h 1.02 z"
     class="st0" /><path
     style="clip-rule:evenodd;fill:#312683;fill-rule:evenodd"
     id="path54"
     d="m 78.31,96.85 h 4 v 0.81 H 79.3 v 1.54 h 2.82 v 0.81 H 79.3 v 1.71 h 3.14 v 0.81 h -4.13 z m 2.34,-1.6 h 1.15 l -1.02,1.15 h -0.9 z"
     class="st0" /><path
     style="clip-rule:evenodd;fill:#312683;fill-rule:evenodd"
     id="path56"
     d="m 83.31,96.85 h 0.98 v 5.69 h -0.98 z m 0.9,2.55 2.55,-2.54 H 88 l -3.71,3.71 z m 0.76,0.28 0.74,-0.6 2.36,3.46 H 86.9 Z"
     class="st0" /><path
     style="clip-rule:evenodd;fill:#312683;fill-rule:evenodd"
     id="path58"
     d="m 88.33,99.7 c 0,-1.63 0.91,-2.95 2.71,-2.95 1.29,0 2.21,0.7 2.44,1.88 h -0.99 c -0.2,-0.7 -0.77,-1.06 -1.46,-1.06 -1.1,0 -1.7,0.92 -1.7,2.12 0,1.32 0.71,2.13 1.65,2.13 0.93,0 1.58,-0.72 1.61,-1.6 h -1.7 v -0.79 h 2.64 v 3.11 h -0.7 l -0.14,-1.12 h 0.1 c -0.31,0.75 -1,1.23 -1.92,1.23 -1.41,-0.01 -2.54,-1.13 -2.54,-2.95"
     class="st0" /><path
     style="clip-rule:evenodd;fill:#312683;fill-rule:evenodd"
     id="path60"
     d="m 96.15,96.85 h 0.91 l -0.55,1.7 -1.35,3.98 h -1.03 z m -0.61,3.35 h 2.49 v 0.79 h -2.49 z m 1.53,-1.66 -0.54,-1.68 h 0.91 l 2.03,5.69 h -1.03 z"
     class="st0" /><polygon
     style="clip-rule:evenodd;fill:#312683;fill-rule:evenodd"
     id="polygon62"
     points="99.85,102.54 99.85,101.66 102.96,97.65 99.89,97.65 99.89,96.85 104.14,96.85 104.14,97.73 101.03,101.74 104.17,101.74 104.17,102.54 "
     class="st0" /><path
     style="clip-rule:evenodd;fill:#312683;fill-rule:evenodd"
     id="path64"
     d="m 105.02,96.85 h 2.14 c 1.68,0 2.65,1.18 2.65,2.84 0,1.64 -0.95,2.85 -2.69,2.85 h -2.1 z m 2.02,4.88 c 1.12,0 1.78,-0.75 1.78,-2.05 0,-1.23 -0.59,-2.02 -1.78,-2.02 h -1.02 v 4.06 h 1.02 z"
     class="st0" /><path
     style="clip-rule:evenodd;fill:#312683;fill-rule:evenodd"
     id="path66"
     d="m 112.21,96.85 h 0.91 l -0.55,1.7 -1.35,3.98 h -1.03 z m -0.6,3.35 h 2.49 v 0.79 h -2.49 z m 1.58,-4.95 h 1.15 l -1.02,1.14 h -0.9 z m -0.06,3.29 -0.54,-1.68 h 0.91 l 2.03,5.69 h -1.03 z"
     class="st0" /><polygon
     style="clip-rule:evenodd;fill:#312683;fill-rule:evenodd"
     id="polygon68"
     points="119.87,101.73 119.87,102.54 116.17,102.54 116.17,96.85 117.16,96.85 117.16,101.73 "
     class="st0" /><path
     style="clip-rule:evenodd;fill:#312683;fill-rule:evenodd"
     id="path70"
     d="m 120.62,96.85 h 0.98 v 5.69 h -0.98 z m 0.9,2.55 2.55,-2.54 h 1.23 l -3.71,3.71 z m 0.76,0.28 0.74,-0.6 2.36,3.46 h -1.16 z"
     class="st0" /><path
     style="clip-rule:evenodd;fill:#312683;fill-rule:evenodd"
     id="path72"
     d="m 125.64,99.68 c 0,-1.78 1,-2.93 2.66,-2.93 1.65,0 2.66,1.15 2.66,2.93 0,1.78 -1,2.97 -2.66,2.97 -1.66,-0.01 -2.66,-1.2 -2.66,-2.97 m 4.31,0 c 0,-1.21 -0.6,-2.11 -1.65,-2.11 -1.05,0 -1.66,0.89 -1.66,2.11 0,1.23 0.62,2.14 1.66,2.14 1.03,0 1.65,-0.92 1.65,-2.14"
     class="st0" /><path
     style="clip-rule:evenodd;fill:#312683;fill-rule:evenodd"
     id="path74"
     d="m 131.83,96.85 h 2.14 c 1.68,0 2.65,1.18 2.65,2.84 0,1.64 -0.95,2.85 -2.69,2.85 h -2.1 z m 2.01,4.88 c 1.12,0 1.78,-0.75 1.78,-2.05 0,-1.23 -0.59,-2.02 -1.78,-2.02 h -1.02 v 4.06 h 1.02 z"
     class="st0" /><path
     style="clip-rule:evenodd;fill:#312683;fill-rule:evenodd"
     id="path76"
     d="m 139.02,96.85 h 0.91 l -0.55,1.7 -1.35,3.98 H 137 Z m -0.61,3.35 h 2.49 v 0.79 h -2.49 z M 140,95.25 h 1.15 l -1.02,1.14 h -0.9 z m -0.06,3.29 -0.54,-1.68 h 0.91 l 2.03,5.69 h -1.03 z"
     class="st0" /><path
     style="clip-rule:evenodd;fill:#312683;fill-rule:evenodd"
     id="path78"
     d="m 142.67,100.59 h 0.98 c 0.04,0.79 0.52,1.23 1.31,1.23 0.66,0 1.11,-0.32 1.11,-0.84 0,-0.63 -0.64,-0.76 -1.46,-0.98 -0.87,-0.25 -1.8,-0.58 -1.8,-1.69 0,-1.1 0.92,-1.56 2,-1.56 1.26,0 2.02,0.59 2.08,1.79 h -0.98 c -0.04,-0.69 -0.47,-0.97 -1.12,-0.97 -0.51,0 -0.99,0.18 -0.99,0.7 0,0.55 0.55,0.69 1.28,0.89 1.24,0.34 1.97,0.73 1.97,1.77 0,1.2 -1.01,1.71 -2.1,1.71 -1.42,0 -2.25,-0.77 -2.28,-2.05"
     class="st0" /><path
     style="clip-rule:evenodd;fill:#312683;fill-rule:evenodd"
     id="path80"
     d="m 140.05,59.86 -12.92,7.11 v 0.92 c 3.96,0 5.45,0.5 5.45,9.2 0,6.86 -1.63,8.77 -8.49,8.77 -7.92,0 -10.82,-5.16 -10.82,-24.62 0,-2.45 0.04,-4.68 0.14,-6.69 -0.16,-0.21 -0.3,-0.42 -0.41,-0.65 -0.17,-0.25 -0.31,-0.51 -0.42,-0.79 l -0.01,-0.04 c -0.2,-0.49 -0.4,-1.01 -0.55,-1.57 -0.33,-1.27 -0.85,-2.52 -1.56,-3.78 -0.43,-0.72 -0.92,-1.44 -1.48,-2.17 -0.9,-1.16 -1.81,-2.3 -2.73,-3.39 -5.14,4.6 -8.19,11.33 -8.19,19.08 0,14.57 10.75,25.54 26.04,25.54 7.57,0 14.29,-1.41 18.25,-3.47 0,-14.58 0.28,-15.42 4.74,-15.42 v -0.92 z"
     class="st0" /><path
     style="clip-rule:evenodd;fill:#312683;fill-rule:evenodd"
     id="path82"
     d="m 82.56,36.34 v 0.92 c 1.98,0.28 1.7,4.39 1.7,7.5 v 3.29 c 0.05,0.01 0.09,0.01 0.15,0.02 0.44,0.05 0.9,0.07 1.42,0.05 0.61,-0.03 1.31,-0.05 2.01,-0.05 0.78,0.01 1.49,0.19 2.11,0.54 0.65,0.37 1.11,0.89 1.36,1.54 0.28,0.73 0.16,1.55 -0.27,2.18 0.25,-0.07 0.49,-0.15 0.73,-0.25 0.65,-0.27 1.42,-0.56 2.29,-0.62 v 0 c 0.72,-0.04 1.37,0.15 1.88,0.51 v -7.21 c 0,-3.11 -0.14,-7.22 3.11,-7.5 v -0.92 z"
     class="st0" /></g></svg>