<?xml version="1.0" encoding="UTF-8"?>
<svg id="Layer_2" data-name="Layer 2" xmlns="http://www.w3.org/2000/svg" xmlns:xlink="http://www.w3.org/1999/xlink" viewBox="0 0 497.35 149.19">
  <defs>
    <style>
      .cls-1 {
        fill: #231f20;
      }

      .cls-1, .cls-2, .cls-3, .cls-4, .cls-5 {
        stroke-width: 0px;
      }

      .cls-2 {
        fill: none;
      }

      .cls-6 {
        clip-path: url(#clippath);
      }

      .cls-3 {
        fill: #a7a9ac;
      }

      .cls-4 {
        fill: #fff;
      }

      .cls-5 {
        fill: #42616f;
      }
    </style>
    <clipPath id="clippath">
      <rect class="cls-2" width="202.04" height="149.19"/>
    </clipPath>
  </defs>
  <g id="Réteg_1" data-name="Réteg 1">
    <g>
      <g class="cls-6">
        <path class="cls-1" d="M97.49,2.52h-11.92v13.25c-4.72.91-9.25,2.38-13.5,4.34l-6.54-11.33-10.32,5.96,6.59,11.41c-3.96,2.91-7.56,6.28-10.68,10.06l-10.86-7.35-6.68,9.87,10.9,7.38c-4.45,8.32-6.97,17.82-6.97,27.92,0,10.62,2.8,20.57,7.68,29.19l-10.82,7.49,6.78,9.8,10.92-7.56c3,3.44,6.38,6.54,10.09,9.21l-6.59,11.42,10.32,5.96,6.58-11.41c4.27,1.93,8.82,3.36,13.56,4.24l-1.07,13.1,11.88.97,1.07-13.09c5.06-.09,9.97-.81,14.65-2.09l4.8,12.21,11.09-4.36-4.78-12.14c4.04-2.05,7.82-4.55,11.27-7.44l9.33,9.15,8.35-8.51-9.35-9.17c3.07-3.85,5.67-8.09,7.71-12.64l12.37,4.14,3.78-11.3-12.38-4.14c.94-4.19,1.45-8.54,1.45-13.01,0-3.95-.39-7.8-1.13-11.54l12.49-3.7-3.38-11.43-12.58,3.72c-1.99-4.74-4.58-9.16-7.67-13.18l9.55-8.98-8.16-8.69-9.56,8.99c-3.46-3.01-7.27-5.62-11.36-7.77l4.86-12.27-11.08-4.39-4.84,12.22c-5.04-1.45-10.35-2.26-15.84-2.32V2.52ZM138.86,74.03c0,23.16-18.84,42.01-42.01,42.01s-42.01-18.84-42.01-42.01,18.84-42.01,42.01-42.01,42.01,18.84,42.01,42.01"/>
        <path class="cls-4" d="M58.26,44.69c.58-.24,1.37-.7,1.95-1.37.63-.72.66-1.37.2-1.76-.43-.38-.97-.26-1.99.32-1.41.81-2.7,1.01-3.71.13-1.19-1.03-1.24-2.81.19-4.45.68-.79,1.35-1.22,1.89-1.47l.97,1.45c-.38.16-1,.49-1.59,1.17-.59.68-.57,1.28-.21,1.6.44.39.98.16,2.1-.44,1.52-.84,2.66-.86,3.65,0,1.17,1.01,1.38,2.77-.28,4.68-.69.8-1.58,1.4-2.13,1.61l-1.02-1.45Z"/>
        <polygon class="cls-4" points="65.3 38.6 65.03 30.9 64.99 30.86 61.8 33.25 60.77 31.87 66.13 27.85 66.85 28.82 67.15 36.39 67.18 36.43 70.68 33.82 71.71 35.2 65.97 39.49 65.3 38.6"/>
        <rect class="cls-4" x="72.78" y="24.27" width="2.09" height="9.22" transform="translate(-5.13 35.97) rotate(-26.5)"/>
        <polygon class="cls-4" points="77.96 22.06 79.97 21.46 82.12 28.61 85.63 27.56 86.13 29.23 80.61 30.89 77.96 22.06"/>
        <path class="cls-4" d="M90.55,19.28l.38,5.29c.11,1.58.77,2.34,1.84,2.27,1.09-.08,1.64-.89,1.52-2.51l-.38-5.29,2.07-.15.37,5.16c.2,2.84-1.13,4.29-3.53,4.46-2.32.17-3.77-1.02-3.98-3.95l-.37-5.13,2.09-.15Z"/>
        <polygon class="cls-4" points="103.6 21.26 101.15 20.87 101.43 19.14 108.43 20.27 108.15 21.99 105.66 21.59 104.48 28.97 102.41 28.64 103.6 21.26"/>
        <polygon class="cls-4" points="116.74 28.71 113.58 27.47 112.78 29.51 116.31 30.89 115.69 32.48 110.21 30.34 113.57 21.75 118.87 23.83 118.25 25.42 114.9 24.11 114.2 25.89 117.36 27.13 116.74 28.71"/>
        <path class="cls-4" d="M124.71,37.73c-.42-.05-1.25-.36-2.19-.99-2.65-1.77-2.91-4.34-1.44-6.52,1.75-2.61,4.59-2.82,6.91-1.26.9.6,1.46,1.24,1.66,1.61l-1.27,1.14c-.25-.38-.65-.85-1.26-1.26-1.37-.92-3-.81-4.14.9-1.03,1.53-.77,3.11.78,4.15.52.35,1.18.63,1.61.72l-.65,1.53Z"/>
        <polygon class="cls-4" points="135.51 35.58 132.9 37.97 135.22 40.5 137.83 38.11 139.23 39.64 132.44 45.87 131.04 44.34 133.88 41.73 131.56 39.2 128.72 41.81 127.3 40.27 134.1 34.04 135.51 35.58"/>
        <path class="cls-1" d="M5.7,74.48c0-6.24,4.95-11.35,11.12-11.61l12.22-3.04h3.12v-2.94h13.74v3.15h80.27v3.26h17.96v3.49h19.21v-2.17h7.53c.51-1.81,2.18-3.15,4.15-3.15h6.14c1.53,0,2.88.8,3.65,2.01.18-.01.37-.02.56-.02,6.08,0,11.02,4.94,11.02,11.02s-4.94,11.02-11.02,11.02c-.23,0-.45,0-.68-.02-.78,1.1-2.07,1.83-3.52,1.83h-6.14c-1.97,0-3.64-1.33-4.15-3.15h-7.53v-2.17h-19.21v3.68h-17.96v3.26H45.9v3.15h-13.74v-2.94h-3.12l-12.22-3.04c-6.18-.26-11.12-5.37-11.12-11.61"/>
        <polygon class="cls-1" points="122.47 85.23 122.47 81.97 122.47 66.99 122.47 63.74 42.2 63.74 42.2 85.23 122.47 85.23"/>
        <polygon class="cls-3" points="42.2 85.23 42.2 63.74 42.2 60.59 35.85 60.59 35.85 63.53 35.85 85.43 35.85 88.38 42.2 88.38 42.2 85.23"/>
        <path class="cls-3" d="M29.49,63.53l-12.18,3.03c-4.38,0-7.92,3.55-7.92,7.92s3.55,7.92,7.92,7.92l12.18,3.03v-21.9ZM17.32,78.93c-2.46,0-4.45-1.99-4.45-4.45s1.99-4.45,4.45-4.45,4.45,1.99,4.45,4.45-1.99,4.45-4.45,4.45"/>
        <polygon class="cls-1" points="35.85 63.53 32.67 63.53 29.49 63.53 29.49 85.43 32.67 85.43 35.85 85.43 35.85 63.53"/>
        <polygon class="cls-3" points="141.34 78.39 141.34 70.58 141.34 66.99 127.83 66.99 122.47 66.99 122.47 81.97 127.83 81.97 141.34 81.97 141.34 78.39"/>
        <path class="cls-3" d="M185.36,70.29c2.32,0,4.19,1.88,4.19,4.19s-1.88,4.19-4.19,4.19-4.19-1.88-4.19-4.19v6c1.19.83,2.63,1.32,4.19,1.32,4.05,0,7.33-3.28,7.33-7.33s-3.28-7.33-7.33-7.33c-1.56,0-3.01.49-4.19,1.32v6c0-2.32,1.88-4.19,4.19-4.19"/>
        <polygon class="cls-3" points="167.03 80.46 174.4 80.46 174.4 68.31 167.03 68.31 167.03 70.48 167.03 78.29 167.03 80.46"/>
        <path class="cls-1" d="M181.78,82.99v-17.21c0-.34-.28-.62-.62-.62h-6.14c-.34,0-.62.28-.62.62v2.62h.02v12.16h-.02v2.43c0,.34.28.62.62.62h6.14c.34,0,.62-.28.62-.62"/>
        <rect class="cls-5" x="174.4" y="68.31" width=".02" height="12.16"/>
        <polygon class="cls-3" points="165.4 70.48 161.89 70.48 147.51 70.48 144.32 70.48 144.32 78.29 147.51 78.29 161.89 78.29 165.4 78.29 165.4 70.48"/>
        <path class="cls-4" d="M65.57,119.82l-1.5-1.16.6-2.01-2.73-2.11-1.76,1.12-1.46-1.13,7.94-4.78,1.46,1.13-2.54,8.95ZM65.12,115.16l1.02-3.26-2.88,1.82,1.87,1.44Z"/>
        <path class="cls-4" d="M73.36,120.42l.64-1.31,3.37,1.65-1.51,3.09c-.48.16-1.1.2-1.84.14-.74-.06-1.43-.25-2.07-.56-.81-.4-1.44-.91-1.87-1.55-.44-.64-.65-1.34-.64-2.13,0-.78.19-1.54.56-2.29.4-.81.92-1.44,1.56-1.9.65-.46,1.38-.7,2.19-.72.62-.01,1.31.16,2.05.52.96.47,1.62,1.04,1.96,1.71.34.67.42,1.4.22,2.19l-1.7-.47c.08-.43.02-.84-.17-1.2-.19-.37-.52-.66-.97-.88-.68-.34-1.33-.39-1.95-.15-.62.24-1.13.78-1.55,1.63-.45.92-.58,1.71-.4,2.37.18.66.61,1.15,1.27,1.48.33.16.69.26,1.08.29.39.03.75.02,1.08-.05l.48-.98-1.79-.88Z"/>
        <path class="cls-4" d="M79.08,126.26l2.15-8.36,3.55.91c.89.23,1.52.47,1.89.73.37.25.62.61.77,1.05.14.45.15.92.03,1.41-.16.63-.48,1.1-.95,1.41-.47.31-1.09.43-1.85.35.31.31.55.62.72.93.17.32.38.85.61,1.61l.6,1.89-2.02-.52-.75-2.13c-.27-.76-.46-1.25-.57-1.46-.12-.21-.26-.37-.42-.48-.16-.11-.44-.21-.83-.31l-.34-.09-.9,3.49-1.69-.43ZM82.01,121.86l1.25.32c.81.21,1.32.3,1.54.29.22-.02.41-.09.56-.23.16-.14.27-.33.33-.58.07-.28.06-.53-.05-.74-.11-.21-.29-.38-.55-.49-.13-.05-.54-.17-1.22-.35l-1.32-.34-.55,2.12Z"/>
        <path class="cls-4" d="M89.69,124.35c.04-.88.21-1.61.5-2.19.22-.43.51-.81.86-1.14.36-.33.74-.57,1.15-.72.55-.2,1.17-.28,1.88-.25,1.27.06,2.27.51,2.99,1.34.72.83,1.05,1.94.98,3.35-.07,1.39-.5,2.46-1.3,3.21-.8.75-1.83,1.09-3.09,1.03-1.28-.06-2.28-.51-3-1.33-.72-.82-1.04-1.92-.97-3.29M91.49,124.38c-.05.98.14,1.73.57,2.26.43.53.99.81,1.68.84.69.03,1.28-.19,1.75-.66.47-.48.73-1.22.78-2.22.05-.99-.13-1.74-.54-2.24-.41-.51-.97-.78-1.69-.82-.72-.04-1.31.18-1.77.65-.46.47-.72,1.2-.77,2.19"/>
        <polygon class="cls-4" points="106.5 128.11 104.46 119.72 106.15 119.31 107.06 123.03 109.57 118.47 111.85 117.91 109.49 121.95 114.07 126.26 111.88 126.8 108.61 123.42 107.58 125.16 108.2 127.7 106.5 128.11"/>
        <polygon class="cls-4" points="116.99 125.11 113.45 117.23 118.85 114.8 119.45 116.13 115.64 117.85 116.48 119.71 119.76 118.23 120.36 119.57 117.08 121.05 118.58 124.39 116.99 125.11"/>
        <polygon class="cls-4" points="127.13 119.82 123.12 113.87 120.99 115.3 120.18 114.09 125.87 110.26 126.69 111.47 124.57 112.89 128.57 118.85 127.13 119.82"/>
        <rect class="cls-4" x="131.12" y="114.39" width="1.66" height="1.66" transform="translate(-43.18 111.26) rotate(-39.83)"/>
      </g>
      <g>
        <g>
          <path class="cls-1" d="M212.62,82.95V29.28h17.79v53.66h-17.79ZM228.8,71.45l-1-19.86,20.24-22.31h19.7l-22.69,24.99-10.04,10.27-6.21,6.9ZM247.89,82.95l-15.79-20.85,11.73-12.42,24.99,33.27h-20.93Z"/>
          <path class="cls-1" d="M262.76,82.95l23.46-53.66h17.79l23.46,53.66h-18.71l-17.33-45.08h7.05l-17.33,45.08h-18.4ZM276.71,73.59l4.6-13.03h24.69l4.6,13.03h-33.89Z"/>
          <path class="cls-1" d="M330.38,82.95V29.28h25.84c5.01,0,9.34.82,12.99,2.45,3.65,1.64,6.48,3.97,8.47,7.01,1.99,3.04,2.99,6.63,2.99,10.77s-1,7.72-2.99,10.73c-1.99,3.02-4.82,5.35-8.47,7.01-3.65,1.66-7.99,2.49-12.99,2.49h-15.79l8.05-7.74v20.93h-18.09ZM348.47,64.01l-8.05-8.2h14.64c2.5,0,4.36-.56,5.56-1.69,1.2-1.12,1.8-2.66,1.8-4.6s-.6-3.47-1.8-4.6c-1.2-1.12-3.05-1.69-5.56-1.69h-14.64l8.05-8.2v28.98Z"/>
          <path class="cls-1" d="M415.55,84.17c-4.4,0-8.45-.69-12.15-2.07-3.71-1.38-6.91-3.33-9.62-5.86s-4.82-5.51-6.32-8.93c-1.51-3.42-2.26-7.15-2.26-11.19s.75-7.83,2.26-11.23c1.51-3.4,3.62-6.36,6.32-8.89,2.71-2.53,5.92-4.48,9.62-5.86,3.71-1.38,7.73-2.07,12.07-2.07s8.43.69,12.11,2.07c3.68,1.38,6.87,3.33,9.58,5.86,2.71,2.53,4.82,5.49,6.32,8.89,1.51,3.4,2.26,7.14,2.26,11.23s-.76,7.77-2.26,11.19c-1.51,3.42-3.62,6.4-6.32,8.93-2.71,2.53-5.9,4.48-9.58,5.86-3.68,1.38-7.69,2.07-12.04,2.07ZM415.47,69.53c1.69,0,3.26-.31,4.72-.92,1.46-.61,2.73-1.49,3.83-2.64,1.1-1.15,1.95-2.56,2.57-4.22.61-1.66.92-3.54.92-5.63s-.31-3.97-.92-5.63c-.61-1.66-1.47-3.07-2.57-4.22-1.1-1.15-2.38-2.03-3.83-2.64s-3.03-.92-4.72-.92-3.26.31-4.72.92c-1.46.61-2.73,1.49-3.83,2.64-1.1,1.15-1.95,2.56-2.57,4.22-.61,1.66-.92,3.54-.92,5.63s.31,3.97.92,5.63c.61,1.66,1.47,3.07,2.57,4.22,1.1,1.15,2.38,2.03,3.83,2.64,1.46.61,3.03.92,4.72.92Z"/>
          <path class="cls-1" d="M472.36,84.17c-4.5,0-8.84-.51-13.03-1.53-4.19-1.02-7.64-2.35-10.35-3.99l5.83-13.19c2.55,1.48,5.4,2.67,8.55,3.56,3.14.9,6.2,1.34,9.16,1.34,1.74,0,3.11-.12,4.1-.35,1-.23,1.73-.56,2.19-1,.46-.43.69-.96.69-1.57,0-.97-.54-1.74-1.61-2.3-1.07-.56-2.49-1.03-4.25-1.42-1.76-.38-3.69-.79-5.79-1.23-2.1-.43-4.2-1.01-6.32-1.72-2.12-.72-4.06-1.66-5.83-2.84-1.76-1.18-3.18-2.72-4.25-4.64-1.07-1.92-1.61-4.3-1.61-7.17,0-3.32.93-6.35,2.8-9.08,1.87-2.73,4.65-4.92,8.36-6.55,3.71-1.64,8.32-2.45,13.84-2.45,3.63,0,7.21.38,10.73,1.15,3.53.77,6.69,1.94,9.51,3.53l-5.44,13.11c-2.66-1.33-5.23-2.32-7.7-2.99-2.48-.66-4.89-1-7.24-1-1.74,0-3.12.15-4.14.46-1.02.31-1.75.72-2.19,1.23-.43.51-.65,1.07-.65,1.69,0,.92.54,1.65,1.61,2.18s2.49.98,4.25,1.34c1.76.36,3.71.74,5.83,1.15,2.12.41,4.23.97,6.32,1.69,2.1.72,4.03,1.66,5.79,2.84,1.76,1.18,3.18,2.71,4.25,4.6,1.07,1.89,1.61,4.24,1.61,7.05,0,3.27-.93,6.27-2.8,9.01-1.87,2.73-4.64,4.93-8.32,6.59-3.68,1.66-8.31,2.49-13.88,2.49Z"/>
        </g>
        <g>
          <path class="cls-1" d="M212.62,119.34v-29.46h9.93v29.46h-9.93ZM221.88,108.48v-8.16h10.52v8.16h-10.52ZM231.73,119.34v-29.46h9.93v29.46h-9.93Z"/>
          <path class="cls-1" d="M246.46,119.34v-29.46h9.93v29.46h-9.93Z"/>
          <path class="cls-1" d="M261.19,119.34v-29.46h14.52c3.28,0,6.17.6,8.67,1.79,2.5,1.19,4.45,2.88,5.85,5.07,1.4,2.19,2.1,4.81,2.1,7.87s-.7,5.65-2.1,7.85c-1.4,2.2-3.35,3.9-5.85,5.09-2.5,1.19-5.39,1.79-8.67,1.79h-14.52ZM271.13,111.6h4.17c1.4,0,2.63-.27,3.68-.8,1.05-.53,1.87-1.33,2.46-2.38.59-1.05.88-2.32.88-3.81s-.29-2.79-.88-3.83c-.59-1.04-1.41-1.82-2.46-2.36-1.05-.53-2.28-.8-3.68-.8h-4.17v13.97Z"/>
          <path class="cls-1" d="M295.96,119.34v-29.46h13.76c4.52,0,7.95,1,10.31,2.99,2.36,1.99,3.54,4.7,3.54,8.12,0,2.27-.55,4.23-1.64,5.87-1.09,1.64-2.64,2.9-4.65,3.77-2.01.87-4.39,1.3-7.13,1.3h-8.67l4.42-4.08v11.49h-9.93ZM305.89,108.94l-4.42-4.5h8.04c1.37,0,2.39-.31,3.05-.93.66-.62.99-1.46.99-2.52s-.33-1.91-.99-2.53c-.66-.62-1.68-.93-3.05-.93h-8.04l4.42-4.5v15.91ZM313.59,119.34l-7.24-10.73h10.52l7.32,10.73h-10.61Z"/>
          <path class="cls-1" d="M324.11,119.34l12.88-29.46h9.76l12.88,29.46h-10.27l-9.51-24.75h3.87l-9.51,24.75h-10.1ZM331.77,114.21l2.52-7.16h13.55l2.52,7.16h-18.6Z"/>
          <path class="cls-1" d="M374.7,120.01c-4.52,0-8.04-1.22-10.56-3.66-2.53-2.44-3.79-5.86-3.79-10.27v-16.2h9.93v15.91c0,2.25.41,3.84,1.22,4.78.81.94,1.91,1.41,3.28,1.41s2.5-.47,3.3-1.41c.8-.94,1.2-2.53,1.2-4.78v-15.91h9.76v16.2c0,4.41-1.26,7.83-3.79,10.27-2.53,2.44-6.05,3.66-10.56,3.66Z"/>
          <path class="cls-1" d="M393.6,119.34v-29.46h9.93v21.76h13.3v7.7h-23.23Z"/>
          <path class="cls-1" d="M419.57,119.34v-29.46h9.93v29.46h-9.93Z"/>
          <path class="cls-1" d="M434.3,119.34v-29.46h9.76v29.46h-9.76ZM443.18,113.03l-.55-10.9,11.11-12.25h10.82l-12.46,13.72-5.51,5.64-3.41,3.79ZM453.66,119.34l-8.67-11.45,6.44-6.82,13.72,18.27h-11.49Z"/>
          <path class="cls-1" d="M461.83,119.34l12.88-29.46h9.76l12.88,29.46h-10.27l-9.51-24.75h3.87l-9.51,24.75h-10.1ZM469.49,114.21l2.52-7.16h13.55l2.52,7.16h-18.6Z"/>
        </g>
      </g>
    </g>
  </g>
</svg>