<?xml version="1.0" encoding="UTF-8"?>
<svg id="Layer_2" data-name="Layer 2" xmlns="http://www.w3.org/2000/svg" viewBox="0 0 151.86 86.1">
  <defs>
    <style>
      .cls-1 {
        fill: #263238;
      }

      .cls-1, .cls-2, .cls-3, .cls-4 {
        stroke-width: 0px;
      }

      .cls-2 {
        fill: #333;
      }

      .cls-3 {
        fill: #ffc742;
      }

      .cls-4 {
        fill: #a7a9ac;
      }
    </style>
  </defs>
  <g id="Réteg_1" data-name="Réteg 1">
    <g>
      <g>
        <path class="cls-4" d="M108.52,34.67h3.41v-1.71c0-.94-.76-1.7-1.7-1.7s-1.7.76-1.7,1.7v1.71Z"/>
        <g>
          <path class="cls-4" d="M101.26,10.81c-.94,0-1.7.76-1.7,1.7v25.99h3.41V12.52c0-.94-.76-1.7-1.7-1.7Z"/>
          <path class="cls-1" d="M100.02,12.54c0-.68.55-1.24,1.23-1.24s1.23.55,1.23,1.24-.55,1.23-1.23,1.23-1.23-.55-1.23-1.23Z"/>
          <path class="cls-4" d="M99.55,15.92h3.41c1,0,1.81.81,1.81,1.81v12.78c0,1-.81,1.81-1.81,1.81h-3.41c-1,0-1.81-.81-1.81-1.81v-12.78c0-1,.81-1.81,1.81-1.81Z"/>
        </g>
      </g>
      <polygon class="cls-4" points="63.86 39.95 72.1 36.88 58.93 1.6 50.68 4.67 63.86 39.95"/>
      <rect class="cls-1" x="1.81" y="40.18" width="3.08" height="29.65"/>
      <path class="cls-3" d="M0,69.75c0-.79.64-1.43,1.43-1.43h10.89v2.86H1.43c-.79,0-1.43-.64-1.43-1.43Z"/>
      <path class="cls-1" d="M58.48.15c.92-.4,1.98.03,2.38.94l2.05,4.75c.4.92-.03,1.98-.94,2.38L11.13,30.19l-3.49-8.08L58.48.15Z"/>
      <path class="cls-3" d="M92.18,34.69h38.7c9,0,16.3,7.3,16.3,16.3v7.84c0,1-.81,1.81-1.81,1.81h-53.19v-25.96Z"/>
      <path class="cls-3" d="M57.86,50.03c0,1.16.43,2.29,1.21,3.16l5.5,6.11c.77.85,1.87,1.35,3.02,1.35h24.59V16.26c0-1-.81-1.81-1.81-1.81h-20.58c-1.11,0-2.13.63-2.62,1.62l-9.49,18.62h0s.17,15.35.17,15.35Z"/>
      <path class="cls-1" d="M74.44,60.69h51.04v.83c0,1-.81,1.81-1.81,1.81h-47.42c-1,0-1.81-.81-1.81-1.81v-.83Z"/>
      <rect class="cls-1" x="85.14" y="63.32" width="28.16" height="5.15"/>
      <path class="cls-4" d="M127.3,49.33h12.11c1,0,1.81.81,1.81,1.81v4.69c0,1-.81,1.81-1.81,1.81h-12.11c-1,0-1.81-.81-1.81-1.81v-4.69c0-1,.81-1.81,1.81-1.81Z"/>
      <g>
        <path class="cls-2" d="M126.73,51.13c0-.29.24-.53.53-.53h12.12c.29,0,.53.24.53.53s-.24.53-.53.53h-12.12c-.29,0-.53-.24-.53-.53Z"/>
        <path class="cls-2" d="M126.73,53.48c0-.29.24-.53.53-.53h12.12c.29,0,.53.24.53.53s-.24.53-.53.53h-12.12c-.29,0-.53-.24-.53-.53Z"/>
        <path class="cls-2" d="M126.73,55.83c0-.29.24-.53.53-.53h12.12c.29,0,.53.24.53.53s-.24.53-.53.53h-12.12c-.29,0-.53-.24-.53-.53Z"/>
      </g>
      <path class="cls-1" d="M86.7,56.88h-15.15c-1.18,0-2.13-.96-2.13-2.13V20.34c0-1.17.96-2.13,2.13-2.13h15.15c1.18,0,2.13.96,2.13,2.13v34.4c0,1.17-.96,2.13-2.13,2.13ZM71.55,18.85c-.82,0-1.49.67-1.49,1.49v34.4c0,.82.67,1.49,1.49,1.49h15.15c.82,0,1.49-.67,1.49-1.49V20.34c0-.82-.67-1.49-1.49-1.49h-15.15Z"/>
      <path class="cls-4" d="M73.97,20.29h10.46c1,0,1.81.81,1.81,1.81v10.77c0,1-.81,1.81-1.81,1.81h-10.46c-1,0-1.81-.81-1.81-1.81v-10.77c0-1,.81-1.81,1.81-1.81Z"/>
      <path class="cls-1" d="M85.95,38.08c0,.57-.46,1.03-1.03,1.03h-2.05c-.57,0-1.03-.46-1.03-1.03s.46-1.03,1.03-1.03h2.05c.57,0,1.03.46,1.03,1.03Z"/>
      <path class="cls-4" d="M57.68,50.04c0,1.16.44,2.29,1.23,3.14l5.68,6.14c.44.47,1.23.16,1.23-.48v-22.33c0-1-.81-1.81-1.81-1.81h-6.33v15.35Z"/>
      <path class="cls-4" d="M2.19,17.06h2.32c1,0,1.81.81,1.81,1.81v22.51c0,1-.81,1.81-1.81,1.81h-2.32c-1,0-1.81-.81-1.81-1.81v-22.51c0-1,.81-1.81,1.81-1.81Z"/>
      <g>
        <path class="cls-4" d="M142.33,71.2c2.91,0,5.28,2.37,5.28,5.28s-2.37,5.28-5.28,5.28H59.18c-2.91,0-5.28-2.37-5.28-5.28s2.37-5.28,5.28-5.28h83.16Z"/>
        <g>
          <path class="cls-1" d="M149.37,76.34c0,3.89-3.15,7.04-7.04,7.04s-7.04-3.15-7.04-7.04,3.15-7.04,7.04-7.04,7.04,3.15,7.04,7.04Z"/>
          <path class="cls-4" d="M147.11,76.34c0,2.64-2.14,4.77-4.77,4.77s-4.77-2.14-4.77-4.77,2.14-4.77,4.77-4.77,4.77,2.14,4.77,4.77Z"/>
          <path class="cls-4" d="M146.18,76.34c0,2.12-1.72,3.84-3.84,3.84s-3.85-1.72-3.85-3.84,1.72-3.85,3.85-3.85,3.84,1.72,3.84,3.85Z"/>
          <path class="cls-4" d="M144.56,76.34c0,1.23-1,2.22-2.22,2.22s-2.22-1-2.22-2.22.99-2.22,2.22-2.22,2.22.99,2.22,2.22Z"/>
        </g>
        <g>
          <path class="cls-1" d="M132.7,76.34c0,3.89-3.15,7.04-7.04,7.04s-7.04-3.15-7.04-7.04,3.15-7.04,7.04-7.04,7.04,3.15,7.04,7.04Z"/>
          <path class="cls-4" d="M130.43,76.34c0,2.64-2.14,4.77-4.77,4.77s-4.77-2.14-4.77-4.77,2.14-4.77,4.77-4.77,4.77,2.14,4.77,4.77Z"/>
          <path class="cls-4" d="M129.5,76.34c0,2.12-1.72,3.84-3.84,3.84s-3.85-1.72-3.85-3.84,1.72-3.85,3.85-3.85,3.84,1.72,3.84,3.85Z"/>
          <path class="cls-4" d="M127.88,76.34c0,1.23-.99,2.22-2.22,2.22s-2.22-1-2.22-2.22,1-2.22,2.22-2.22,2.22.99,2.22,2.22Z"/>
        </g>
        <g>
          <path class="cls-1" d="M116.02,76.34c0,3.89-3.15,7.04-7.04,7.04s-7.04-3.15-7.04-7.04,3.15-7.04,7.04-7.04,7.04,3.15,7.04,7.04Z"/>
          <path class="cls-4" d="M113.75,76.34c0,2.64-2.14,4.77-4.77,4.77s-4.77-2.14-4.77-4.77,2.14-4.77,4.77-4.77,4.77,2.14,4.77,4.77Z"/>
          <path class="cls-4" d="M112.83,76.34c0,2.12-1.72,3.84-3.85,3.84s-3.85-1.72-3.85-3.84,1.72-3.85,3.85-3.85,3.85,1.72,3.85,3.85Z"/>
          <path class="cls-4" d="M111.2,76.34c0,1.23-.99,2.22-2.22,2.22s-2.22-1-2.22-2.22,1-2.22,2.22-2.22,2.22.99,2.22,2.22Z"/>
        </g>
        <g>
          <path class="cls-1" d="M99.34,76.34c0,3.89-3.15,7.04-7.04,7.04s-7.04-3.15-7.04-7.04,3.15-7.04,7.04-7.04,7.04,3.15,7.04,7.04Z"/>
          <path class="cls-4" d="M97.08,76.34c0,2.64-2.14,4.77-4.77,4.77s-4.77-2.14-4.77-4.77,2.14-4.77,4.77-4.77,4.77,2.14,4.77,4.77Z"/>
          <path class="cls-4" d="M96.15,76.34c0,2.12-1.72,3.84-3.84,3.84s-3.84-1.72-3.84-3.84,1.72-3.85,3.84-3.85,3.84,1.72,3.84,3.85Z"/>
          <path class="cls-4" d="M94.53,76.34c0,1.23-.99,2.22-2.22,2.22s-2.22-1-2.22-2.22,1-2.22,2.22-2.22,2.22.99,2.22,2.22Z"/>
        </g>
        <g>
          <path class="cls-1" d="M82.67,76.34c0,3.89-3.15,7.04-7.04,7.04s-7.04-3.15-7.04-7.04,3.15-7.04,7.04-7.04,7.04,3.15,7.04,7.04Z"/>
          <path class="cls-4" d="M80.4,76.34c0,2.64-2.14,4.77-4.77,4.77s-4.77-2.14-4.77-4.77,2.14-4.77,4.77-4.77,4.77,2.14,4.77,4.77Z"/>
          <path class="cls-4" d="M79.47,76.34c0,2.12-1.72,3.84-3.84,3.84s-3.85-1.72-3.85-3.84,1.72-3.85,3.85-3.85,3.84,1.72,3.84,3.85Z"/>
          <path class="cls-4" d="M77.85,76.34c0,1.23-1,2.22-2.22,2.22s-2.22-1-2.22-2.22.99-2.22,2.22-2.22,2.22.99,2.22,2.22Z"/>
        </g>
        <g>
          <path class="cls-1" d="M65.99,76.34c0,3.89-3.15,7.04-7.04,7.04s-7.04-3.15-7.04-7.04,3.15-7.04,7.04-7.04,7.04,3.15,7.04,7.04Z"/>
          <path class="cls-4" d="M63.72,76.34c0,2.64-2.14,4.77-4.77,4.77s-4.77-2.14-4.77-4.77,2.14-4.77,4.77-4.77,4.77,2.14,4.77,4.77Z"/>
          <path class="cls-4" d="M62.8,76.34c0,2.12-1.72,3.84-3.85,3.84s-3.84-1.72-3.84-3.84,1.72-3.85,3.84-3.85,3.85,1.72,3.85,3.85Z"/>
          <path class="cls-4" d="M61.17,76.34c0,1.23-.99,2.22-2.22,2.22s-2.22-1-2.22-2.22,1-2.22,2.22-2.22,2.22.99,2.22,2.22Z"/>
        </g>
        <path class="cls-1" d="M142.33,71.2c2.91,0,5.28,2.37,5.28,5.28s-2.37,5.28-5.28,5.28H59.18c-2.91,0-5.28-2.37-5.28-5.28s2.37-5.28,5.28-5.28h83.16ZM142.33,68.12H59.18c-4.62,0-8.36,3.74-8.36,8.36s3.74,8.36,8.36,8.36h83.16c4.62,0,8.36-3.74,8.36-8.36s-3.74-8.36-8.36-8.36h0Z"/>
        <g>
          <path class="cls-1" d="M137.98,85.28c0,.45.37.82.82.82s.82-.37.82-.82v-.44h-1.64v.44Z"/>
          <path class="cls-1" d="M132.07,85.28c0,.45.37.82.82.82s.82-.37.82-.82v-.44h-1.64v.44Z"/>
          <path class="cls-1" d="M126.17,85.28c0,.45.37.82.82.82s.82-.37.82-.82v-.44h-1.64v.44Z"/>
          <path class="cls-1" d="M120.26,85.28c0,.45.37.82.82.82s.82-.37.82-.82v-.44h-1.64v.44Z"/>
          <path class="cls-1" d="M114.35,85.28c0,.45.37.82.82.82s.82-.37.82-.82v-.44h-1.64v.44Z"/>
          <path class="cls-1" d="M108.44,85.28c0,.45.37.82.82.82s.82-.37.82-.82v-.44h-1.64v.44Z"/>
          <path class="cls-1" d="M102.54,85.28c0,.45.37.82.82.82s.82-.37.82-.82v-.44h-1.64v.44Z"/>
          <path class="cls-1" d="M96.63,85.28c0,.45.37.82.82.82s.82-.37.82-.82v-.44h-1.64v.44Z"/>
          <path class="cls-1" d="M90.72,85.28c0,.45.37.82.82.82s.82-.37.82-.82v-.44h-1.64v.44Z"/>
          <path class="cls-1" d="M84.81,85.28c0,.45.37.82.82.82s.82-.37.82-.82v-.44h-1.64v.44Z"/>
          <path class="cls-1" d="M78.9,85.28c0,.45.37.82.82.82s.82-.37.82-.82v-.44h-1.64v.44Z"/>
          <path class="cls-1" d="M73,85.28c0,.45.37.82.82.82s.82-.37.82-.82v-.44h-1.64v.44Z"/>
          <path class="cls-1" d="M67.09,85.28c0,.45.37.82.82.82s.82-.37.82-.82v-.44h-1.64v.44Z"/>
          <path class="cls-1" d="M61.18,85.28c0,.45.37.82.82.82s.82-.37.82-.82v-.44h-1.64v.44Z"/>
        </g>
        <g>
          <path class="cls-1" d="M137.98,67.69c0-.45.37-.82.82-.82s.82.37.82.82v.44h-1.64v-.44Z"/>
          <path class="cls-1" d="M132.08,67.69c0-.45.37-.82.82-.82s.82.37.82.82v.44h-1.64v-.44Z"/>
          <path class="cls-1" d="M126.17,67.69c0-.45.37-.82.82-.82s.82.37.82.82v.44h-1.64v-.44Z"/>
          <path class="cls-1" d="M120.26,67.69c0-.45.37-.82.82-.82s.82.37.82.82v.44h-1.64v-.44Z"/>
          <path class="cls-1" d="M114.35,67.69c0-.45.37-.82.82-.82s.82.37.82.82v.44h-1.64v-.44Z"/>
          <path class="cls-1" d="M108.44,67.69c0-.45.37-.82.82-.82s.82.37.82.82v.44h-1.64v-.44Z"/>
          <path class="cls-1" d="M102.54,67.69c0-.45.37-.82.82-.82s.82.37.82.82v.44h-1.64v-.44Z"/>
          <path class="cls-1" d="M96.63,67.69c0-.45.37-.82.82-.82s.82.37.82.82v.44h-1.64v-.44Z"/>
          <path class="cls-1" d="M90.72,67.69c0-.45.37-.82.82-.82s.82.37.82.82v.44h-1.64v-.44Z"/>
          <path class="cls-1" d="M84.81,67.69c0-.45.37-.82.82-.82s.82.37.82.82v.44h-1.64v-.44Z"/>
          <path class="cls-1" d="M78.91,67.69c0-.45.37-.82.82-.82s.82.37.82.82v.44h-1.64v-.44Z"/>
          <path class="cls-1" d="M73,67.69c0-.45.37-.82.82-.82s.82.37.82.82v.44h-1.64v-.44Z"/>
          <path class="cls-1" d="M67.09,67.69c0-.45.37-.82.82-.82s.82.37.82.82v.44h-1.64v-.44Z"/>
          <path class="cls-1" d="M61.18,67.69c0-.45.37-.82.82-.82s.82.37.82.82v.44h-1.64v-.44Z"/>
        </g>
        <g>
          <path class="cls-1" d="M143.66,67.81c.11-.44.56-.7,1-.59.44.11.7.56.59,1l-.11.43-1.59-.41.11-.43Z"/>
          <path class="cls-1" d="M148.45,70.2c.34-.3.86-.27,1.16.07.3.34.27.86-.07,1.16l-.33.29-1.09-1.23.33-.29Z"/>
          <path class="cls-1" d="M151.04,75.44c.45,0,.82.37.82.82s-.37.82-.82.82h-.44v-1.64s.44,0,.44,0Z"/>
          <path class="cls-1" d="M149.76,81.13c.37.27.45.78.18,1.14-.27.37-.78.45-1.14.18l-.36-.26.96-1.33.36.26Z"/>
          <path class="cls-1" d="M145.23,84.63c.14.43-.1.89-.53,1.03-.43.14-.89-.1-1.03-.53l-.14-.42,1.56-.51.14.42Z"/>
        </g>
        <g>
          <path class="cls-1" d="M57.81,67.81c-.11-.44-.56-.7-1-.59-.44.11-.7.56-.59,1l.11.43,1.59-.41-.11-.43Z"/>
          <path class="cls-1" d="M53.02,70.2c-.34-.3-.86-.27-1.16.07-.3.34-.27.86.07,1.16l.33.29,1.09-1.23-.33-.29Z"/>
          <path class="cls-1" d="M50.43,75.44c-.45,0-.82.37-.82.82s.37.82.82.82h.44v-1.64s-.44,0-.44,0Z"/>
          <path class="cls-1" d="M51.71,81.13c-.37.27-.45.78-.18,1.14.27.37.78.45,1.14.18l.36-.26-.96-1.33-.36.26Z"/>
          <path class="cls-1" d="M56.24,84.63c-.14.43.1.89.53,1.03.43.14.89-.1,1.03-.53l.14-.42-1.56-.51-.14.42Z"/>
        </g>
      </g>
      <path class="cls-4" d="M13.76,40.5c-.68.51-1.64.38-2.16-.3-.51-.68-.38-1.64.3-2.16l28.14-21.46,1.85,2.46-28.14,21.46Z"/>
      <path class="cls-3" d="M43.33,19.75c-.8.6-1.93.44-2.54-.36l-1.4-1.85c-.6-.8-.44-1.93.35-2.54L56.71,2.22c.8-.6,1.93-.44,2.54.36l1.4,1.85c.6.8.44,1.93-.36,2.54l-16.95,12.79Z"/>
      <path class="cls-1" d="M39.07,58.44c0-1.24,1.01-2.25,2.25-2.25h1.85v6.28h-4.11v-4.03Z"/>
      <path class="cls-1" d="M32.56,60.9c0-1.24,1.01-2.25,2.25-2.25h1.31v3.81h-3.56v-1.56Z"/>
      <path class="cls-3" d="M13.06,70.36l8.61-1.79L9.29,9.06c-.21-.98-1.16-1.61-2.14-1.41l-5.07,1.05c-.98.2-1.61,1.16-1.41,2.14l12.39,59.51Z"/>
      <path class="cls-1" d="M10.23,64.67c-.25-1.13.61-2.2,1.77-2.2h31.18l-3.89,8.26c-.63,1.34-1.55,2.53-2.69,3.48l-6.13,5.11c-1.12.93-2.53,1.44-3.99,1.44h-10.43c-1.31,0-2.46-.92-2.74-2.2l-3.07-13.9Z"/>
    </g>
  </g>
</svg>